<?xml version="1.0" encoding="us-ascii" standalone="no"?><svg xmlns="http://www.w3.org/2000/svg" xmlns:xlink="http://www.w3.org/1999/xlink" contentStyleType="text/css" height="956px" preserveAspectRatio="none" style="width:945px;height:956px;background:#FFFFFF;" version="1.1" viewBox="0 0 945 956" width="945px" zoomAndPan="magnify"><defs/><g><text fill="#000000" font-family="Inter" font-size="14" font-weight="bold" lengthAdjust="spacing" textLength="340" x="298.75" y="29.5332">SSD: Voice Translation (Screen -&gt; Context -&gt; API)</text><rect fill="#FAFAFA" height="905.6563" rx="5" ry="5" style="stroke:#181818;stroke-width:0.5;" width="138" x="101.5" y="44.6094"/><text fill="#000000" font-family="Inter" font-size="13" font-weight="bold" lengthAdjust="spacing" textLength="116" x="112.5" y="58.1045">UI Layer (Screens)</text><rect fill="#EFEFEF" height="905.6563" rx="5" ry="5" style="stroke:#181818;stroke-width:0.5;" width="256" x="338" y="44.6094"/><text fill="#000000" font-family="Inter" font-size="13" font-weight="bold" lengthAdjust="spacing" textLength="207" x="362.5" y="58.1045">State Management (Context API)</text><rect fill="#E0E0E0" height="905.6563" rx="5" ry="5" style="stroke:#181818;stroke-width:0.5;" width="309" x="613.5" y="44.6094"/><text fill="#000000" font-family="Inter" font-size="13" font-weight="bold" lengthAdjust="spacing" textLength="124" x="706" y="58.1045">Services &amp; External</text><rect fill="#FFFFFF" height="168.1094" style="stroke:#181818;stroke-width:1.0;" width="10" x="403.5" y="244.625"/><rect fill="#FFFFFF" height="97.0547" style="stroke:#181818;stroke-width:1.0;" width="10" x="532.5" y="588.8438"/><rect fill="none" height="169.1094" rx="5" ry="5" style="stroke:#000000;stroke-width:1.5;" width="833" x="95.5" y="531.7891"/><line style="stroke:#181818;stroke-width:0.5;stroke-dasharray:5.0,5.0;" x1="22" x2="22" y1="121.2188" y2="869.6563"/><line style="stroke:#181818;stroke-width:0.5;stroke-dasharray:5.0,5.0;" x1="170.5" x2="170.5" y1="121.2188" y2="869.6563"/><line style="stroke:#181818;stroke-width:0.5;stroke-dasharray:5.0,5.0;" x1="408" x2="408" y1="121.2188" y2="869.6563"/><line style="stroke:#181818;stroke-width:0.5;stroke-dasharray:5.0,5.0;" x1="537" x2="537" y1="121.2188" y2="869.6563"/><line style="stroke:#181818;stroke-width:0.5;stroke-dasharray:5.0,5.0;" x1="670.5" x2="670.5" y1="121.2188" y2="869.6563"/><line style="stroke:#181818;stroke-width:0.5;stroke-dasharray:5.0,5.0;" x1="781.5" x2="781.5" y1="121.2188" y2="869.6563"/><line style="stroke:#181818;stroke-width:0.5;stroke-dasharray:5.0,5.0;" x1="879.5" x2="879.5" y1="121.2188" y2="869.6563"/><text fill="#000000" font-family="Inter" font-size="14" lengthAdjust="spacing" textLength="29" x="5" y="118.1426">User</text><ellipse cx="22.5" cy="52.1094" fill="#E2E2F0" rx="8" ry="8" style="stroke:#181818;stroke-width:0.5;"/><path d="M22.5,60.1094 L22.5,87.1094 M9.5,68.1094 L35.5,68.1094 M22.5,87.1094 L9.5,102.1094 M22.5,87.1094 L35.5,102.1094 " fill="none" style="stroke:#181818;stroke-width:0.5;"/><text fill="#000000" font-family="Inter" font-size="14" lengthAdjust="spacing" textLength="29" x="5" y="883.1895">User</text><ellipse cx="22.5" cy="894.7656" fill="#E2E2F0" rx="8" ry="8" style="stroke:#181818;stroke-width:0.5;"/><path d="M22.5,902.7656 L22.5,929.7656 M9.5,910.7656 L35.5,910.7656 M22.5,929.7656 L9.5,944.7656 M22.5,929.7656 L35.5,944.7656 " fill="none" style="stroke:#181818;stroke-width:0.5;"/><rect fill="#E2E2F0" height="31.6094" rx="5" ry="5" style="stroke:#181818;stroke-width:0.5;" width="130" x="105.5" y="88.6094"/><text fill="#000000" font-family="Inter" font-size="14" lengthAdjust="spacing" textLength="116" x="112.5" y="110.1426">TranslationScreen</text><rect fill="#E2E2F0" height="31.6094" rx="5" ry="5" style="stroke:#181818;stroke-width:0.5;" width="130" x="105.5" y="868.6563"/><text fill="#000000" font-family="Inter" font-size="14" lengthAdjust="spacing" textLength="116" x="112.5" y="890.1895">TranslationScreen</text><rect fill="#E2E2F0" height="31.6094" rx="5" ry="5" style="stroke:#181818;stroke-width:0.5;" width="133" x="342" y="88.6094"/><text fill="#000000" font-family="Inter" font-size="14" lengthAdjust="spacing" textLength="119" x="349" y="110.1426">TranslationContext</text><rect fill="#E2E2F0" height="31.6094" rx="5" ry="5" style="stroke:#181818;stroke-width:0.5;" width="133" x="342" y="868.6563"/><text fill="#000000" font-family="Inter" font-size="14" lengthAdjust="spacing" textLength="119" x="349" y="890.1895">TranslationContext</text><rect fill="#E2E2F0" height="31.6094" rx="5" ry="5" style="stroke:#181818;stroke-width:0.5;" width="105" x="485" y="88.6094"/><text fill="#000000" font-family="Inter" font-size="14" lengthAdjust="spacing" textLength="91" x="492" y="110.1426">HistoryContext</text><rect fill="#E2E2F0" height="31.6094" rx="5" ry="5" style="stroke:#181818;stroke-width:0.5;" width="105" x="485" y="868.6563"/><text fill="#000000" font-family="Inter" font-size="14" lengthAdjust="spacing" textLength="91" x="492" y="890.1895">HistoryContext</text><rect fill="#E2E2F0" height="31.6094" rx="5" ry="5" style="stroke:#181818;stroke-width:0.5;" width="106" x="617.5" y="88.6094"/><text fill="#000000" font-family="Inter" font-size="14" lengthAdjust="spacing" textLength="92" x="624.5" y="110.1426">TranslationAPI</text><rect fill="#E2E2F0" height="31.6094" rx="5" ry="5" style="stroke:#181818;stroke-width:0.5;" width="106" x="617.5" y="868.6563"/><text fill="#000000" font-family="Inter" font-size="14" lengthAdjust="spacing" textLength="92" x="624.5" y="890.1895">TranslationAPI</text><rect fill="#E2E2F0" height="31.6094" rx="5" ry="5" style="stroke:#181818;stroke-width:0.5;" width="97" x="733.5" y="88.6094"/><text fill="#000000" font-family="Inter" font-size="14" lengthAdjust="spacing" textLength="83" x="740.5" y="110.1426">Expo Speech</text><rect fill="#E2E2F0" height="31.6094" rx="5" ry="5" style="stroke:#181818;stroke-width:0.5;" width="97" x="733.5" y="868.6563"/><text fill="#000000" font-family="Inter" font-size="14" lengthAdjust="spacing" textLength="83" x="740.5" y="890.1895">Expo Speech</text><rect fill="#E2E2F0" height="31.6094" rx="5" ry="5" style="stroke:#181818;stroke-width:0.5;" width="78" x="840.5" y="88.6094"/><text fill="#000000" font-family="Inter" font-size="14" lengthAdjust="spacing" textLength="64" x="847.5" y="110.1426">Supabase</text><rect fill="#E2E2F0" height="31.6094" rx="5" ry="5" style="stroke:#181818;stroke-width:0.5;" width="78" x="840.5" y="868.6563"/><text fill="#000000" font-family="Inter" font-size="14" lengthAdjust="spacing" textLength="64" x="847.5" y="890.1895">Supabase</text><rect fill="#FFFFFF" height="168.1094" style="stroke:#181818;stroke-width:1.0;" width="10" x="403.5" y="244.625"/><rect fill="#FFFFFF" height="97.0547" style="stroke:#181818;stroke-width:1.0;" width="10" x="532.5" y="588.8438"/><rect fill="#EEEEEE" height="3" rx="5" ry="5" style="stroke:#EEEEEE;stroke-width:1.0;" width="938.5" x="0" y="152.3945"/><line style="stroke:#000000;stroke-width:1.0;" x1="0" x2="938.5" y1="152.3945" y2="152.3945"/><line style="stroke:#000000;stroke-width:1.0;" x1="0" x2="938.5" y1="155.3945" y2="155.3945"/><rect fill="#EEEEEE" height="24.3516" rx="5" ry="5" style="stroke:#000000;stroke-width:2.0;" width="173" x="382.75" y="141.2188"/><text fill="#000000" font-family="Inter" font-size="13" font-weight="bold" lengthAdjust="spacing" textLength="155" x="388.75" y="158.7139">Flow: Detect &amp; Translate</text><polygon fill="#181818" points="158.5,193.9219,168.5,197.9219,158.5,201.9219,162.5,197.9219" style="stroke:#181818;stroke-width:1.0;"/><line style="stroke:#181818;stroke-width:1.5;" x1="22.5" x2="164.5" y1="197.9219" y2="197.9219"/><text fill="#000000" font-family="Inter" font-size="13" lengthAdjust="spacing" textLength="35" x="29.5" y="193.0654">Inputs</text><text fill="#000000" font-family="Inter" font-size="13" lengthAdjust="spacing" textLength="4" x="64.5" y="193.0654">&#160;</text><text fill="#000000" font-family="Inter" font-size="13" lengthAdjust="spacing" textLength="25" x="68.5" y="193.0654">Text</text><text fill="#000000" font-family="Inter" font-size="13" lengthAdjust="spacing" textLength="4" x="93.5" y="193.0654">&#160;</text><text fill="#000000" font-family="Inter" font-size="13" lengthAdjust="spacing" textLength="4" x="97.5" y="193.0654">/</text><text fill="#000000" font-family="Inter" font-size="13" lengthAdjust="spacing" textLength="4" x="101.5" y="193.0654">&#160;</text><text fill="#000000" font-family="Inter" font-size="13" lengthAdjust="spacing" textLength="33" x="105.5" y="193.0654">Voice</text><polygon fill="#181818" points="391.5,240.625,401.5,244.625,391.5,248.625,395.5,244.625" style="stroke:#181818;stroke-width:1.0;"/><line style="stroke:#181818;stroke-width:1.5;" x1="170.5" x2="397.5" y1="244.625" y2="244.625"/><text fill="#000000" font-family="Inter" font-size="13" lengthAdjust="spacing" textLength="214" x="177.5" y="223.417">performDetectionAndTranslation(text,</text><text fill="#000000" font-family="Inter" font-size="13" lengthAdjust="spacing" textLength="65" x="177.5" y="239.7686">targetLang)</text><polygon fill="#181818" points="658.5,270.9766,668.5,274.9766,658.5,278.9766,662.5,274.9766" style="stroke:#181818;stroke-width:1.0;"/><line style="stroke:#181818;stroke-width:1.5;" x1="413.5" x2="664.5" y1="274.9766" y2="274.9766"/><text fill="#000000" font-family="Inter" font-size="13" lengthAdjust="spacing" textLength="122" x="420.5" y="270.1201">detectLanguage(text)</text><polygon fill="#181818" points="424.5,301.3281,414.5,305.3281,424.5,309.3281,420.5,305.3281" style="stroke:#181818;stroke-width:1.0;"/><line style="stroke:#181818;stroke-width:1.5;stroke-dasharray:2.0,2.0;" x1="418.5" x2="669.5" y1="305.3281" y2="305.3281"/><text fill="#000000" font-family="Inter" font-size="13" lengthAdjust="spacing" textLength="21" x="430.5" y="300.4717">"pt"</text><polygon fill="#181818" points="658.5,348.0313,668.5,352.0313,658.5,356.0313,662.5,352.0313" style="stroke:#181818;stroke-width:1.0;"/><line style="stroke:#181818;stroke-width:1.5;" x1="413.5" x2="664.5" y1="352.0313" y2="352.0313"/><text fill="#000000" font-family="Inter" font-size="13" lengthAdjust="spacing" textLength="113" x="420.5" y="330.8232">useTranslation("pt",</text><text fill="#000000" font-family="Inter" font-size="13" lengthAdjust="spacing" textLength="65" x="420.5" y="347.1748">targetLang,</text><text fill="#000000" font-family="Inter" font-size="13" lengthAdjust="spacing" textLength="4" x="485.5" y="347.1748">&#160;</text><text fill="#000000" font-family="Inter" font-size="13" lengthAdjust="spacing" textLength="26" x="489.5" y="347.1748">text)</text><polygon fill="#181818" points="424.5,378.3828,414.5,382.3828,424.5,386.3828,420.5,382.3828" style="stroke:#181818;stroke-width:1.0;"/><line style="stroke:#181818;stroke-width:1.5;stroke-dasharray:2.0,2.0;" x1="418.5" x2="669.5" y1="382.3828" y2="382.3828"/><text fill="#000000" font-family="Inter" font-size="13" lengthAdjust="spacing" textLength="34" x="430.5" y="377.5264">"Hello</text><text fill="#000000" font-family="Inter" font-size="13" lengthAdjust="spacing" textLength="4" x="464.5" y="377.5264">&#160;</text><text fill="#000000" font-family="Inter" font-size="13" lengthAdjust="spacing" textLength="39" x="468.5" y="377.5264">World"</text><polygon fill="#181818" points="181.5,408.7344,171.5,412.7344,181.5,416.7344,177.5,412.7344" style="stroke:#181818;stroke-width:1.0;"/><line style="stroke:#181818;stroke-width:1.5;stroke-dasharray:2.0,2.0;" x1="175.5" x2="407.5" y1="412.7344" y2="412.7344"/><text fill="#000000" font-family="Inter" font-size="13" lengthAdjust="spacing" textLength="45" x="187.5" y="407.8779">Returns</text><text fill="#000000" font-family="Inter" font-size="13" lengthAdjust="spacing" textLength="4" x="232.5" y="407.8779">&#160;</text><text fill="#000000" font-family="Inter" font-size="13" lengthAdjust="spacing" textLength="100" x="236.5" y="407.8779">TranslationResult</text><line style="stroke:#181818;stroke-width:1.5;" x1="170.5" x2="212.5" y1="459.4375" y2="459.4375"/><line style="stroke:#181818;stroke-width:1.5;" x1="212.5" x2="212.5" y1="459.4375" y2="472.4375"/><line style="stroke:#181818;stroke-width:1.5;" x1="171.5" x2="212.5" y1="472.4375" y2="472.4375"/><polygon fill="#181818" points="181.5,468.4375,171.5,472.4375,181.5,476.4375,177.5,472.4375" style="stroke:#181818;stroke-width:1.0;"/><text fill="#000000" font-family="Inter" font-size="13" lengthAdjust="spacing" textLength="141" x="177.5" y="438.2295">setTranslatedText("Hello</text><text fill="#000000" font-family="Inter" font-size="13" lengthAdjust="spacing" textLength="43" x="177.5" y="454.5811">World")</text><rect fill="#EEEEEE" height="3" rx="5" ry="5" style="stroke:#EEEEEE;stroke-width:1.0;" width="938.5" x="0" y="501.6133"/><line style="stroke:#000000;stroke-width:1.0;" x1="0" x2="938.5" y1="501.6133" y2="501.6133"/><line style="stroke:#000000;stroke-width:1.0;" x1="0" x2="938.5" y1="504.6133" y2="504.6133"/><rect fill="#EEEEEE" height="24.3516" rx="5" ry="5" style="stroke:#000000;stroke-width:2.0;" width="256" x="341.25" y="490.4375"/><text fill="#000000" font-family="Inter" font-size="13" font-weight="bold" lengthAdjust="spacing" textLength="238" x="347.25" y="507.9326">Flow: Save History (If User Logged In)</text><path d="M100.5,531.7891 L160.5,531.7891 L160.5,540.1406 L150.5,550.1406 L95.5,550.1406 L95.5,536.7891 A5,5 0 0 1 100.5,531.7891 " fill="#EEEEEE" style="stroke:#000000;stroke-width:1.5;"/><rect fill="none" height="169.1094" rx="5" ry="5" style="stroke:#000000;stroke-width:1.5;" width="833" x="95.5" y="531.7891"/><text fill="#000000" font-family="Inter" font-size="13" font-weight="bold" lengthAdjust="spacing" textLength="20" x="110.5" y="546.2842">opt</text><text fill="#000000" font-family="Inter" font-size="11" font-weight="bold" lengthAdjust="spacing" textLength="127" x="175.5" y="545.208">[User is Authenticated]</text><polygon fill="#181818" points="520.5,584.8438,530.5,588.8438,520.5,592.8438,524.5,588.8438" style="stroke:#181818;stroke-width:1.0;"/><line style="stroke:#181818;stroke-width:1.5;" x1="170.5" x2="526.5" y1="588.8438" y2="588.8438"/><text fill="#000000" font-family="Inter" font-size="13" lengthAdjust="spacing" textLength="138" x="177.5" y="567.6357">saveTranslation(original,</text><text fill="#000000" font-family="Inter" font-size="13" lengthAdjust="spacing" textLength="61" x="177.5" y="583.9873">translated,</text><text fill="#000000" font-family="Inter" font-size="13" lengthAdjust="spacing" textLength="4" x="238.5" y="583.9873">&#160;</text><text fill="#000000" font-family="Inter" font-size="13" lengthAdjust="spacing" textLength="16" x="242.5" y="583.9873">...)</text><polygon fill="#181818" points="867.5,615.1953,877.5,619.1953,867.5,623.1953,871.5,619.1953" style="stroke:#181818;stroke-width:1.0;"/><line style="stroke:#181818;stroke-width:1.5;" x1="542.5" x2="873.5" y1="619.1953" y2="619.1953"/><text fill="#000000" font-family="Inter" font-size="13" lengthAdjust="spacing" textLength="32" x="549.5" y="614.3389">insert</text><text fill="#000000" font-family="Inter" font-size="13" lengthAdjust="spacing" textLength="4" x="581.5" y="614.3389">&#160;</text><text fill="#000000" font-family="Inter" font-size="13" lengthAdjust="spacing" textLength="21" x="585.5" y="614.3389">into</text><text fill="#000000" font-family="Inter" font-size="13" lengthAdjust="spacing" textLength="4" x="606.5" y="614.3389">&#160;</text><text fill="#000000" font-family="Inter" font-size="13" lengthAdjust="spacing" textLength="71" x="610.5" y="614.3389">'translations'</text><polygon fill="#181818" points="553.5,645.5469,543.5,649.5469,553.5,653.5469,549.5,649.5469" style="stroke:#181818;stroke-width:1.0;"/><line style="stroke:#181818;stroke-width:1.5;stroke-dasharray:2.0,2.0;" x1="547.5" x2="878.5" y1="649.5469" y2="649.5469"/><text fill="#000000" font-family="Inter" font-size="13" lengthAdjust="spacing" textLength="49" x="559.5" y="644.6904">success</text><line style="stroke:#181818;stroke-width:1.5;" x1="542.5" x2="584.5" y1="684.8984" y2="684.8984"/><line style="stroke:#181818;stroke-width:1.5;" x1="584.5" x2="584.5" y1="684.8984" y2="697.8984"/><line style="stroke:#181818;stroke-width:1.5;" x1="537.5" x2="584.5" y1="697.8984" y2="697.8984"/><polygon fill="#181818" points="547.5,693.8984,537.5,697.8984,547.5,701.8984,543.5,697.8984" style="stroke:#181818;stroke-width:1.0;"/><text fill="#000000" font-family="Inter" font-size="13" lengthAdjust="spacing" textLength="109" x="549.5" y="680.042">updateLocalState()</text><rect fill="#EEEEEE" height="3" rx="5" ry="5" style="stroke:#EEEEEE;stroke-width:1.0;" width="938.5" x="0" y="729.0742"/><line style="stroke:#000000;stroke-width:1.0;" x1="0" x2="938.5" y1="729.0742" y2="729.0742"/><line style="stroke:#000000;stroke-width:1.0;" x1="0" x2="938.5" y1="732.0742" y2="732.0742"/><rect fill="#EEEEEE" height="24.3516" rx="5" ry="5" style="stroke:#000000;stroke-width:2.0;" width="153" x="392.75" y="717.8984"/><text fill="#000000" font-family="Inter" font-size="13" font-weight="bold" lengthAdjust="spacing" textLength="135" x="398.75" y="735.3936">Flow: Text-to-Speech</text><polygon fill="#181818" points="158.5,770.6016,168.5,774.6016,158.5,778.6016,162.5,774.6016" style="stroke:#181818;stroke-width:1.0;"/><line style="stroke:#181818;stroke-width:1.5;" x1="22.5" x2="164.5" y1="774.6016" y2="774.6016"/><text fill="#000000" font-family="Inter" font-size="13" lengthAdjust="spacing" textLength="34" x="29.5" y="769.7451">Press</text><text fill="#000000" font-family="Inter" font-size="13" lengthAdjust="spacing" textLength="4" x="63.5" y="769.7451">&#160;</text><text fill="#000000" font-family="Inter" font-size="13" lengthAdjust="spacing" textLength="58" x="67.5" y="769.7451">"Speaker"</text><text fill="#000000" font-family="Inter" font-size="13" lengthAdjust="spacing" textLength="4" x="125.5" y="769.7451">&#160;</text><text fill="#000000" font-family="Inter" font-size="13" lengthAdjust="spacing" textLength="24" x="129.5" y="769.7451">Icon</text><polygon fill="#181818" points="770,817.3047,780,821.3047,770,825.3047,774,821.3047" style="stroke:#181818;stroke-width:1.0;"/><line style="stroke:#181818;stroke-width:1.5;" x1="170.5" x2="776" y1="821.3047" y2="821.3047"/><text fill="#000000" font-family="Inter" font-size="13" lengthAdjust="spacing" textLength="121" x="177.5" y="800.0967">Speech.speak("Hello</text><text fill="#000000" font-family="Inter" font-size="13" lengthAdjust="spacing" textLength="43" x="177.5" y="816.4482">World")</text><polygon fill="#181818" points="33.5,847.6563,23.5,851.6563,33.5,855.6563,29.5,851.6563" style="stroke:#181818;stroke-width:1.0;"/><line style="stroke:#181818;stroke-width:1.5;" x1="27.5" x2="781" y1="851.6563" y2="851.6563"/><text fill="#000000" font-family="Inter" font-size="13" lengthAdjust="spacing" textLength="33" x="39.5" y="846.7998">Audio</text><text fill="#000000" font-family="Inter" font-size="13" lengthAdjust="spacing" textLength="4" x="72.5" y="846.7998">&#160;</text><text fill="#000000" font-family="Inter" font-size="13" lengthAdjust="spacing" textLength="39" x="76.5" y="846.7998">Output</text><!--SRC=[VLHTJzj047o_Nx5ofH9B98K7NYAb4X0Y8gKjmcdxVDXBEE7SkNTh2FtrtJtduq9IOYcspdEpSxEp9aCrGb6CX_3BcH9XxhKDjIRZBFIAqYDQw7-5QsS9LoIFbtVJNAdmR6oZlLv2XO-whMd2YEzwYP1D6Ugp117mJuksn4lltUlyoPJF5aE0yy550lAkjLNfl4KFvsV9YwLUBHck5nZCNuJpYpEbT4dEG_OpS27G0UH1gGUtuhKfpFGRawpLXpo3JvDBkHJmZqd9bARHbY1BJjkX8rltgD1Mm9Hhte8q8NpJbeKiaJVtDfw88LpZPYBNXpNMEsAHk7nDgyCDjoRmwTvIi2m9zfqaz2_Sim2VuMR5dbjTYuupkJxKmOeZBTyFSJUhna7H89PFdT1vSGWgsaO_w80HCRxQ2HkDO5Axro6CaR0abhQfYp0QAIMTaXIjepM4gMrQuYhYv9SkX6gNkurB36pGFpg_x7Zb4BPAZjGJhqw1j5yWpRHTv18Iyo9rjrQhBLsNOsQj8friQBcnaILNygg_NprhA3kslmsOgX1OgeAV_yjuYtNjuBVpTRL7dRfpZzHw6zAnlCV0uwOgF7A-dN5RXe2qxK0bBlVs2kT9omhzWh1E7_IcZt6iOEOM2wouJtbie6keMpUSdvQUU1HCATmn93i1wyYA0gPDFNBUB0ndbRtP2Zk5mM2GHuhjiJQXbyNujw5azl4L4nlBEeXlvE24TXN2IOGpfhylf2rvMi9HmXsgRIgkFdEbhkFCzpfPYT_9D2RkYRTzSlrkT8w7_SxBXozZY7wMJzUqT3PD-xnWK4Sm209wton1C30I3zd_oZZuqHAFaFe7]--></g></svg>