<?xml version="1.0" encoding="us-ascii" standalone="no"?><svg xmlns="http://www.w3.org/2000/svg" xmlns:xlink="http://www.w3.org/1999/xlink" contentStyleType="text/css" height="724px" preserveAspectRatio="none" style="width:624px;height:724px;background:#FFFFFF;" version="1.1" viewBox="0 0 624 724" width="624px" zoomAndPan="magnify"><defs/><g><text fill="#000000" font-family="Inter" font-size="14" font-weight="bold" lengthAdjust="spacing" textLength="291" x="162.75" y="29.5332">SSD: History Management (View &amp; Delete)</text><rect fill="#FAFAFA" height="673.4922" style="stroke:#181818;stroke-width:0.5;" width="110" x="108.5" y="44.6094"/><text fill="#000000" font-family="Inter" font-size="13" font-weight="bold" lengthAdjust="spacing" textLength="53" x="137" y="58.1045">UI Layer</text><rect fill="#EFEFEF" height="673.4922" style="stroke:#181818;stroke-width:0.5;" width="126" x="247" y="44.6094"/><text fill="#000000" font-family="Inter" font-size="13" font-weight="bold" lengthAdjust="spacing" textLength="120" x="250" y="58.1045">State Management</text><rect fill="#E0E0E0" height="673.4922" style="stroke:#181818;stroke-width:0.5;" width="90" x="526.5" y="44.6094"/><text fill="#000000" font-family="Inter" font-size="13" font-weight="bold" lengthAdjust="spacing" textLength="84" x="529.5" y="58.1045">Infrastructure</text><rect fill="#FFFFFF" height="91.0547" style="stroke:#181818;stroke-width:1.0;" width="10" x="305" y="228.2734"/><rect fill="#FFFFFF" height="134.4063" style="stroke:#181818;stroke-width:1.0;" width="10" x="305" y="454.7344"/><rect fill="#FFFFFF" height="30.3516" style="stroke:#181818;stroke-width:1.0;" width="10" x="566.5" y="258.625"/><rect fill="#FFFFFF" height="30.3516" style="stroke:#181818;stroke-width:1.0;" width="10" x="566.5" y="485.0859"/><line style="stroke:#181818;stroke-width:0.5;stroke-dasharray:5.0,5.0;" x1="22" x2="22" y1="121.2188" y2="637.4922"/><line style="stroke:#181818;stroke-width:0.5;stroke-dasharray:5.0,5.0;" x1="163.5" x2="163.5" y1="121.2188" y2="637.4922"/><line style="stroke:#181818;stroke-width:0.5;stroke-dasharray:5.0,5.0;" x1="309.5" x2="309.5" y1="121.2188" y2="637.4922"/><line style="stroke:#181818;stroke-width:0.5;stroke-dasharray:5.0,5.0;" x1="571.5" x2="571.5" y1="121.2188" y2="637.4922"/><text fill="#000000" font-family="Inter" font-size="14" lengthAdjust="spacing" textLength="29" x="5" y="118.1426">User</text><ellipse cx="22.5" cy="52.1094" fill="#E2E2F0" rx="8" ry="8" style="stroke:#181818;stroke-width:0.5;"/><path d="M22.5,60.1094 L22.5,87.1094 M9.5,68.1094 L35.5,68.1094 M22.5,87.1094 L9.5,102.1094 M22.5,87.1094 L35.5,102.1094 " fill="none" style="stroke:#181818;stroke-width:0.5;"/><text fill="#000000" font-family="Inter" font-size="14" lengthAdjust="spacing" textLength="29" x="5" y="651.0254">User</text><ellipse cx="22.5" cy="662.6016" fill="#E2E2F0" rx="8" ry="8" style="stroke:#181818;stroke-width:0.5;"/><path d="M22.5,670.6016 L22.5,697.6016 M9.5,678.6016 L35.5,678.6016 M22.5,697.6016 L9.5,712.6016 M22.5,697.6016 L35.5,712.6016 " fill="none" style="stroke:#181818;stroke-width:0.5;"/><rect fill="#E2E2F0" height="31.6094" rx="2.5" ry="2.5" style="stroke:#181818;stroke-width:0.5;" width="102" x="112.5" y="88.6094"/><text fill="#000000" font-family="Inter" font-size="14" lengthAdjust="spacing" textLength="88" x="119.5" y="110.1426">HistoryScreen</text><rect fill="#E2E2F0" height="31.6094" rx="2.5" ry="2.5" style="stroke:#181818;stroke-width:0.5;" width="102" x="112.5" y="636.4922"/><text fill="#000000" font-family="Inter" font-size="14" lengthAdjust="spacing" textLength="88" x="119.5" y="658.0254">HistoryScreen</text><rect fill="#E2E2F0" height="31.6094" rx="2.5" ry="2.5" style="stroke:#181818;stroke-width:0.5;" width="105" x="257.5" y="88.6094"/><text fill="#000000" font-family="Inter" font-size="14" lengthAdjust="spacing" textLength="91" x="264.5" y="110.1426">HistoryContext</text><rect fill="#E2E2F0" height="31.6094" rx="2.5" ry="2.5" style="stroke:#181818;stroke-width:0.5;" width="105" x="257.5" y="636.4922"/><text fill="#000000" font-family="Inter" font-size="14" lengthAdjust="spacing" textLength="91" x="264.5" y="658.0254">HistoryContext</text><rect fill="#E2E2F0" height="31.6094" rx="2.5" ry="2.5" style="stroke:#181818;stroke-width:0.5;" width="78" x="532.5" y="88.6094"/><text fill="#000000" font-family="Inter" font-size="14" lengthAdjust="spacing" textLength="64" x="539.5" y="110.1426">Supabase</text><rect fill="#E2E2F0" height="31.6094" rx="2.5" ry="2.5" style="stroke:#181818;stroke-width:0.5;" width="78" x="532.5" y="636.4922"/><text fill="#000000" font-family="Inter" font-size="14" lengthAdjust="spacing" textLength="64" x="539.5" y="658.0254">Supabase</text><rect fill="#FFFFFF" height="91.0547" style="stroke:#181818;stroke-width:1.0;" width="10" x="305" y="228.2734"/><rect fill="#FFFFFF" height="134.4063" style="stroke:#181818;stroke-width:1.0;" width="10" x="305" y="454.7344"/><rect fill="#FFFFFF" height="30.3516" style="stroke:#181818;stroke-width:1.0;" width="10" x="566.5" y="258.625"/><rect fill="#FFFFFF" height="30.3516" style="stroke:#181818;stroke-width:1.0;" width="10" x="566.5" y="485.0859"/><rect fill="#EEEEEE" height="3" style="stroke:#EEEEEE;stroke-width:1.0;" width="617.5" x="0" y="152.3945"/><line style="stroke:#000000;stroke-width:1.0;" x1="0" x2="617.5" y1="152.3945" y2="152.3945"/><line style="stroke:#000000;stroke-width:1.0;" x1="0" x2="617.5" y1="155.3945" y2="155.3945"/><rect fill="#EEEEEE" height="24.3516" style="stroke:#000000;stroke-width:2.0;" width="162" x="227.75" y="141.2188"/><text fill="#000000" font-family="Inter" font-size="13" font-weight="bold" lengthAdjust="spacing" textLength="144" x="233.75" y="158.7139">Scenario: View History</text><polygon fill="#181818" points="151.5,193.9219,161.5,197.9219,151.5,201.9219,155.5,197.9219" style="stroke:#181818;stroke-width:1.0;"/><line style="stroke:#181818;stroke-width:1.5;" x1="22.5" x2="157.5" y1="197.9219" y2="197.9219"/><text fill="#000000" font-family="Inter" font-size="13" lengthAdjust="spacing" textLength="101" x="29.5" y="193.0654">Open History Tab</text><polygon fill="#181818" points="293,224.2734,303,228.2734,293,232.2734,297,228.2734" style="stroke:#181818;stroke-width:1.0;"/><line style="stroke:#181818;stroke-width:1.5;" x1="163.5" x2="299" y1="228.2734" y2="228.2734"/><text fill="#000000" font-family="Inter" font-size="13" lengthAdjust="spacing" textLength="88" x="170.5" y="223.417">refreshHistory()</text><polygon fill="#181818" points="554.5,254.625,564.5,258.625,554.5,262.625,558.5,258.625" style="stroke:#181818;stroke-width:1.0;"/><line style="stroke:#181818;stroke-width:1.5;" x1="315" x2="560.5" y1="258.625" y2="258.625"/><text fill="#000000" font-family="Inter" font-size="13" lengthAdjust="spacing" textLength="224" x="322" y="253.7686">select * from translations order by date</text><polygon fill="#181818" points="326,284.9766,316,288.9766,326,292.9766,322,288.9766" style="stroke:#181818;stroke-width:1.0;"/><line style="stroke:#181818;stroke-width:1.5;stroke-dasharray:2.0,2.0;" x1="320" x2="570.5" y1="288.9766" y2="288.9766"/><text fill="#000000" font-family="Inter" font-size="13" lengthAdjust="spacing" textLength="124" x="332" y="284.1201">[Record1, Record2...]</text><polygon fill="#181818" points="174.5,315.3281,164.5,319.3281,174.5,323.3281,170.5,319.3281" style="stroke:#181818;stroke-width:1.0;"/><line style="stroke:#181818;stroke-width:1.5;stroke-dasharray:2.0,2.0;" x1="168.5" x2="309" y1="319.3281" y2="319.3281"/><text fill="#000000" font-family="Inter" font-size="13" lengthAdjust="spacing" textLength="76" x="180.5" y="314.4717">Update State</text><polygon fill="#181818" points="33.5,345.6797,23.5,349.6797,33.5,353.6797,29.5,349.6797" style="stroke:#181818;stroke-width:1.0;"/><line style="stroke:#181818;stroke-width:1.5;" x1="27.5" x2="162.5" y1="349.6797" y2="349.6797"/><text fill="#000000" font-family="Inter" font-size="13" lengthAdjust="spacing" textLength="57" x="39.5" y="344.8232">Show List</text><rect fill="#EEEEEE" height="3" style="stroke:#EEEEEE;stroke-width:1.0;" width="617.5" x="0" y="378.8555"/><line style="stroke:#000000;stroke-width:1.0;" x1="0" x2="617.5" y1="378.8555" y2="378.8555"/><line style="stroke:#000000;stroke-width:1.0;" x1="0" x2="617.5" y1="381.8555" y2="381.8555"/><rect fill="#EEEEEE" height="24.3516" style="stroke:#000000;stroke-width:2.0;" width="156" x="230.75" y="367.6797"/><text fill="#000000" font-family="Inter" font-size="13" font-weight="bold" lengthAdjust="spacing" textLength="138" x="236.75" y="385.1748">Scenario: Delete Item</text><polygon fill="#181818" points="151.5,420.3828,161.5,424.3828,151.5,428.3828,155.5,424.3828" style="stroke:#181818;stroke-width:1.0;"/><line style="stroke:#181818;stroke-width:1.5;" x1="22.5" x2="157.5" y1="424.3828" y2="424.3828"/><text fill="#000000" font-family="Inter" font-size="13" lengthAdjust="spacing" textLength="117" x="29.5" y="419.5264">Swipe Left -&gt; Delete</text><polygon fill="#181818" points="293,450.7344,303,454.7344,293,458.7344,297,454.7344" style="stroke:#181818;stroke-width:1.0;"/><line style="stroke:#181818;stroke-width:1.5;" x1="163.5" x2="299" y1="454.7344" y2="454.7344"/><text fill="#000000" font-family="Inter" font-size="13" lengthAdjust="spacing" textLength="116" x="170.5" y="449.8779">deleteTranslation(id)</text><polygon fill="#181818" points="554.5,481.0859,564.5,485.0859,554.5,489.0859,558.5,485.0859" style="stroke:#181818;stroke-width:1.0;"/><line style="stroke:#181818;stroke-width:1.5;" x1="315" x2="560.5" y1="485.0859" y2="485.0859"/><text fill="#000000" font-family="Inter" font-size="13" lengthAdjust="spacing" textLength="207" x="322" y="480.2295">delete from translations where id=...</text><polygon fill="#181818" points="326,511.4375,316,515.4375,326,519.4375,322,515.4375" style="stroke:#181818;stroke-width:1.0;"/><line style="stroke:#181818;stroke-width:1.5;stroke-dasharray:2.0,2.0;" x1="320" x2="570.5" y1="515.4375" y2="515.4375"/><text fill="#000000" font-family="Inter" font-size="13" lengthAdjust="spacing" textLength="51" x="332" y="510.5811">Success</text><line style="stroke:#181818;stroke-width:1.5;" x1="315" x2="357" y1="545.7891" y2="545.7891"/><line style="stroke:#181818;stroke-width:1.5;" x1="357" x2="357" y1="545.7891" y2="558.7891"/><line style="stroke:#181818;stroke-width:1.5;" x1="316" x2="357" y1="558.7891" y2="558.7891"/><polygon fill="#181818" points="326,554.7891,316,558.7891,326,562.7891,322,558.7891" style="stroke:#181818;stroke-width:1.0;"/><text fill="#000000" font-family="Inter" font-size="13" lengthAdjust="spacing" textLength="88" x="322" y="540.9326">refreshHistory()</text><polygon fill="#181818" points="174.5,585.1406,164.5,589.1406,174.5,593.1406,170.5,589.1406" style="stroke:#181818;stroke-width:1.0;"/><line style="stroke:#181818;stroke-width:1.5;stroke-dasharray:2.0,2.0;" x1="168.5" x2="309" y1="589.1406" y2="589.1406"/><text fill="#000000" font-family="Inter" font-size="13" lengthAdjust="spacing" textLength="73" x="180.5" y="584.2842">Updated List</text><polygon fill="#181818" points="33.5,615.4922,23.5,619.4922,33.5,623.4922,29.5,619.4922" style="stroke:#181818;stroke-width:1.0;"/><line style="stroke:#181818;stroke-width:1.5;" x1="27.5" x2="162.5" y1="619.4922" y2="619.4922"/><text fill="#000000" font-family="Inter" font-size="13" lengthAdjust="spacing" textLength="82" x="39.5" y="614.6357">Item Removed</text><!--SRC=[VP9DQnin48Rl-XM32yKfZMaAlHWsaCGrNN1RY9nUGWwoD5kBUAMjD9kr_tr7MYTs73khop8VxypxI6HfXI3bP0m_R2GVDl1JEVKNQtG4mpyME_W84rmXuPaGyT6wHWLLWy5AjIkQUaU_L8qmA1rX6EnLHFpNejDu5OBlvakh7nt621UZRq8epQDWS1Uv1LI4z2F4mgyvLi9CRLBym_Gg7G7yiIHPRHl5MmsscqeT45tVNmfq1bXWgo994UvPORNlqtHEgjsm4rnJbhkXzO5UwQgW8eLMKnimgNr9vwsQR1krK16ppkHw9rCK83Kw5QmVG-Rw3BmeX4W0uFoIZS0OVZVeNh9pjH0SvHnlnSc0LS2utAQ7PucbVKfkqzQfXaidrrmP-TOqmIUeWg-1Wd9nfSXw5y47m_CM6p3Sk5FWVRdp_6NM_IrgBhtu3FtFrz5ez20CxZVaYS-RtpL943Bz_RgqMcyY6ns3NFeEPkpX04p_qg0ahDzoaPrj46POKVQOIr-nCJaqtpaTMlCEeBxy29vkYG71ceBzdgOZMwtvHH_ZSVAoZj0oFOS3MgznPHwtMFidDE8_]--></g></svg>