<?xml version="1.0" encoding="us-ascii" standalone="no"?><svg xmlns="http://www.w3.org/2000/svg" xmlns:xlink="http://www.w3.org/1999/xlink" contentStyleType="text/css" height="1011px" preserveAspectRatio="none" style="width:981px;height:1011px;background:#FFFFFF;" version="1.1" viewBox="0 0 981 1011" width="981px" zoomAndPan="magnify"><defs/><g><text fill="#000000" font-family="Inter" font-size="14" font-weight="bold" lengthAdjust="spacing" textLength="290" x="341.75" y="29.5332">SSD: Quick Phrases (Manage &amp; Translate)</text><rect fill="#FAFAFA" height="960.6563" style="stroke:#181818;stroke-width:0.5;" width="119" x="172" y="44.6094"/><text fill="#000000" font-family="Inter" font-size="13" font-weight="bold" lengthAdjust="spacing" textLength="53" x="205" y="58.1045">UI Layer</text><rect fill="#EFEFEF" height="960.6563" style="stroke:#181818;stroke-width:0.5;" width="265" x="458.5" y="44.6094"/><text fill="#000000" font-family="Inter" font-size="13" font-weight="bold" lengthAdjust="spacing" textLength="120" x="531" y="58.1045">State Management</text><rect fill="#E0E0E0" height="960.6563" style="stroke:#181818;stroke-width:0.5;" width="202" x="771.5" y="44.6094"/><text fill="#000000" font-family="Inter" font-size="13" font-weight="bold" lengthAdjust="spacing" textLength="84" x="830.5" y="58.1045">Infrastructure</text><rect fill="#FFFFFF" height="91.0547" style="stroke:#181818;stroke-width:1.0;" width="10" x="514.5" y="228.2734"/><rect fill="#FFFFFF" height="195.1094" style="stroke:#181818;stroke-width:1.0;" width="10" x="514.5" y="681.1953"/><rect fill="#FFFFFF" height="91.0547" style="stroke:#181818;stroke-width:1.0;" width="10" x="648" y="454.7344"/><rect fill="#FFFFFF" height="30.3516" style="stroke:#181818;stroke-width:1.0;" width="10" x="809.5" y="258.625"/><rect fill="#FFFFFF" height="30.3516" style="stroke:#181818;stroke-width:1.0;" width="10" x="911.5" y="485.0859"/><line style="stroke:#181818;stroke-width:0.5;stroke-dasharray:5.0,5.0;" x1="22" x2="22" y1="121.2188" y2="924.6563"/><line style="stroke:#181818;stroke-width:0.5;stroke-dasharray:5.0,5.0;" x1="231" x2="231" y1="121.2188" y2="924.6563"/><line style="stroke:#181818;stroke-width:0.5;stroke-dasharray:5.0,5.0;" x1="519.5" x2="519.5" y1="121.2188" y2="924.6563"/><line style="stroke:#181818;stroke-width:0.5;stroke-dasharray:5.0,5.0;" x1="652.5" x2="652.5" y1="121.2188" y2="924.6563"/><line style="stroke:#181818;stroke-width:0.5;stroke-dasharray:5.0,5.0;" x1="814.5" x2="814.5" y1="121.2188" y2="924.6563"/><line style="stroke:#181818;stroke-width:0.5;stroke-dasharray:5.0,5.0;" x1="916.5" x2="916.5" y1="121.2188" y2="924.6563"/><text fill="#000000" font-family="Inter" font-size="14" lengthAdjust="spacing" textLength="29" x="5" y="118.1426">User</text><ellipse cx="22.5" cy="52.1094" fill="#E2E2F0" rx="8" ry="8" style="stroke:#181818;stroke-width:0.5;"/><path d="M22.5,60.1094 L22.5,87.1094 M9.5,68.1094 L35.5,68.1094 M22.5,87.1094 L9.5,102.1094 M22.5,87.1094 L35.5,102.1094 " fill="none" style="stroke:#181818;stroke-width:0.5;"/><text fill="#000000" font-family="Inter" font-size="14" lengthAdjust="spacing" textLength="29" x="5" y="938.1895">User</text><ellipse cx="22.5" cy="949.7656" fill="#E2E2F0" rx="8" ry="8" style="stroke:#181818;stroke-width:0.5;"/><path d="M22.5,957.7656 L22.5,984.7656 M9.5,965.7656 L35.5,965.7656 M22.5,984.7656 L9.5,999.7656 M22.5,984.7656 L35.5,999.7656 " fill="none" style="stroke:#181818;stroke-width:0.5;"/><rect fill="#E2E2F0" height="31.6094" rx="2.5" ry="2.5" style="stroke:#181818;stroke-width:0.5;" width="111" x="176" y="88.6094"/><text fill="#000000" font-family="Inter" font-size="14" lengthAdjust="spacing" textLength="97" x="183" y="110.1426">PhrasesScreen</text><rect fill="#E2E2F0" height="31.6094" rx="2.5" ry="2.5" style="stroke:#181818;stroke-width:0.5;" width="111" x="176" y="923.6563"/><text fill="#000000" font-family="Inter" font-size="14" lengthAdjust="spacing" textLength="97" x="183" y="945.1895">PhrasesScreen</text><rect fill="#E2E2F0" height="31.6094" rx="2.5" ry="2.5" style="stroke:#181818;stroke-width:0.5;" width="114" x="462.5" y="88.6094"/><text fill="#000000" font-family="Inter" font-size="14" lengthAdjust="spacing" textLength="100" x="469.5" y="110.1426">PhrasesContext</text><rect fill="#E2E2F0" height="31.6094" rx="2.5" ry="2.5" style="stroke:#181818;stroke-width:0.5;" width="114" x="462.5" y="923.6563"/><text fill="#000000" font-family="Inter" font-size="14" lengthAdjust="spacing" textLength="100" x="469.5" y="945.1895">PhrasesContext</text><rect fill="#E2E2F0" height="31.6094" rx="2.5" ry="2.5" style="stroke:#181818;stroke-width:0.5;" width="133" x="586.5" y="88.6094"/><text fill="#000000" font-family="Inter" font-size="14" lengthAdjust="spacing" textLength="119" x="593.5" y="110.1426">TranslationContext</text><rect fill="#E2E2F0" height="31.6094" rx="2.5" ry="2.5" style="stroke:#181818;stroke-width:0.5;" width="133" x="586.5" y="923.6563"/><text fill="#000000" font-family="Inter" font-size="14" lengthAdjust="spacing" textLength="119" x="593.5" y="945.1895">TranslationContext</text><rect fill="#E2E2F0" height="31.6094" rx="2.5" ry="2.5" style="stroke:#181818;stroke-width:0.5;" width="78" x="775.5" y="88.6094"/><text fill="#000000" font-family="Inter" font-size="14" lengthAdjust="spacing" textLength="64" x="782.5" y="110.1426">Supabase</text><rect fill="#E2E2F0" height="31.6094" rx="2.5" ry="2.5" style="stroke:#181818;stroke-width:0.5;" width="78" x="775.5" y="923.6563"/><text fill="#000000" font-family="Inter" font-size="14" lengthAdjust="spacing" textLength="64" x="782.5" y="945.1895">Supabase</text><rect fill="#E2E2F0" height="31.6094" rx="2.5" ry="2.5" style="stroke:#181818;stroke-width:0.5;" width="106" x="863.5" y="88.6094"/><text fill="#000000" font-family="Inter" font-size="14" lengthAdjust="spacing" textLength="92" x="870.5" y="110.1426">TranslationAPI</text><rect fill="#E2E2F0" height="31.6094" rx="2.5" ry="2.5" style="stroke:#181818;stroke-width:0.5;" width="106" x="863.5" y="923.6563"/><text fill="#000000" font-family="Inter" font-size="14" lengthAdjust="spacing" textLength="92" x="870.5" y="945.1895">TranslationAPI</text><rect fill="#FFFFFF" height="91.0547" style="stroke:#181818;stroke-width:1.0;" width="10" x="514.5" y="228.2734"/><rect fill="#FFFFFF" height="195.1094" style="stroke:#181818;stroke-width:1.0;" width="10" x="514.5" y="681.1953"/><rect fill="#FFFFFF" height="91.0547" style="stroke:#181818;stroke-width:1.0;" width="10" x="648" y="454.7344"/><rect fill="#FFFFFF" height="30.3516" style="stroke:#181818;stroke-width:1.0;" width="10" x="809.5" y="258.625"/><rect fill="#FFFFFF" height="30.3516" style="stroke:#181818;stroke-width:1.0;" width="10" x="911.5" y="485.0859"/><rect fill="#EEEEEE" height="3" style="stroke:#EEEEEE;stroke-width:1.0;" width="974.5" x="0" y="152.3945"/><line style="stroke:#000000;stroke-width:1.0;" x1="0" x2="974.5" y1="152.3945" y2="152.3945"/><line style="stroke:#000000;stroke-width:1.0;" x1="0" x2="974.5" y1="155.3945" y2="155.3945"/><rect fill="#EEEEEE" height="24.3516" style="stroke:#000000;stroke-width:2.0;" width="169" x="402.75" y="141.2188"/><text fill="#000000" font-family="Inter" font-size="13" font-weight="bold" lengthAdjust="spacing" textLength="151" x="408.75" y="158.7139">Scenario: Load Phrases</text><polygon fill="#181818" points="219.5,193.9219,229.5,197.9219,219.5,201.9219,223.5,197.9219" style="stroke:#181818;stroke-width:1.0;"/><line style="stroke:#181818;stroke-width:1.5;" x1="22.5" x2="225.5" y1="197.9219" y2="197.9219"/><text fill="#000000" font-family="Inter" font-size="13" lengthAdjust="spacing" textLength="185" x="29.5" y="193.0654">Open Screen (Select Language)</text><polygon fill="#181818" points="502.5,224.2734,512.5,228.2734,502.5,232.2734,506.5,228.2734" style="stroke:#181818;stroke-width:1.0;"/><line style="stroke:#181818;stroke-width:1.5;" x1="231.5" x2="508.5" y1="228.2734" y2="228.2734"/><text fill="#000000" font-family="Inter" font-size="13" lengthAdjust="spacing" textLength="136" x="238.5" y="223.417">fetchPhrases(language)</text><polygon fill="#181818" points="797.5,254.625,807.5,258.625,797.5,262.625,801.5,258.625" style="stroke:#181818;stroke-width:1.0;"/><line style="stroke:#181818;stroke-width:1.5;" x1="524.5" x2="803.5" y1="258.625" y2="258.625"/><text fill="#000000" font-family="Inter" font-size="13" lengthAdjust="spacing" textLength="266" x="531.5" y="253.7686">select * from generic_phrases + user_phrases</text><polygon fill="#181818" points="535.5,284.9766,525.5,288.9766,535.5,292.9766,531.5,288.9766" style="stroke:#181818;stroke-width:1.0;"/><line style="stroke:#181818;stroke-width:1.5;stroke-dasharray:2.0,2.0;" x1="529.5" x2="813.5" y1="288.9766" y2="288.9766"/><text fill="#000000" font-family="Inter" font-size="13" lengthAdjust="spacing" textLength="87" x="541.5" y="284.1201">List of Phrases</text><polygon fill="#181818" points="242.5,315.3281,232.5,319.3281,242.5,323.3281,238.5,319.3281" style="stroke:#181818;stroke-width:1.0;"/><line style="stroke:#181818;stroke-width:1.5;stroke-dasharray:2.0,2.0;" x1="236.5" x2="518.5" y1="319.3281" y2="319.3281"/><text fill="#000000" font-family="Inter" font-size="13" lengthAdjust="spacing" textLength="259" x="248.5" y="314.4717">Update State (userPhrases, genericPhrases)</text><polygon fill="#181818" points="33.5,345.6797,23.5,349.6797,33.5,353.6797,29.5,349.6797" style="stroke:#181818;stroke-width:1.0;"/><line style="stroke:#181818;stroke-width:1.5;" x1="27.5" x2="230.5" y1="349.6797" y2="349.6797"/><text fill="#000000" font-family="Inter" font-size="13" lengthAdjust="spacing" textLength="68" x="39.5" y="344.8232">Display List</text><rect fill="#EEEEEE" height="3" style="stroke:#EEEEEE;stroke-width:1.0;" width="974.5" x="0" y="378.8555"/><line style="stroke:#000000;stroke-width:1.0;" x1="0" x2="974.5" y1="378.8555" y2="378.8555"/><line style="stroke:#000000;stroke-width:1.0;" x1="0" x2="974.5" y1="381.8555" y2="381.8555"/><rect fill="#EEEEEE" height="24.3516" style="stroke:#000000;stroke-width:2.0;" width="202" x="386.25" y="367.6797"/><text fill="#000000" font-family="Inter" font-size="13" font-weight="bold" lengthAdjust="spacing" textLength="184" x="392.25" y="385.1748">Scenario: Translate a Phrase</text><polygon fill="#181818" points="219.5,420.3828,229.5,424.3828,219.5,428.3828,223.5,424.3828" style="stroke:#181818;stroke-width:1.0;"/><line style="stroke:#181818;stroke-width:1.5;" x1="22.5" x2="225.5" y1="424.3828" y2="424.3828"/><text fill="#000000" font-family="Inter" font-size="13" lengthAdjust="spacing" textLength="95" x="29.5" y="419.5264">Tap on a Phrase</text><polygon fill="#181818" points="636,450.7344,646,454.7344,636,458.7344,640,454.7344" style="stroke:#181818;stroke-width:1.0;"/><line style="stroke:#181818;stroke-width:1.5;" x1="231.5" x2="642" y1="454.7344" y2="454.7344"/><text fill="#000000" font-family="Inter" font-size="13" lengthAdjust="spacing" textLength="205" x="238.5" y="449.8779">performTranslation(text, targetLang)</text><polygon fill="#181818" points="899.5,481.0859,909.5,485.0859,899.5,489.0859,903.5,485.0859" style="stroke:#181818;stroke-width:1.0;"/><line style="stroke:#181818;stroke-width:1.5;" x1="658" x2="905.5" y1="485.0859" y2="485.0859"/><text fill="#000000" font-family="Inter" font-size="13" lengthAdjust="spacing" textLength="104" x="665" y="480.2295">useTranslation(...)</text><polygon fill="#181818" points="669,511.4375,659,515.4375,669,519.4375,665,515.4375" style="stroke:#181818;stroke-width:1.0;"/><line style="stroke:#181818;stroke-width:1.5;stroke-dasharray:2.0,2.0;" x1="663" x2="915.5" y1="515.4375" y2="515.4375"/><text fill="#000000" font-family="Inter" font-size="13" lengthAdjust="spacing" textLength="99" x="675" y="510.5811">"Translated Text"</text><polygon fill="#181818" points="242.5,541.7891,232.5,545.7891,242.5,549.7891,238.5,545.7891" style="stroke:#181818;stroke-width:1.0;"/><line style="stroke:#181818;stroke-width:1.5;stroke-dasharray:2.0,2.0;" x1="236.5" x2="652" y1="545.7891" y2="545.7891"/><text fill="#000000" font-family="Inter" font-size="13" lengthAdjust="spacing" textLength="99" x="248.5" y="540.9326">"Translated Text"</text><polygon fill="#181818" points="33.5,572.1406,23.5,576.1406,33.5,580.1406,29.5,576.1406" style="stroke:#181818;stroke-width:1.0;"/><line style="stroke:#181818;stroke-width:1.5;" x1="27.5" x2="230.5" y1="576.1406" y2="576.1406"/><text fill="#000000" font-family="Inter" font-size="13" lengthAdjust="spacing" textLength="138" x="39.5" y="571.2842">Show Translation Modal</text><rect fill="#EEEEEE" height="3" style="stroke:#EEEEEE;stroke-width:1.0;" width="974.5" x="0" y="605.3164"/><line style="stroke:#000000;stroke-width:1.0;" x1="0" x2="974.5" y1="605.3164" y2="605.3164"/><line style="stroke:#000000;stroke-width:1.0;" x1="0" x2="974.5" y1="608.3164" y2="608.3164"/><rect fill="#EEEEEE" height="24.3516" style="stroke:#000000;stroke-width:2.0;" width="188" x="393.25" y="594.1406"/><text fill="#000000" font-family="Inter" font-size="13" font-weight="bold" lengthAdjust="spacing" textLength="170" x="399.25" y="611.6357">Scenario: Add New Phrase</text><polygon fill="#181818" points="219.5,646.8438,229.5,650.8438,219.5,654.8438,223.5,650.8438" style="stroke:#181818;stroke-width:1.0;"/><line style="stroke:#181818;stroke-width:1.5;" x1="22.5" x2="225.5" y1="650.8438" y2="650.8438"/><text fill="#000000" font-family="Inter" font-size="13" lengthAdjust="spacing" textLength="164" x="29.5" y="645.9873">Click "+", Enter Text &amp; Save</text><polygon fill="#181818" points="502.5,677.1953,512.5,681.1953,502.5,685.1953,506.5,681.1953" style="stroke:#181818;stroke-width:1.0;"/><line style="stroke:#181818;stroke-width:1.5;" x1="231.5" x2="508.5" y1="681.1953" y2="681.1953"/><text fill="#000000" font-family="Inter" font-size="13" lengthAdjust="spacing" textLength="166" x="238.5" y="676.3389">addPhrase({ text, category })</text><polygon fill="#181818" points="904.5,707.5469,914.5,711.5469,904.5,715.5469,908.5,711.5469" style="stroke:#181818;stroke-width:1.0;"/><line style="stroke:#181818;stroke-width:1.5;" x1="524.5" x2="910.5" y1="711.5469" y2="711.5469"/><text fill="#000000" font-family="Inter" font-size="13" lengthAdjust="spacing" textLength="122" x="531.5" y="706.6904">detectLanguage(text)</text><polygon fill="#181818" points="535.5,737.8984,525.5,741.8984,535.5,745.8984,531.5,741.8984" style="stroke:#181818;stroke-width:1.0;"/><line style="stroke:#181818;stroke-width:1.5;stroke-dasharray:2.0,2.0;" x1="529.5" x2="915.5" y1="741.8984" y2="741.8984"/><text fill="#000000" font-family="Inter" font-size="13" lengthAdjust="spacing" textLength="24" x="541.5" y="737.042">"en"</text><polygon fill="#181818" points="802.5,768.25,812.5,772.25,802.5,776.25,806.5,772.25" style="stroke:#181818;stroke-width:1.0;"/><line style="stroke:#181818;stroke-width:1.5;" x1="524.5" x2="808.5" y1="772.25" y2="772.25"/><text fill="#000000" font-family="Inter" font-size="13" lengthAdjust="spacing" textLength="139" x="531.5" y="767.3936">insert into user_phrases</text><polygon fill="#181818" points="535.5,798.6016,525.5,802.6016,535.5,806.6016,531.5,802.6016" style="stroke:#181818;stroke-width:1.0;"/><line style="stroke:#181818;stroke-width:1.5;stroke-dasharray:2.0,2.0;" x1="529.5" x2="813.5" y1="802.6016" y2="802.6016"/><text fill="#000000" font-family="Inter" font-size="13" lengthAdjust="spacing" textLength="51" x="541.5" y="797.7451">Success</text><line style="stroke:#181818;stroke-width:1.5;" x1="524.5" x2="566.5" y1="832.9531" y2="832.9531"/><line style="stroke:#181818;stroke-width:1.5;" x1="566.5" x2="566.5" y1="832.9531" y2="845.9531"/><line style="stroke:#181818;stroke-width:1.5;" x1="525.5" x2="566.5" y1="845.9531" y2="845.9531"/><polygon fill="#181818" points="535.5,841.9531,525.5,845.9531,535.5,849.9531,531.5,845.9531" style="stroke:#181818;stroke-width:1.0;"/><text fill="#000000" font-family="Inter" font-size="13" lengthAdjust="spacing" textLength="108" x="531.5" y="828.0967">fetchPhrases("en")</text><polygon fill="#181818" points="242.5,872.3047,232.5,876.3047,242.5,880.3047,238.5,876.3047" style="stroke:#181818;stroke-width:1.0;"/><line style="stroke:#181818;stroke-width:1.5;stroke-dasharray:2.0,2.0;" x1="236.5" x2="518.5" y1="876.3047" y2="876.3047"/><text fill="#000000" font-family="Inter" font-size="13" lengthAdjust="spacing" textLength="51" x="248.5" y="871.4482">Success</text><polygon fill="#181818" points="33.5,902.6563,23.5,906.6563,33.5,910.6563,29.5,906.6563" style="stroke:#181818;stroke-width:1.0;"/><line style="stroke:#181818;stroke-width:1.5;" x1="27.5" x2="230.5" y1="906.6563" y2="906.6563"/><text fill="#000000" font-family="Inter" font-size="13" lengthAdjust="spacing" textLength="158" x="39.5" y="901.7998">Close Modal &amp; Refresh List</text><!--SRC=[VLJBRjim4BppAnOgKCYDRRI7NWouW6F7W04dJIFdN33KoXOYaof9nGwA_dkNUb9-n3n8edTcTsU7jAdD4A9eCO5VHIfUuN6dkK43uJsNV8lm6JQQIvDnYmF6p6igSwxv7c9CU97PfPBsWUyHWfMqg0Clmk2V0gN0cTRgiDaHkKHZuDluEsDSMAKXU3O40Mx0lJ3seewqju8rVtVxdvOpjnZGZoXjAjASImj1NMCaDAAiy2k6CWOYg5aYImL3rSCUfIMskwLRLzdcr0aURKbNRStjyJowKIDLqaUKsmxGBsCb4sAokX2sqEYA-EhMEMrKvFo5SfPaYziFyyuULsKOFRjqqob40YNNgPh0Ml6udUHqofZJ5qO_I2UOmCyS9LJYGHXXXiAIv79Ra5O3HY4Ks2f0yGbQiQlPmgmDf1ccRqxbJYtMmOXZSKjWK_5_WKIhFMnHeax5xxokxGOAggpvx2X90KAFJWfPfyQ2IfhEM8m-m4_UjFgSn-xVoWsXorLZXqqfzVV09-iQgiGerPl08ZLvnj_BCau4Ryy8y1fzBlk6vw1a6r1pDyQXW1nrelJUctJe_3K4o_KMhHkHfthhk9Q1sCWIH4Hz-YJZyTZ3ETUui54_UMimZ67ZNEqBuZ1TcgQX3o5jUNqDevqwW5SStAkOPoTgpk8O7l1mLSbvvcwgu2OOmfsxTShiT5D5_0ql-9V7SVKP_eLAK44LRfL-XtyNRTnpSILfZ9Pit9oISYw3LaO_MK0tqeLZa4fgmDB3ghxbBzWyAeIWcxBFSlL0keI3IzvlQ2uQkp-LUQP8vt8K9ECJ9XhDhlBvVm00]--></g></svg>