<?xml version="1.0" encoding="us-ascii" standalone="no"?><svg xmlns="http://www.w3.org/2000/svg" xmlns:xlink="http://www.w3.org/1999/xlink" contentStyleType="text/css" height="795px" preserveAspectRatio="none" style="width:775px;height:795px;background:#FFFFFF;" version="1.1" viewBox="0 0 775 795" width="775px" zoomAndPan="magnify"><defs/><g><text fill="#000000" font-family="Inter" font-size="14" font-weight="bold" lengthAdjust="spacing" textLength="291" x="243.75" y="29.5332">SSD: Image Translation (OCR -&gt; Translate)</text><rect fill="#FAFAFA" height="744.8438" style="stroke:#181818;stroke-width:0.5;" width="105" x="180" y="44.6094"/><text fill="#000000" font-family="Inter" font-size="13" font-weight="bold" lengthAdjust="spacing" textLength="53" x="206" y="58.1045">UI Layer</text><rect fill="#EFEFEF" height="744.8438" style="stroke:#181818;stroke-width:0.5;" width="403.5" x="360" y="44.6094"/><text fill="#000000" font-family="Inter" font-size="13" font-weight="bold" lengthAdjust="spacing" textLength="74" x="524.75" y="58.1045">Logic &amp; API</text><rect fill="#FFFFFF" height="30.3516" style="stroke:#181818;stroke-width:1.0;" width="10" x="386.5" y="339.3281"/><rect fill="#FFFFFF" height="91.0547" style="stroke:#181818;stroke-width:1.0;" width="10" x="519.5" y="475.7344"/><rect fill="#FFFFFF" height="30.3516" style="stroke:#181818;stroke-width:1.0;" width="10" x="701.5" y="506.0859"/><rect fill="none" height="122.4063" style="stroke:#000000;stroke-width:1.5;" width="255" x="174" y="298.625"/><rect fill="none" height="183.1094" style="stroke:#000000;stroke-width:1.5;" width="595.5" x="174" y="435.0313"/><line style="stroke:#181818;stroke-width:0.5;stroke-dasharray:5.0,5.0;" x1="22" x2="22" y1="121.2188" y2="708.8438"/><line style="stroke:#181818;stroke-width:0.5;stroke-dasharray:5.0,5.0;" x1="232" x2="232" y1="121.2188" y2="708.8438"/><line style="stroke:#181818;stroke-width:0.5;stroke-dasharray:5.0,5.0;" x1="391" x2="391" y1="121.2188" y2="708.8438"/><line style="stroke:#181818;stroke-width:0.5;stroke-dasharray:5.0,5.0;" x1="524" x2="524" y1="121.2188" y2="708.8438"/><line style="stroke:#181818;stroke-width:0.5;stroke-dasharray:5.0,5.0;" x1="706.5" x2="706.5" y1="121.2188" y2="708.8438"/><text fill="#000000" font-family="Inter" font-size="14" lengthAdjust="spacing" textLength="29" x="5" y="118.1426">User</text><ellipse cx="22.5" cy="52.1094" fill="#E2E2F0" rx="8" ry="8" style="stroke:#181818;stroke-width:0.5;"/><path d="M22.5,60.1094 L22.5,87.1094 M9.5,68.1094 L35.5,68.1094 M22.5,87.1094 L9.5,102.1094 M22.5,87.1094 L35.5,102.1094 " fill="none" style="stroke:#181818;stroke-width:0.5;"/><text fill="#000000" font-family="Inter" font-size="14" lengthAdjust="spacing" textLength="29" x="5" y="722.377">User</text><ellipse cx="22.5" cy="733.9531" fill="#E2E2F0" rx="8" ry="8" style="stroke:#181818;stroke-width:0.5;"/><path d="M22.5,741.9531 L22.5,768.9531 M9.5,749.9531 L35.5,749.9531 M22.5,768.9531 L9.5,783.9531 M22.5,768.9531 L35.5,783.9531 " fill="none" style="stroke:#181818;stroke-width:0.5;"/><rect fill="#E2E2F0" height="31.6094" rx="2.5" ry="2.5" style="stroke:#181818;stroke-width:0.5;" width="97" x="184" y="88.6094"/><text fill="#000000" font-family="Inter" font-size="14" lengthAdjust="spacing" textLength="83" x="191" y="110.1426">ImageScreen</text><rect fill="#E2E2F0" height="31.6094" rx="2.5" ry="2.5" style="stroke:#181818;stroke-width:0.5;" width="97" x="184" y="707.8438"/><text fill="#000000" font-family="Inter" font-size="14" lengthAdjust="spacing" textLength="83" x="191" y="729.377">ImageScreen</text><rect fill="#E2E2F0" height="31.6094" rx="2.5" ry="2.5" style="stroke:#181818;stroke-width:0.5;" width="55" x="364" y="88.6094"/><text fill="#000000" font-family="Inter" font-size="14" lengthAdjust="spacing" textLength="41" x="371" y="110.1426">ocrAPI</text><rect fill="#E2E2F0" height="31.6094" rx="2.5" ry="2.5" style="stroke:#181818;stroke-width:0.5;" width="55" x="364" y="707.8438"/><text fill="#000000" font-family="Inter" font-size="14" lengthAdjust="spacing" textLength="41" x="371" y="729.377">ocrAPI</text><rect fill="#E2E2F0" height="31.6094" rx="2.5" ry="2.5" style="stroke:#181818;stroke-width:0.5;" width="133" x="458" y="88.6094"/><text fill="#000000" font-family="Inter" font-size="14" lengthAdjust="spacing" textLength="119" x="465" y="110.1426">TranslationContext</text><rect fill="#E2E2F0" height="31.6094" rx="2.5" ry="2.5" style="stroke:#181818;stroke-width:0.5;" width="133" x="458" y="707.8438"/><text fill="#000000" font-family="Inter" font-size="14" lengthAdjust="spacing" textLength="119" x="465" y="729.377">TranslationContext</text><rect fill="#E2E2F0" height="31.6094" rx="2.5" ry="2.5" style="stroke:#181818;stroke-width:0.5;" width="106" x="653.5" y="88.6094"/><text fill="#000000" font-family="Inter" font-size="14" lengthAdjust="spacing" textLength="92" x="660.5" y="110.1426">TranslationAPI</text><rect fill="#E2E2F0" height="31.6094" rx="2.5" ry="2.5" style="stroke:#181818;stroke-width:0.5;" width="106" x="653.5" y="707.8438"/><text fill="#000000" font-family="Inter" font-size="14" lengthAdjust="spacing" textLength="92" x="660.5" y="729.377">TranslationAPI</text><rect fill="#FFFFFF" height="30.3516" style="stroke:#181818;stroke-width:1.0;" width="10" x="386.5" y="339.3281"/><rect fill="#FFFFFF" height="91.0547" style="stroke:#181818;stroke-width:1.0;" width="10" x="519.5" y="475.7344"/><rect fill="#FFFFFF" height="30.3516" style="stroke:#181818;stroke-width:1.0;" width="10" x="701.5" y="506.0859"/><polygon fill="#181818" points="220.5,149.5703,230.5,153.5703,220.5,157.5703,224.5,153.5703" style="stroke:#181818;stroke-width:1.0;"/><line style="stroke:#181818;stroke-width:1.5;" x1="22.5" x2="226.5" y1="153.5703" y2="153.5703"/><text fill="#000000" font-family="Inter" font-size="13" lengthAdjust="spacing" textLength="108" x="29.5" y="148.7139">Tap "Take Picture"</text><line style="stroke:#181818;stroke-width:1.5;" x1="232.5" x2="274.5" y1="183.9219" y2="183.9219"/><line style="stroke:#181818;stroke-width:1.5;" x1="274.5" x2="274.5" y1="183.9219" y2="196.9219"/><line style="stroke:#181818;stroke-width:1.5;" x1="233.5" x2="274.5" y1="196.9219" y2="196.9219"/><polygon fill="#181818" points="243.5,192.9219,233.5,196.9219,243.5,200.9219,239.5,196.9219" style="stroke:#181818;stroke-width:1.0;"/><text fill="#000000" font-family="Inter" font-size="13" lengthAdjust="spacing" textLength="145" x="239.5" y="179.0654">Open Camera -&gt; Capture</text><line style="stroke:#181818;stroke-width:1.5;" x1="232.5" x2="274.5" y1="227.2734" y2="227.2734"/><line style="stroke:#181818;stroke-width:1.5;" x1="274.5" x2="274.5" y1="227.2734" y2="240.2734"/><line style="stroke:#181818;stroke-width:1.5;" x1="233.5" x2="274.5" y1="240.2734" y2="240.2734"/><polygon fill="#181818" points="243.5,236.2734,233.5,240.2734,243.5,244.2734,239.5,240.2734" style="stroke:#181818;stroke-width:1.0;"/><text fill="#000000" font-family="Inter" font-size="13" lengthAdjust="spacing" textLength="75" x="239.5" y="222.417">setImage(uri)</text><line style="stroke:#181818;stroke-width:1.5;" x1="232.5" x2="274.5" y1="270.625" y2="270.625"/><line style="stroke:#181818;stroke-width:1.5;" x1="274.5" x2="274.5" y1="270.625" y2="283.625"/><line style="stroke:#181818;stroke-width:1.5;" x1="233.5" x2="274.5" y1="283.625" y2="283.625"/><polygon fill="#181818" points="243.5,279.625,233.5,283.625,243.5,287.625,239.5,283.625" style="stroke:#181818;stroke-width:1.0;"/><text fill="#000000" font-family="Inter" font-size="13" lengthAdjust="spacing" textLength="93" x="239.5" y="265.7686">setLoading(true)</text><path d="M174,298.625 L352,298.625 L352,306.9766 L342,316.9766 L174,316.9766 L174,298.625 " fill="#EEEEEE" style="stroke:#000000;stroke-width:1.5;"/><rect fill="none" height="122.4063" style="stroke:#000000;stroke-width:1.5;" width="255" x="174" y="298.625"/><text fill="#000000" font-family="Inter" font-size="13" font-weight="bold" lengthAdjust="spacing" textLength="133" x="189" y="313.1201">Process Image (OCR)</text><polygon fill="#181818" points="374.5,335.3281,384.5,339.3281,374.5,343.3281,378.5,339.3281" style="stroke:#181818;stroke-width:1.0;"/><line style="stroke:#181818;stroke-width:1.5;" x1="232.5" x2="380.5" y1="339.3281" y2="339.3281"/><text fill="#000000" font-family="Inter" font-size="13" lengthAdjust="spacing" textLength="108" x="239.5" y="334.4717">useOCR(imageUri)</text><polygon fill="#181818" points="243.5,365.6797,233.5,369.6797,243.5,373.6797,239.5,369.6797" style="stroke:#181818;stroke-width:1.0;"/><line style="stroke:#181818;stroke-width:1.5;stroke-dasharray:2.0,2.0;" x1="237.5" x2="390.5" y1="369.6797" y2="369.6797"/><text fill="#000000" font-family="Inter" font-size="13" lengthAdjust="spacing" textLength="107" x="249.5" y="364.8232">"Extracted Text..."</text><line style="stroke:#181818;stroke-width:1.5;" x1="232.5" x2="274.5" y1="400.0313" y2="400.0313"/><line style="stroke:#181818;stroke-width:1.5;" x1="274.5" x2="274.5" y1="400.0313" y2="413.0313"/><line style="stroke:#181818;stroke-width:1.5;" x1="233.5" x2="274.5" y1="413.0313" y2="413.0313"/><polygon fill="#181818" points="243.5,409.0313,233.5,413.0313,243.5,417.0313,239.5,413.0313" style="stroke:#181818;stroke-width:1.0;"/><text fill="#000000" font-family="Inter" font-size="13" lengthAdjust="spacing" textLength="129" x="239.5" y="395.1748">setExtractedText("...")</text><path d="M174,435.0313 L321,435.0313 L321,443.3828 L311,453.3828 L174,453.3828 L174,435.0313 " fill="#EEEEEE" style="stroke:#000000;stroke-width:1.5;"/><rect fill="none" height="183.1094" style="stroke:#000000;stroke-width:1.5;" width="595.5" x="174" y="435.0313"/><text fill="#000000" font-family="Inter" font-size="13" font-weight="bold" lengthAdjust="spacing" textLength="102" x="189" y="449.5264">Translate Result</text><polygon fill="#181818" points="507.5,471.7344,517.5,475.7344,507.5,479.7344,511.5,475.7344" style="stroke:#181818;stroke-width:1.0;"/><line style="stroke:#181818;stroke-width:1.5;" x1="232.5" x2="513.5" y1="475.7344" y2="475.7344"/><text fill="#000000" font-family="Inter" font-size="13" lengthAdjust="spacing" textLength="268" x="239.5" y="470.8779">detectAndTranslate(extractedText, targetLang)</text><polygon fill="#181818" points="689.5,502.0859,699.5,506.0859,689.5,510.0859,693.5,506.0859" style="stroke:#181818;stroke-width:1.0;"/><line style="stroke:#181818;stroke-width:1.5;" x1="529.5" x2="695.5" y1="506.0859" y2="506.0859"/><text fill="#000000" font-family="Inter" font-size="13" lengthAdjust="spacing" textLength="132" x="536.5" y="501.2295">detectAndTranslate(...)</text><polygon fill="#181818" points="540.5,532.4375,530.5,536.4375,540.5,540.4375,536.5,536.4375" style="stroke:#181818;stroke-width:1.0;"/><line style="stroke:#181818;stroke-width:1.5;stroke-dasharray:2.0,2.0;" x1="534.5" x2="705.5" y1="536.4375" y2="536.4375"/><text fill="#000000" font-family="Inter" font-size="13" lengthAdjust="spacing" textLength="148" x="546.5" y="531.5811">{ translatedText: "...", ... }</text><polygon fill="#181818" points="243.5,562.7891,233.5,566.7891,243.5,570.7891,239.5,566.7891" style="stroke:#181818;stroke-width:1.0;"/><line style="stroke:#181818;stroke-width:1.5;stroke-dasharray:2.0,2.0;" x1="237.5" x2="523.5" y1="566.7891" y2="566.7891"/><text fill="#000000" font-family="Inter" font-size="13" lengthAdjust="spacing" textLength="79" x="249.5" y="561.9326">Result Object</text><line style="stroke:#181818;stroke-width:1.5;" x1="232.5" x2="274.5" y1="597.1406" y2="597.1406"/><line style="stroke:#181818;stroke-width:1.5;" x1="274.5" x2="274.5" y1="597.1406" y2="610.1406"/><line style="stroke:#181818;stroke-width:1.5;" x1="233.5" x2="274.5" y1="610.1406" y2="610.1406"/><polygon fill="#181818" points="243.5,606.1406,233.5,610.1406,243.5,614.1406,239.5,610.1406" style="stroke:#181818;stroke-width:1.0;"/><text fill="#000000" font-family="Inter" font-size="13" lengthAdjust="spacing" textLength="133" x="239.5" y="592.2842">setTranslatedText("...")</text><line style="stroke:#181818;stroke-width:1.5;" x1="232.5" x2="274.5" y1="647.4922" y2="647.4922"/><line style="stroke:#181818;stroke-width:1.5;" x1="274.5" x2="274.5" y1="647.4922" y2="660.4922"/><line style="stroke:#181818;stroke-width:1.5;" x1="233.5" x2="274.5" y1="660.4922" y2="660.4922"/><polygon fill="#181818" points="243.5,656.4922,233.5,660.4922,243.5,664.4922,239.5,660.4922" style="stroke:#181818;stroke-width:1.0;"/><text fill="#000000" font-family="Inter" font-size="13" lengthAdjust="spacing" textLength="98" x="239.5" y="642.6357">setLoading(false)</text><polygon fill="#181818" points="33.5,686.8438,23.5,690.8438,33.5,694.8438,29.5,690.8438" style="stroke:#181818;stroke-width:1.0;"/><line style="stroke:#181818;stroke-width:1.5;" x1="27.5" x2="231.5" y1="690.8438" y2="690.8438"/><text fill="#000000" font-family="Inter" font-size="13" lengthAdjust="spacing" textLength="186" x="39.5" y="685.9873">Show Original &amp; Translated Text</text><!--SRC=[VLFHQjj047o_hrXKA38aXZxqnGy5eyPWCBM9bG_Od3RArVATUdTgN4h_lRldI95Y4mc4lBSpcfrPHnCRWlt- -mBMHwm9IeysD1YDiv1lYtku_JRKQAPKE1ZReiSZLFI4NHDNpiOVU2J8rZQIpqOTWNvrP3KjlNSlvRFH1qiXm9VvLwLGH-SXUmWC0GmWBqezkXFNrh31FrB_j5hAhO0lfen6cnPjv4-9rhtsHFQCNYko5J3ybMFZQgFXContQwQvMybzIUEqJmtCmADUde_CA7XCEiNKcyf5F7q8w8bJYN-y2PHHnLQUSm4bjWp30y7EwDXvoXJN-zDjInOATjUZr0fifMNS4IWcC_BE6uvdUh9nM1bRvz5tabtjNTV2pZijCPppbendQP0pL29VG1U8Nt8ZBGz2B0qScVdDMp1ubTQZ_rnsTugUMwY2aesQp-TPQghe0ZSLEU04bcS2d8bPlTvX- -2U0Y_SYA8FWeagYgJZqbP3UqvZuXk8w6ks16tzRfn9d0DbJy_HNQTdeTU89Eg1IC2tKw5_8VOKIHWx9oFV03_XttlBBYcJjjw-ioEmVVp9wgvY-xccdfSJ2HFJhs_G4pQ1L-ZrK1Pu0Vjdzm9RRsfZiU7_sXjfsW3r7m00]--></g></svg>