<?xml version="1.0" encoding="us-ascii" standalone="no"?><svg xmlns="http://www.w3.org/2000/svg" xmlns:xlink="http://www.w3.org/1999/xlink" contentStyleType="text/css" height="707px" preserveAspectRatio="none" style="width:1025px;height:707px;background:#FFFFFF;" version="1.1" viewBox="0 0 1025 707" width="1025px" zoomAndPan="magnify"><defs/><g><text fill="#000000" font-family="Inter" font-size="14" font-weight="bold" lengthAdjust="spacing" textLength="285" x="366.25" y="29.5332">SSD: Bilingual Conversation (Split Mode)</text><rect fill="#FAFAFA" height="657.1406" style="stroke:#181818;stroke-width:0.5;" width="120" x="117" y="44.6094"/><text fill="#000000" font-family="Inter" font-size="13" font-weight="bold" lengthAdjust="spacing" textLength="53" x="150.5" y="58.1045">UI Layer</text><rect fill="#EFEFEF" height="657.1406" style="stroke:#181818;stroke-width:0.5;" width="309" x="397.5" y="44.6094"/><text fill="#000000" font-family="Inter" font-size="13" font-weight="bold" lengthAdjust="spacing" textLength="120" x="492" y="58.1045">State Management</text><rect fill="#E0E0E0" height="657.1406" style="stroke:#181818;stroke-width:0.5;" width="309" x="708.5" y="44.6094"/><text fill="#000000" font-family="Inter" font-size="13" font-weight="bold" lengthAdjust="spacing" textLength="84" x="821" y="58.1045">Infrastructure</text><rect fill="#FFFFFF" height="60.7031" style="stroke:#181818;stroke-width:1.0;" width="10" x="463" y="345.3281"/><rect fill="#FFFFFF" height="30.3516" style="stroke:#181818;stroke-width:1.0;" width="10" x="618.5" y="505.0859"/><rect fill="none" height="79.0547" style="stroke:#000000;stroke-width:1.5;" width="805.5" x="111" y="464.3828"/><line style="stroke:#181818;stroke-width:0.5;stroke-dasharray:5.0,5.0;" x1="29" x2="29" y1="121.2188" y2="621.1406"/><line style="stroke:#181818;stroke-width:0.5;stroke-dasharray:5.0,5.0;" x1="87" x2="87" y1="121.2188" y2="621.1406"/><line style="stroke:#181818;stroke-width:0.5;stroke-dasharray:5.0,5.0;" x1="177" x2="177" y1="121.2188" y2="621.1406"/><line style="stroke:#181818;stroke-width:0.5;stroke-dasharray:5.0,5.0;" x1="467.5" x2="467.5" y1="121.2188" y2="621.1406"/><line style="stroke:#181818;stroke-width:0.5;stroke-dasharray:5.0,5.0;" x1="623.5" x2="623.5" y1="121.2188" y2="621.1406"/><line style="stroke:#181818;stroke-width:0.5;stroke-dasharray:5.0,5.0;" x1="765.5" x2="765.5" y1="121.2188" y2="621.1406"/><line style="stroke:#181818;stroke-width:0.5;stroke-dasharray:5.0,5.0;" x1="867.5" x2="867.5" y1="121.2188" y2="621.1406"/><line style="stroke:#181818;stroke-width:0.5;stroke-dasharray:5.0,5.0;" x1="964.5" x2="964.5" y1="121.2188" y2="621.1406"/><text fill="#000000" font-family="Inter" font-size="14" lengthAdjust="spacing" textLength="42" x="5" y="118.1426">User A</text><ellipse cx="29" cy="52.1094" fill="#E2E2F0" rx="8" ry="8" style="stroke:#181818;stroke-width:0.5;"/><path d="M29,60.1094 L29,87.1094 M16,68.1094 L42,68.1094 M29,87.1094 L16,102.1094 M29,87.1094 L42,102.1094 " fill="none" style="stroke:#181818;stroke-width:0.5;"/><text fill="#000000" font-family="Inter" font-size="14" lengthAdjust="spacing" textLength="42" x="5" y="634.6738">User A</text><ellipse cx="29" cy="646.25" fill="#E2E2F0" rx="8" ry="8" style="stroke:#181818;stroke-width:0.5;"/><path d="M29,654.25 L29,681.25 M16,662.25 L42,662.25 M29,681.25 L16,696.25 M29,681.25 L42,696.25 " fill="none" style="stroke:#181818;stroke-width:0.5;"/><text fill="#000000" font-family="Inter" font-size="14" lengthAdjust="spacing" textLength="42" x="63" y="118.1426">User B</text><ellipse cx="87" cy="52.1094" fill="#E2E2F0" rx="8" ry="8" style="stroke:#181818;stroke-width:0.5;"/><path d="M87,60.1094 L87,87.1094 M74,68.1094 L100,68.1094 M87,87.1094 L74,102.1094 M87,87.1094 L100,102.1094 " fill="none" style="stroke:#181818;stroke-width:0.5;"/><text fill="#000000" font-family="Inter" font-size="14" lengthAdjust="spacing" textLength="42" x="63" y="634.6738">User B</text><ellipse cx="87" cy="646.25" fill="#E2E2F0" rx="8" ry="8" style="stroke:#181818;stroke-width:0.5;"/><path d="M87,654.25 L87,681.25 M74,662.25 L100,662.25 M87,681.25 L74,696.25 M87,681.25 L100,696.25 " fill="none" style="stroke:#181818;stroke-width:0.5;"/><rect fill="#E2E2F0" height="31.6094" rx="2.5" ry="2.5" style="stroke:#181818;stroke-width:0.5;" width="112" x="121" y="88.6094"/><text fill="#000000" font-family="Inter" font-size="14" lengthAdjust="spacing" textLength="98" x="128" y="110.1426">BilingualScreen</text><rect fill="#E2E2F0" height="31.6094" rx="2.5" ry="2.5" style="stroke:#181818;stroke-width:0.5;" width="112" x="121" y="620.1406"/><text fill="#000000" font-family="Inter" font-size="14" lengthAdjust="spacing" textLength="98" x="128" y="641.6738">BilingualScreen</text><rect fill="#E2E2F0" height="31.6094" rx="2.5" ry="2.5" style="stroke:#181818;stroke-width:0.5;" width="133" x="401.5" y="88.6094"/><text fill="#000000" font-family="Inter" font-size="14" lengthAdjust="spacing" textLength="119" x="408.5" y="110.1426">TranslationContext</text><rect fill="#E2E2F0" height="31.6094" rx="2.5" ry="2.5" style="stroke:#181818;stroke-width:0.5;" width="133" x="401.5" y="620.1406"/><text fill="#000000" font-family="Inter" font-size="14" lengthAdjust="spacing" textLength="119" x="408.5" y="641.6738">TranslationContext</text><rect fill="#E2E2F0" height="31.6094" rx="2.5" ry="2.5" style="stroke:#181818;stroke-width:0.5;" width="158" x="544.5" y="88.6094"/><text fill="#000000" font-family="Inter" font-size="14" lengthAdjust="spacing" textLength="144" x="551.5" y="110.1426">BilingualHistoryContext</text><rect fill="#E2E2F0" height="31.6094" rx="2.5" ry="2.5" style="stroke:#181818;stroke-width:0.5;" width="158" x="544.5" y="620.1406"/><text fill="#000000" font-family="Inter" font-size="14" lengthAdjust="spacing" textLength="144" x="551.5" y="641.6738">BilingualHistoryContext</text><rect fill="#E2E2F0" height="31.6094" rx="2.5" ry="2.5" style="stroke:#181818;stroke-width:0.5;" width="106" x="712.5" y="88.6094"/><text fill="#000000" font-family="Inter" font-size="14" lengthAdjust="spacing" textLength="92" x="719.5" y="110.1426">TranslationAPI</text><rect fill="#E2E2F0" height="31.6094" rx="2.5" ry="2.5" style="stroke:#181818;stroke-width:0.5;" width="106" x="712.5" y="620.1406"/><text fill="#000000" font-family="Inter" font-size="14" lengthAdjust="spacing" textLength="92" x="719.5" y="641.6738">TranslationAPI</text><rect fill="#E2E2F0" height="31.6094" rx="2.5" ry="2.5" style="stroke:#181818;stroke-width:0.5;" width="78" x="828.5" y="88.6094"/><text fill="#000000" font-family="Inter" font-size="14" lengthAdjust="spacing" textLength="64" x="835.5" y="110.1426">Supabase</text><rect fill="#E2E2F0" height="31.6094" rx="2.5" ry="2.5" style="stroke:#181818;stroke-width:0.5;" width="78" x="828.5" y="620.1406"/><text fill="#000000" font-family="Inter" font-size="14" lengthAdjust="spacing" textLength="64" x="835.5" y="641.6738">Supabase</text><rect fill="#E2E2F0" height="31.6094" rx="2.5" ry="2.5" style="stroke:#181818;stroke-width:0.5;" width="97" x="916.5" y="88.6094"/><text fill="#000000" font-family="Inter" font-size="14" lengthAdjust="spacing" textLength="83" x="923.5" y="110.1426">Expo Speech</text><rect fill="#E2E2F0" height="31.6094" rx="2.5" ry="2.5" style="stroke:#181818;stroke-width:0.5;" width="97" x="916.5" y="620.1406"/><text fill="#000000" font-family="Inter" font-size="14" lengthAdjust="spacing" textLength="83" x="923.5" y="641.6738">Expo Speech</text><rect fill="#FFFFFF" height="60.7031" style="stroke:#181818;stroke-width:1.0;" width="10" x="463" y="345.3281"/><rect fill="#FFFFFF" height="30.3516" style="stroke:#181818;stroke-width:1.0;" width="10" x="618.5" y="505.0859"/><rect fill="#EEEEEE" height="3" style="stroke:#EEEEEE;stroke-width:1.0;" width="1018.5" x="0" y="152.3945"/><line style="stroke:#000000;stroke-width:1.0;" x1="0" x2="1018.5" y1="152.3945" y2="152.3945"/><line style="stroke:#000000;stroke-width:1.0;" x1="0" x2="1018.5" y1="155.3945" y2="155.3945"/><rect fill="#EEEEEE" height="24.3516" style="stroke:#000000;stroke-width:2.0;" width="325" x="346.75" y="141.2188"/><text fill="#000000" font-family="Inter" font-size="13" font-weight="bold" lengthAdjust="spacing" textLength="307" x="352.75" y="158.7139">User A Speaks (Source Lang A -&gt; Target Lang B)</text><polygon fill="#181818" points="165,193.9219,175,197.9219,165,201.9219,169,197.9219" style="stroke:#181818;stroke-width:1.0;"/><line style="stroke:#181818;stroke-width:1.5;" x1="29" x2="171" y1="197.9219" y2="197.9219"/><text fill="#000000" font-family="Inter" font-size="13" lengthAdjust="spacing" textLength="59" x="36" y="193.0654">Tap Mic A</text><line style="stroke:#181818;stroke-width:1.5;" x1="177" x2="219" y1="228.2734" y2="228.2734"/><line style="stroke:#181818;stroke-width:1.5;" x1="219" x2="219" y1="228.2734" y2="241.2734"/><line style="stroke:#181818;stroke-width:1.5;" x1="178" x2="219" y1="241.2734" y2="241.2734"/><polygon fill="#181818" points="188,237.2734,178,241.2734,188,245.2734,184,241.2734" style="stroke:#181818;stroke-width:1.0;"/><text fill="#000000" font-family="Inter" font-size="13" lengthAdjust="spacing" textLength="184" x="184" y="223.417">Start Listening (Speech-to-Text)</text><polygon fill="#181818" points="165,267.625,175,271.625,165,275.625,169,271.625" style="stroke:#181818;stroke-width:1.0;"/><line style="stroke:#181818;stroke-width:1.5;" x1="29" x2="171" y1="271.625" y2="271.625"/><text fill="#000000" font-family="Inter" font-size="13" lengthAdjust="spacing" textLength="78" x="36" y="266.7686">Speaks "Ol&#225;"</text><line style="stroke:#181818;stroke-width:1.5;" x1="177" x2="219" y1="301.9766" y2="301.9766"/><line style="stroke:#181818;stroke-width:1.5;" x1="219" x2="219" y1="301.9766" y2="314.9766"/><line style="stroke:#181818;stroke-width:1.5;" x1="178" x2="219" y1="314.9766" y2="314.9766"/><polygon fill="#181818" points="188,310.9766,178,314.9766,188,318.9766,184,314.9766" style="stroke:#181818;stroke-width:1.0;"/><text fill="#000000" font-family="Inter" font-size="13" lengthAdjust="spacing" textLength="90" x="184" y="297.1201">setTextA("Ol&#225;")</text><polygon fill="#181818" points="451,341.3281,461,345.3281,451,349.3281,455,345.3281" style="stroke:#181818;stroke-width:1.0;"/><line style="stroke:#181818;stroke-width:1.5;" x1="177" x2="457" y1="345.3281" y2="345.3281"/><text fill="#000000" font-family="Inter" font-size="13" lengthAdjust="spacing" textLength="267" x="184" y="340.4717">performDetectionAndTranslation("Ol&#225;", LangB)</text><polygon fill="#181818" points="753.5,371.6797,763.5,375.6797,753.5,379.6797,757.5,375.6797" style="stroke:#181818;stroke-width:1.0;"/><line style="stroke:#181818;stroke-width:1.5;" x1="473" x2="759.5" y1="375.6797" y2="375.6797"/><text fill="#000000" font-family="Inter" font-size="13" lengthAdjust="spacing" textLength="152" x="480" y="370.8232">Translate("Ol&#225;", "pt", "en")</text><polygon fill="#181818" points="479,402.0313,469,406.0313,479,410.0313,475,406.0313" style="stroke:#181818;stroke-width:1.0;"/><line style="stroke:#181818;stroke-width:1.5;stroke-dasharray:2.0,2.0;" x1="473" x2="764.5" y1="406.0313" y2="406.0313"/><text fill="#000000" font-family="Inter" font-size="13" lengthAdjust="spacing" textLength="140" x="485" y="401.1748">{ translated: "Hello", ... }</text><line style="stroke:#181818;stroke-width:1.5;" x1="177" x2="219" y1="436.3828" y2="436.3828"/><line style="stroke:#181818;stroke-width:1.5;" x1="219" x2="219" y1="436.3828" y2="449.3828"/><line style="stroke:#181818;stroke-width:1.5;" x1="178" x2="219" y1="449.3828" y2="449.3828"/><polygon fill="#181818" points="188,445.3828,178,449.3828,188,453.3828,184,449.3828" style="stroke:#181818;stroke-width:1.0;"/><text fill="#000000" font-family="Inter" font-size="13" lengthAdjust="spacing" textLength="99" x="184" y="431.5264">setTextB("Hello")</text><path d="M111,464.3828 L268,464.3828 L268,472.7344 L258,482.7344 L111,482.7344 L111,464.3828 " fill="#EEEEEE" style="stroke:#000000;stroke-width:1.5;"/><rect fill="none" height="79.0547" style="stroke:#000000;stroke-width:1.5;" width="805.5" x="111" y="464.3828"/><text fill="#000000" font-family="Inter" font-size="13" font-weight="bold" lengthAdjust="spacing" textLength="112" x="126" y="478.8779">Auto-Save History</text><polygon fill="#181818" points="606.5,501.0859,616.5,505.0859,606.5,509.0859,610.5,505.0859" style="stroke:#181818;stroke-width:1.0;"/><line style="stroke:#181818;stroke-width:1.5;" x1="177" x2="612.5" y1="505.0859" y2="505.0859"/><text fill="#000000" font-family="Inter" font-size="13" lengthAdjust="spacing" textLength="224" x="184" y="500.2295">saveTranslation(original, translated, 'A')</text><polygon fill="#181818" points="855.5,531.4375,865.5,535.4375,855.5,539.4375,859.5,535.4375" style="stroke:#181818;stroke-width:1.0;"/><line style="stroke:#181818;stroke-width:1.5;" x1="623.5" x2="861.5" y1="535.4375" y2="535.4375"/><text fill="#000000" font-family="Inter" font-size="13" lengthAdjust="spacing" textLength="154" x="630.5" y="530.5811">insert into bilingual_history</text><polygon fill="#181818" points="953,568.7891,963,572.7891,953,576.7891,957,572.7891" style="stroke:#181818;stroke-width:1.0;"/><line style="stroke:#181818;stroke-width:1.5;" x1="177" x2="959" y1="572.7891" y2="572.7891"/><text fill="#000000" font-family="Inter" font-size="13" lengthAdjust="spacing" textLength="127" x="184" y="567.9326">speak("Hello", LangB)</text><polygon fill="#181818" points="98,599.1406,88,603.1406,98,607.1406,94,603.1406" style="stroke:#181818;stroke-width:1.0;"/><line style="stroke:#181818;stroke-width:1.5;" x1="92" x2="964" y1="603.1406" y2="603.1406"/><text fill="#000000" font-family="Inter" font-size="13" lengthAdjust="spacing" textLength="76" x="104" y="598.2842">Audio Output</text><!--SRC=[VLFRZjem47ttLupIXoKIeFQXBojHALaMBLBfLWfzhamo18jWf_QOighwCVsM_bZ7kJMKQed4PNpc-CoP0ocg4B9iUG-fgfGklQpWmUWpMYT96GsJhAuKmSOK60lXZahNqieJ5BYNlgALqVH9dX2YjIQqqGZXy9j7dMDYhVc-FQZygD4vU3T_BuJCoLY8lZYqa4GW7OIloLKz7Ugf43jpuV8QFieNlWNUh9Bm2E0NtqOgLxNK1D4mHPPRHDrIh0Ng0fYYuyb84i96QbdY2JKnt-CgFBTyMokrgnehs1R22pMKJVc1Bgy8U5AEPtaPTuLIQBfMizPxAnrPdvEt6BIy3S-hMfBFwuQHFszncQ_bJZfi4Clq5l1ugGraDM9-QAVPPdyrBHRGhYKWvD5n0eotERBrkkJgx0DifIsHsa8Qms8XHBE-SCOxkcT03HkLGoBuPrzaroqtiGUesQAGhA1WHcQsPOVYVpYwswFdwlUlQCpZa08-cRH7dChsiDy9GsgqUsDFIoJC6xjqCJAlQvms0wHn29qwXqGCMnsec9Oj3XDrxJWqHpM5TyvOB09cTYtX1r3VKjn3z8HLPHW_dy_XfoZmzix_Z9XEkZwUiRJ6rv1uTYkJPuGkNirosyukNQ6T0UDvZLMbqhAQZZHDuIwvYvlsGKkVpr3isPXucJAdqhmTuWyoiEip_lKmKZ4QQXJqOJlRB2WBIvqCRdGB26TXzF1NPr3Y2sNWsLFjIVm1]--></g></svg>