<?xml version="1.0" encoding="us-ascii" standalone="no"?><svg xmlns="http://www.w3.org/2000/svg" xmlns:xlink="http://www.w3.org/1999/xlink" contentStyleType="text/css" height="1005px" preserveAspectRatio="none" style="width:902px;height:1005px;background:#FFFFFF;" version="1.1" viewBox="0 0 902 1005" width="902px" zoomAndPan="magnify"><defs/><g><text fill="#000000" font-family="Inter" font-size="14" font-weight="bold" lengthAdjust="spacing" textLength="306" x="294" y="29.5332">SSD: Authentication Flow (Login &amp; Register)</text><rect fill="#FAFAFA" height="955.1953" rx="5" ry="5" style="stroke:#181818;stroke-width:0.5;" width="102" x="154.5" y="44.6094"/><text fill="#000000" font-family="Inter" font-size="13" font-weight="bold" lengthAdjust="spacing" textLength="53" x="179" y="58.1045">UI Layer</text><rect fill="#EFEFEF" height="955.1953" rx="5" ry="5" style="stroke:#181818;stroke-width:0.5;" width="126" x="316" y="44.6094"/><text fill="#000000" font-family="Inter" font-size="13" font-weight="bold" lengthAdjust="spacing" textLength="120" x="319" y="58.1045">State Management</text><rect fill="#E0E0E0" height="955.1953" rx="5" ry="5" style="stroke:#181818;stroke-width:0.5;" width="360" x="519" y="44.6094"/><text fill="#000000" font-family="Inter" font-size="13" font-weight="bold" lengthAdjust="spacing" textLength="84" x="657" y="58.1045">Infrastructure</text><rect fill="#FFFFFF" height="328.3516" style="stroke:#181818;stroke-width:1.0;" width="10" x="374" y="244.625"/><rect fill="#FFFFFF" height="151.7578" style="stroke:#181818;stroke-width:1.0;" width="10" x="374" y="702.7344"/><rect fill="#FFFFFF" height="30.3516" style="stroke:#181818;stroke-width:1.0;" width="10" x="573.5" y="291.3281"/><rect fill="#FFFFFF" height="91.0547" style="stroke:#181818;stroke-width:1.0;" width="10" x="573.5" y="733.0859"/><rect fill="none" height="229.2969" rx="5" ry="5" style="stroke:#000000;stroke-width:1.5;" width="875" x="10" y="336.6797"/><line style="stroke:#181818;stroke-width:0.5;stroke-dasharray:5.0,5.0;" x1="37" x2="37" y1="121.2188" y2="919.1953"/><line style="stroke:#181818;stroke-width:0.5;stroke-dasharray:5.0,5.0;" x1="205.5" x2="205.5" y1="121.2188" y2="919.1953"/><line style="stroke:#181818;stroke-width:0.5;stroke-dasharray:5.0,5.0;" x1="378.5" x2="378.5" y1="121.2188" y2="919.1953"/><line style="stroke:#181818;stroke-width:0.5;stroke-dasharray:5.0,5.0;" x1="578" x2="578" y1="121.2188" y2="919.1953"/><line style="stroke:#181818;stroke-width:0.5;stroke-dasharray:5.0,5.0;" x1="721" x2="721" y1="121.2188" y2="919.1953"/><line style="stroke:#181818;stroke-width:0.5;stroke-dasharray:5.0,5.0;" x1="828" x2="828" y1="121.2188" y2="919.1953"/><text fill="#000000" font-family="Inter" font-size="14" lengthAdjust="spacing" textLength="29" x="20" y="118.1426">User</text><ellipse cx="37.5" cy="52.1094" fill="#E2E2F0" rx="8" ry="8" style="stroke:#181818;stroke-width:0.5;"/><path d="M37.5,60.1094 L37.5,87.1094 M24.5,68.1094 L50.5,68.1094 M37.5,87.1094 L24.5,102.1094 M37.5,87.1094 L50.5,102.1094 " fill="none" style="stroke:#181818;stroke-width:0.5;"/><text fill="#000000" font-family="Inter" font-size="14" lengthAdjust="spacing" textLength="29" x="20" y="932.7285">User</text><ellipse cx="37.5" cy="944.3047" fill="#E2E2F0" rx="8" ry="8" style="stroke:#181818;stroke-width:0.5;"/><path d="M37.5,952.3047 L37.5,979.3047 M24.5,960.3047 L50.5,960.3047 M37.5,979.3047 L24.5,994.3047 M37.5,979.3047 L50.5,994.3047 " fill="none" style="stroke:#181818;stroke-width:0.5;"/><rect fill="#E2E2F0" height="31.6094" rx="5" ry="5" style="stroke:#181818;stroke-width:0.5;" width="94" x="158.5" y="88.6094"/><text fill="#000000" font-family="Inter" font-size="14" lengthAdjust="spacing" textLength="80" x="165.5" y="110.1426">LoginScreen</text><rect fill="#E2E2F0" height="31.6094" rx="5" ry="5" style="stroke:#181818;stroke-width:0.5;" width="94" x="158.5" y="918.1953"/><text fill="#000000" font-family="Inter" font-size="14" lengthAdjust="spacing" textLength="80" x="165.5" y="939.7285">LoginScreen</text><rect fill="#E2E2F0" height="31.6094" rx="5" ry="5" style="stroke:#181818;stroke-width:0.5;" width="91" x="333.5" y="88.6094"/><text fill="#000000" font-family="Inter" font-size="14" lengthAdjust="spacing" textLength="77" x="340.5" y="110.1426">UserContext</text><rect fill="#E2E2F0" height="31.6094" rx="5" ry="5" style="stroke:#181818;stroke-width:0.5;" width="91" x="333.5" y="918.1953"/><text fill="#000000" font-family="Inter" font-size="14" lengthAdjust="spacing" textLength="77" x="340.5" y="939.7285">UserContext</text><rect fill="#E2E2F0" height="31.6094" rx="5" ry="5" style="stroke:#181818;stroke-width:0.5;" width="111" x="523" y="88.6094"/><text fill="#000000" font-family="Inter" font-size="14" lengthAdjust="spacing" textLength="97" x="530" y="110.1426">Supabase Auth</text><rect fill="#E2E2F0" height="31.6094" rx="5" ry="5" style="stroke:#181818;stroke-width:0.5;" width="111" x="523" y="918.1953"/><text fill="#000000" font-family="Inter" font-size="14" lengthAdjust="spacing" textLength="97" x="530" y="939.7285">Supabase Auth</text><rect fill="#E2E2F0" height="31.6094" rx="5" ry="5" style="stroke:#181818;stroke-width:0.5;" width="101" x="671" y="88.6094"/><text fill="#000000" font-family="Inter" font-size="14" lengthAdjust="spacing" textLength="87" x="678" y="110.1426">Supabase DB</text><rect fill="#E2E2F0" height="31.6094" rx="5" ry="5" style="stroke:#181818;stroke-width:0.5;" width="101" x="671" y="918.1953"/><text fill="#000000" font-family="Inter" font-size="14" lengthAdjust="spacing" textLength="87" x="678" y="939.7285">Supabase DB</text><rect fill="#E2E2F0" height="31.6094" rx="5" ry="5" style="stroke:#181818;stroke-width:0.5;" width="93" x="782" y="88.6094"/><text fill="#000000" font-family="Inter" font-size="14" lengthAdjust="spacing" textLength="79" x="789" y="110.1426">SecureStore</text><rect fill="#E2E2F0" height="31.6094" rx="5" ry="5" style="stroke:#181818;stroke-width:0.5;" width="93" x="782" y="918.1953"/><text fill="#000000" font-family="Inter" font-size="14" lengthAdjust="spacing" textLength="79" x="789" y="939.7285">SecureStore</text><rect fill="#FFFFFF" height="328.3516" style="stroke:#181818;stroke-width:1.0;" width="10" x="374" y="244.625"/><rect fill="#FFFFFF" height="151.7578" style="stroke:#181818;stroke-width:1.0;" width="10" x="374" y="702.7344"/><rect fill="#FFFFFF" height="30.3516" style="stroke:#181818;stroke-width:1.0;" width="10" x="573.5" y="291.3281"/><rect fill="#FFFFFF" height="91.0547" style="stroke:#181818;stroke-width:1.0;" width="10" x="573.5" y="733.0859"/><rect fill="#EEEEEE" height="3" rx="5" ry="5" style="stroke:#EEEEEE;stroke-width:1.0;" width="895" x="0" y="152.3945"/><line style="stroke:#000000;stroke-width:1.0;" x1="0" x2="895" y1="152.3945" y2="152.3945"/><line style="stroke:#000000;stroke-width:1.0;" x1="0" x2="895" y1="155.3945" y2="155.3945"/><rect fill="#EEEEEE" height="24.3516" rx="5" ry="5" style="stroke:#000000;stroke-width:2.0;" width="119" x="388" y="141.2188"/><text fill="#000000" font-family="Inter" font-size="13" font-weight="bold" lengthAdjust="spacing" textLength="101" x="394" y="158.7139">Scenario: Login</text><polygon fill="#181818" points="193.5,210.2734,203.5,214.2734,193.5,218.2734,197.5,214.2734" style="stroke:#181818;stroke-width:1.0;"/><line style="stroke:#181818;stroke-width:1.5;" x1="37.5" x2="199.5" y1="214.2734" y2="214.2734"/><text fill="#000000" font-family="Inter" font-size="13" lengthAdjust="spacing" textLength="31" x="44.5" y="193.0654">Enter</text><text fill="#000000" font-family="Inter" font-size="13" lengthAdjust="spacing" textLength="4" x="75.5" y="193.0654">&#160;</text><text fill="#000000" font-family="Inter" font-size="13" lengthAdjust="spacing" textLength="63" x="79.5" y="193.0654">email/pass</text><text fill="#000000" font-family="Inter" font-size="13" lengthAdjust="spacing" textLength="4" x="142.5" y="193.0654">&#160;</text><text fill="#000000" font-family="Inter" font-size="13" lengthAdjust="spacing" textLength="9" x="146.5" y="193.0654">&amp;</text><text fill="#000000" font-family="Inter" font-size="13" lengthAdjust="spacing" textLength="4" x="155.5" y="193.0654">&#160;</text><text fill="#000000" font-family="Inter" font-size="13" lengthAdjust="spacing" textLength="29" x="159.5" y="193.0654">Click</text><text fill="#000000" font-family="Inter" font-size="13" lengthAdjust="spacing" textLength="41" x="44.5" y="209.417">"Login"</text><polygon fill="#181818" points="362,240.625,372,244.625,362,248.625,366,244.625" style="stroke:#181818;stroke-width:1.0;"/><line style="stroke:#181818;stroke-width:1.5;" x1="205.5" x2="368" y1="244.625" y2="244.625"/><text fill="#000000" font-family="Inter" font-size="13" lengthAdjust="spacing" textLength="73" x="212.5" y="239.7686">signIn(email,</text><text fill="#000000" font-family="Inter" font-size="13" lengthAdjust="spacing" textLength="4" x="285.5" y="239.7686">&#160;</text><text fill="#000000" font-family="Inter" font-size="13" lengthAdjust="spacing" textLength="59" x="289.5" y="239.7686">password)</text><polygon fill="#181818" points="561.5,287.3281,571.5,291.3281,561.5,295.3281,565.5,291.3281" style="stroke:#181818;stroke-width:1.0;"/><line style="stroke:#181818;stroke-width:1.5;" x1="384" x2="567.5" y1="291.3281" y2="291.3281"/><text fill="#000000" font-family="Inter" font-size="13" lengthAdjust="spacing" textLength="157" x="391" y="270.1201">signInWithPassword(email,</text><text fill="#000000" font-family="Inter" font-size="13" lengthAdjust="spacing" textLength="32" x="391" y="286.4717">pass)</text><polygon fill="#181818" points="395,317.6797,385,321.6797,395,325.6797,391,321.6797" style="stroke:#181818;stroke-width:1.0;"/><line style="stroke:#181818;stroke-width:1.5;stroke-dasharray:2.0,2.0;" x1="389" x2="577.5" y1="321.6797" y2="321.6797"/><text fill="#000000" font-family="Inter" font-size="13" lengthAdjust="spacing" textLength="47" x="401" y="316.8232">Session</text><text fill="#000000" font-family="Inter" font-size="13" lengthAdjust="spacing" textLength="4" x="448" y="316.8232">&#160;</text><text fill="#000000" font-family="Inter" font-size="13" lengthAdjust="spacing" textLength="4" x="452" y="316.8232">/</text><text fill="#000000" font-family="Inter" font-size="13" lengthAdjust="spacing" textLength="4" x="456" y="316.8232">&#160;</text><text fill="#000000" font-family="Inter" font-size="13" lengthAdjust="spacing" textLength="27" x="460" y="316.8232">User</text><text fill="#000000" font-family="Inter" font-size="13" lengthAdjust="spacing" textLength="4" x="487" y="316.8232">&#160;</text><text fill="#000000" font-family="Inter" font-size="13" lengthAdjust="spacing" textLength="27" x="491" y="316.8232">Data</text><path d="M15,336.6797 L71,336.6797 L71,345.0313 L61,355.0313 L10,355.0313 L10,341.6797 A5,5 0 0 1 15,336.6797 " fill="#EEEEEE" style="stroke:#000000;stroke-width:1.5;"/><rect fill="none" height="229.2969" rx="5" ry="5" style="stroke:#000000;stroke-width:1.5;" width="875" x="10" y="336.6797"/><text fill="#000000" font-family="Inter" font-size="13" font-weight="bold" lengthAdjust="spacing" textLength="16" x="25" y="351.1748">alt</text><text fill="#000000" font-family="Inter" font-size="11" font-weight="bold" lengthAdjust="spacing" textLength="55" x="86" y="350.0986">[Success]</text><polygon fill="#181818" points="816.5,373.3828,826.5,377.3828,816.5,381.3828,820.5,377.3828" style="stroke:#181818;stroke-width:1.0;"/><line style="stroke:#181818;stroke-width:1.5;" x1="384" x2="822.5" y1="377.3828" y2="377.3828"/><text fill="#000000" font-family="Inter" font-size="13" lengthAdjust="spacing" textLength="126" x="391" y="372.5264">saveSession(session)</text><line style="stroke:#181818;stroke-width:1.5;" x1="384" x2="426" y1="407.7344" y2="407.7344"/><line style="stroke:#181818;stroke-width:1.5;" x1="426" x2="426" y1="407.7344" y2="420.7344"/><line style="stroke:#181818;stroke-width:1.5;" x1="385" x2="426" y1="420.7344" y2="420.7344"/><polygon fill="#181818" points="395,416.7344,385,420.7344,395,424.7344,391,420.7344" style="stroke:#181818;stroke-width:1.0;"/><text fill="#000000" font-family="Inter" font-size="13" lengthAdjust="spacing" textLength="78" x="391" y="402.8779">setUser(user)</text><polygon fill="#181818" points="216.5,447.0859,206.5,451.0859,216.5,455.0859,212.5,451.0859" style="stroke:#181818;stroke-width:1.0;"/><line style="stroke:#181818;stroke-width:1.5;stroke-dasharray:2.0,2.0;" x1="210.5" x2="373" y1="451.0859" y2="451.0859"/><text fill="#000000" font-family="Inter" font-size="13" lengthAdjust="spacing" textLength="4" x="222.5" y="446.2295">{</text><text fill="#000000" font-family="Inter" font-size="13" lengthAdjust="spacing" textLength="4" x="226.5" y="446.2295">&#160;</text><text fill="#000000" font-family="Inter" font-size="13" lengthAdjust="spacing" textLength="30" x="230.5" y="446.2295">error:</text><text fill="#000000" font-family="Inter" font-size="13" lengthAdjust="spacing" textLength="4" x="260.5" y="446.2295">&#160;</text><text fill="#000000" font-family="Inter" font-size="13" lengthAdjust="spacing" textLength="20" x="264.5" y="446.2295">null</text><text fill="#000000" font-family="Inter" font-size="13" lengthAdjust="spacing" textLength="4" x="284.5" y="446.2295">&#160;</text><text fill="#000000" font-family="Inter" font-size="13" lengthAdjust="spacing" textLength="4" x="288.5" y="446.2295">}</text><polygon fill="#181818" points="48.5,477.4375,38.5,481.4375,48.5,485.4375,44.5,481.4375" style="stroke:#181818;stroke-width:1.0;"/><line style="stroke:#181818;stroke-width:1.5;" x1="42.5" x2="204.5" y1="481.4375" y2="481.4375"/><text fill="#000000" font-family="Inter" font-size="13" lengthAdjust="spacing" textLength="49" x="54.5" y="476.5811">Navigate</text><text fill="#000000" font-family="Inter" font-size="13" lengthAdjust="spacing" textLength="4" x="103.5" y="476.5811">&#160;</text><text fill="#000000" font-family="Inter" font-size="13" lengthAdjust="spacing" textLength="11" x="107.5" y="476.5811">to</text><text fill="#000000" font-family="Inter" font-size="13" lengthAdjust="spacing" textLength="4" x="118.5" y="476.5811">&#160;</text><text fill="#000000" font-family="Inter" font-size="13" lengthAdjust="spacing" textLength="34" x="122.5" y="476.5811">Home</text><text fill="#000000" font-family="Inter" font-size="13" lengthAdjust="spacing" textLength="4" x="156.5" y="476.5811">&#160;</text><text fill="#000000" font-family="Inter" font-size="13" lengthAdjust="spacing" textLength="36" x="160.5" y="476.5811">(Tabs)</text><line style="stroke:#000000;stroke-width:1.0;stroke-dasharray:2.0,2.0;" x1="10" x2="885" y1="490.4375" y2="490.4375"/><text fill="#000000" font-family="Inter" font-size="11" font-weight="bold" lengthAdjust="spacing" textLength="45" x="15" y="501.8564">[Failure]</text><polygon fill="#181818" points="216.5,523.625,206.5,527.625,216.5,531.625,212.5,527.625" style="stroke:#181818;stroke-width:1.0;"/><line style="stroke:#181818;stroke-width:1.5;stroke-dasharray:2.0,2.0;" x1="210.5" x2="373" y1="527.625" y2="527.625"/><text fill="#000000" font-family="Inter" font-size="13" lengthAdjust="spacing" textLength="4" x="222.5" y="522.7686">{</text><text fill="#000000" font-family="Inter" font-size="13" lengthAdjust="spacing" textLength="4" x="226.5" y="522.7686">&#160;</text><text fill="#000000" font-family="Inter" font-size="13" lengthAdjust="spacing" textLength="30" x="230.5" y="522.7686">error:</text><text fill="#000000" font-family="Inter" font-size="13" lengthAdjust="spacing" textLength="4" x="260.5" y="522.7686">&#160;</text><text fill="#000000" font-family="Inter" font-size="13" lengthAdjust="spacing" textLength="40" x="264.5" y="522.7686">"Invalid</text><text fill="#000000" font-family="Inter" font-size="13" lengthAdjust="spacing" textLength="4" x="304.5" y="522.7686">&#160;</text><text fill="#000000" font-family="Inter" font-size="13" lengthAdjust="spacing" textLength="32" x="308.5" y="522.7686">login"</text><text fill="#000000" font-family="Inter" font-size="13" lengthAdjust="spacing" textLength="4" x="340.5" y="522.7686">&#160;</text><text fill="#000000" font-family="Inter" font-size="13" lengthAdjust="spacing" textLength="4" x="344.5" y="522.7686">}</text><polygon fill="#181818" points="48.5,553.9766,38.5,557.9766,48.5,561.9766,44.5,557.9766" style="stroke:#181818;stroke-width:1.0;"/><line style="stroke:#181818;stroke-width:1.5;" x1="42.5" x2="204.5" y1="557.9766" y2="557.9766"/><text fill="#000000" font-family="Inter" font-size="13" lengthAdjust="spacing" textLength="32" x="54.5" y="553.1201">Show</text><text fill="#000000" font-family="Inter" font-size="13" lengthAdjust="spacing" textLength="4" x="86.5" y="553.1201">&#160;</text><text fill="#000000" font-family="Inter" font-size="13" lengthAdjust="spacing" textLength="27" x="90.5" y="553.1201">Alert</text><text fill="#000000" font-family="Inter" font-size="13" lengthAdjust="spacing" textLength="4" x="117.5" y="553.1201">&#160;</text><text fill="#000000" font-family="Inter" font-size="13" lengthAdjust="spacing" textLength="28" x="121.5" y="553.1201">Error</text><rect fill="#EEEEEE" height="3" rx="5" ry="5" style="stroke:#EEEEEE;stroke-width:1.0;" width="895" x="0" y="594.1523"/><line style="stroke:#000000;stroke-width:1.0;" x1="0" x2="895" y1="594.1523" y2="594.1523"/><line style="stroke:#000000;stroke-width:1.0;" x1="0" x2="895" y1="597.1523" y2="597.1523"/><rect fill="#EEEEEE" height="24.3516" rx="5" ry="5" style="stroke:#000000;stroke-width:2.0;" width="135" x="380" y="582.9766"/><text fill="#000000" font-family="Inter" font-size="13" font-weight="bold" lengthAdjust="spacing" textLength="117" x="386" y="600.4717">Scenario: Register</text><polygon fill="#181818" points="193.5,652.0313,203.5,656.0313,193.5,660.0313,197.5,656.0313" style="stroke:#181818;stroke-width:1.0;"/><line style="stroke:#181818;stroke-width:1.5;" x1="37.5" x2="199.5" y1="656.0313" y2="656.0313"/><text fill="#000000" font-family="Inter" font-size="13" lengthAdjust="spacing" textLength="17" x="44.5" y="634.8232">Fill</text><text fill="#000000" font-family="Inter" font-size="13" lengthAdjust="spacing" textLength="4" x="61.5" y="634.8232">&#160;</text><text fill="#000000" font-family="Inter" font-size="13" lengthAdjust="spacing" textLength="25" x="65.5" y="634.8232">form</text><text fill="#000000" font-family="Inter" font-size="13" lengthAdjust="spacing" textLength="4" x="90.5" y="634.8232">&#160;</text><text fill="#000000" font-family="Inter" font-size="13" lengthAdjust="spacing" textLength="9" x="94.5" y="634.8232">&amp;</text><text fill="#000000" font-family="Inter" font-size="13" lengthAdjust="spacing" textLength="4" x="103.5" y="634.8232">&#160;</text><text fill="#000000" font-family="Inter" font-size="13" lengthAdjust="spacing" textLength="29" x="107.5" y="634.8232">Click</text><text fill="#000000" font-family="Inter" font-size="13" lengthAdjust="spacing" textLength="58" x="44.5" y="651.1748">"Register"</text><polygon fill="#181818" points="362,698.7344,372,702.7344,362,706.7344,366,702.7344" style="stroke:#181818;stroke-width:1.0;"/><line style="stroke:#181818;stroke-width:1.5;" x1="205.5" x2="368" y1="702.7344" y2="702.7344"/><text fill="#000000" font-family="Inter" font-size="13" lengthAdjust="spacing" textLength="79" x="212.5" y="681.5264">signUp(email,</text><text fill="#000000" font-family="Inter" font-size="13" lengthAdjust="spacing" textLength="4" x="291.5" y="681.5264">&#160;</text><text fill="#000000" font-family="Inter" font-size="13" lengthAdjust="spacing" textLength="32" x="295.5" y="681.5264">pass,</text><text fill="#000000" font-family="Inter" font-size="13" lengthAdjust="spacing" textLength="58" x="212.5" y="697.8779">metadata)</text><polygon fill="#181818" points="561.5,729.0859,571.5,733.0859,561.5,737.0859,565.5,733.0859" style="stroke:#181818;stroke-width:1.0;"/><line style="stroke:#181818;stroke-width:1.5;" x1="384" x2="567.5" y1="733.0859" y2="733.0859"/><text fill="#000000" font-family="Inter" font-size="13" lengthAdjust="spacing" textLength="79" x="391" y="728.2295">signUp(email,</text><text fill="#000000" font-family="Inter" font-size="13" lengthAdjust="spacing" textLength="4" x="470" y="728.2295">&#160;</text><text fill="#000000" font-family="Inter" font-size="13" lengthAdjust="spacing" textLength="32" x="474" y="728.2295">pass)</text><polygon fill="#181818" points="709.5,759.4375,719.5,763.4375,709.5,767.4375,713.5,763.4375" style="stroke:#181818;stroke-width:1.0;"/><line style="stroke:#181818;stroke-width:1.5;" x1="583.5" x2="715.5" y1="763.4375" y2="763.4375"/><text fill="#000000" font-family="Inter" font-size="13" lengthAdjust="spacing" textLength="38" x="590.5" y="758.5811">Create</text><text fill="#000000" font-family="Inter" font-size="13" lengthAdjust="spacing" textLength="4" x="628.5" y="758.5811">&#160;</text><text fill="#000000" font-family="Inter" font-size="13" lengthAdjust="spacing" textLength="27" x="632.5" y="758.5811">User</text><text fill="#000000" font-family="Inter" font-size="13" lengthAdjust="spacing" textLength="4" x="659.5" y="758.5811">&#160;</text><text fill="#000000" font-family="Inter" font-size="13" lengthAdjust="spacing" textLength="41" x="663.5" y="758.5811">Record</text><polygon fill="#181818" points="594.5,789.7891,584.5,793.7891,594.5,797.7891,590.5,793.7891" style="stroke:#181818;stroke-width:1.0;"/><line style="stroke:#181818;stroke-width:1.5;stroke-dasharray:2.0,2.0;" x1="588.5" x2="720.5" y1="793.7891" y2="793.7891"/><text fill="#000000" font-family="Inter" font-size="13" lengthAdjust="spacing" textLength="51" x="600.5" y="788.9326">Success</text><polygon fill="#181818" points="395,820.1406,385,824.1406,395,828.1406,391,824.1406" style="stroke:#181818;stroke-width:1.0;"/><line style="stroke:#181818;stroke-width:1.5;stroke-dasharray:2.0,2.0;" x1="389" x2="577.5" y1="824.1406" y2="824.1406"/><text fill="#000000" font-family="Inter" font-size="13" lengthAdjust="spacing" textLength="25" x="401" y="819.2842">New</text><text fill="#000000" font-family="Inter" font-size="13" lengthAdjust="spacing" textLength="4" x="426" y="819.2842">&#160;</text><text fill="#000000" font-family="Inter" font-size="13" lengthAdjust="spacing" textLength="27" x="430" y="819.2842">User</text><text fill="#000000" font-family="Inter" font-size="13" lengthAdjust="spacing" textLength="4" x="457" y="819.2842">&#160;</text><text fill="#000000" font-family="Inter" font-size="13" lengthAdjust="spacing" textLength="27" x="461" y="819.2842">Data</text><polygon fill="#181818" points="216.5,850.4922,206.5,854.4922,216.5,858.4922,212.5,854.4922" style="stroke:#181818;stroke-width:1.0;"/><line style="stroke:#181818;stroke-width:1.5;stroke-dasharray:2.0,2.0;" x1="210.5" x2="378" y1="854.4922" y2="854.4922"/><text fill="#000000" font-family="Inter" font-size="13" lengthAdjust="spacing" textLength="4" x="222.5" y="849.6357">{</text><text fill="#000000" font-family="Inter" font-size="13" lengthAdjust="spacing" textLength="4" x="226.5" y="849.6357">&#160;</text><text fill="#000000" font-family="Inter" font-size="13" lengthAdjust="spacing" textLength="30" x="230.5" y="849.6357">error:</text><text fill="#000000" font-family="Inter" font-size="13" lengthAdjust="spacing" textLength="4" x="260.5" y="849.6357">&#160;</text><text fill="#000000" font-family="Inter" font-size="13" lengthAdjust="spacing" textLength="20" x="264.5" y="849.6357">null</text><text fill="#000000" font-family="Inter" font-size="13" lengthAdjust="spacing" textLength="4" x="284.5" y="849.6357">&#160;</text><text fill="#000000" font-family="Inter" font-size="13" lengthAdjust="spacing" textLength="4" x="288.5" y="849.6357">}</text><polygon fill="#181818" points="48.5,897.1953,38.5,901.1953,48.5,905.1953,44.5,901.1953" style="stroke:#181818;stroke-width:1.0;"/><line style="stroke:#181818;stroke-width:1.5;" x1="42.5" x2="204.5" y1="901.1953" y2="901.1953"/><text fill="#000000" font-family="Inter" font-size="13" lengthAdjust="spacing" textLength="32" x="54.5" y="879.9873">Show</text><text fill="#000000" font-family="Inter" font-size="13" lengthAdjust="spacing" textLength="4" x="86.5" y="879.9873">&#160;</text><text fill="#000000" font-family="Inter" font-size="13" lengthAdjust="spacing" textLength="53" x="90.5" y="879.9873">"Account</text><text fill="#000000" font-family="Inter" font-size="13" lengthAdjust="spacing" textLength="4" x="143.5" y="879.9873">&#160;</text><text fill="#000000" font-family="Inter" font-size="13" lengthAdjust="spacing" textLength="50" x="147.5" y="879.9873">Created"</text><text fill="#000000" font-family="Inter" font-size="13" lengthAdjust="spacing" textLength="9" x="54.5" y="896.3389">&amp;</text><text fill="#000000" font-family="Inter" font-size="13" lengthAdjust="spacing" textLength="4" x="63.5" y="896.3389">&#160;</text><text fill="#000000" font-family="Inter" font-size="13" lengthAdjust="spacing" textLength="31" x="67.5" y="896.3389">Login</text><!--SRC=[XLHDRnen4BtxLuosKaIaf4aEkI0HYV2X8gLHbKsKy-2TW9LTczfUeAtwtpjZ5jW4HF41otxpPkQzyKOJIu8y7tQXNySvsMWqHkCiZ4ktWiw3cnaBP_14CnCY-NEbmhkn2_HOGK5lM9Tnx6nyn8eWcrY6P2r4e9yrMKrzxztgUMxqkwKGuERhRGlaNMqBxRmb3pVNhOiArnN3SKR1_2QukRrM2dLq7hANm8a00yX6gQbRyza47l2Nd7yPzsKfu1zJSKzcWJP2bjh9jIUoc-Y98bi0XpSSUSH8y1qj9wrO3UOQZMKTSadc0RTEwvYu1d7zYMnYtpo6w6iTQqz2TItha2gl5pZ5GCc3H2QR4xZXVK8DxuzWI7Eod5MYX94TDxClhTU3N9D5RrmNDlxsUaf9Et1vnv905qPY9525fhnQ83js1eEItMiKp1IZ6CijCpYOcPtOJa9VWC1NpXVdOfLPYfoYZ18iXqXZkvXN4-S_6dmxlXMRX4X1bxk4EG-5ZEXLSX-6654Lz354OHaXhxLcR1AfoT_88INWaXgcJjZydxUHJNCK9Kcd3ZByk-kjK7-0UBHz5snTbl0t0JRQfDAwy8XBCvEgeeDlZXz9vncdt22LREEOEsQpJj3o32snD0MKIVTZ6V8vFzH-IJx2I8B4wROSIVqFfcyVyw7lOyDTl3bVxGtVWWyzVrcqFRk0YY8MxCN_dVyOUTpjEvvkXWyyoKMgyeduAr4eFh_Sysqz_ZGZZxGwDHqdJVmitg7SMLzh_ch5fhmYOxtIor3_0000]--></g></svg>