<?xml version="1.0" encoding="us-ascii" standalone="no"?><svg xmlns="http://www.w3.org/2000/svg" xmlns:xlink="http://www.w3.org/1999/xlink" contentStyleType="text/css" height="427px" preserveAspectRatio="none" style="width:700px;height:427px;background:#FFFFFF;" version="1.1" viewBox="0 0 700 427" width="700px" zoomAndPan="magnify"><defs/><g><text fill="#000000" font-family="sans-serif" font-size="14" font-weight="bold" lengthAdjust="spacing" textLength="218" x="234" y="24.5332">Use Case: History Management</text><!--cluster History Screens--><g id="cluster_History Screens"><rect fill="none" height="376" rx="2.5" ry="2.5" style="stroke:#181818;stroke-width:1.0;" width="223" x="155" y="45.6094"/><text fill="#000000" font-family="sans-serif" font-size="14" font-weight="bold" lengthAdjust="spacing" textLength="111" x="211" y="62.1426">History Screens</text></g><g id="elem_UC_ViewTrans"><ellipse cx="266.63" cy="103.6354" fill="#F1F1F1" rx="95.63" ry="21.526" style="stroke:#181818;stroke-width:0.5;"/><text fill="#000000" font-family="sans-serif" font-size="14" lengthAdjust="spacing" textLength="151" x="191.13" y="107.3639">View Translation History</text></g><g id="elem_UC_ViewBi"><ellipse cx="266.3193" cy="180.5732" fill="#F1F1F1" rx="87.8193" ry="19.9639" style="stroke:#181818;stroke-width:0.5;"/><text fill="#000000" font-family="sans-serif" font-size="14" lengthAdjust="spacing" textLength="133" x="199.8193" y="184.3017">View Bilingual History</text></g><g id="elem_UC_Delete"><ellipse cx="266.7113" cy="252.7516" fill="#F1F1F1" rx="71.2113" ry="16.6423" style="stroke:#181818;stroke-width:0.5;"/><text fill="#000000" font-family="sans-serif" font-size="14" lengthAdjust="spacing" textLength="91" x="218.2113" y="257.2682">Delete Record</text></g><g id="elem_UC_Fav"><ellipse cx="266.7363" cy="321.8566" fill="#F1F1F1" rx="76.7363" ry="17.7473" style="stroke:#181818;stroke-width:0.5;"/><text fill="#000000" font-family="sans-serif" font-size="14" lengthAdjust="spacing" textLength="106" x="211.2006" y="326.2648">Mark as Favorite</text></g><g id="elem_UC_Clear"><ellipse cx="266.5928" cy="389.5965" fill="#F1F1F1" rx="49.0928" ry="15.4872" style="stroke:#181818;stroke-width:0.5;"/><text fill="#000000" font-family="sans-serif" font-size="14" lengthAdjust="spacing" textLength="53" x="237.6382" y="393.9901">Clear All</text></g><!--entity User--><g id="elem_User"><ellipse cx="57" cy="194.1094" fill="#F1F1F1" rx="8" ry="8" style="stroke:#181818;stroke-width:0.5;"/><path d="M57,202.1094 L57,229.1094 M44,210.1094 L70,210.1094 M57,229.1094 L44,244.1094 M57,229.1094 L70,244.1094 " fill="none" style="stroke:#181818;stroke-width:0.5;"/><text fill="#000000" font-family="sans-serif" font-size="14" lengthAdjust="spacing" textLength="102" x="6" y="260.1426">Registered User</text></g><!--entity DB--><g id="elem_DB"><ellipse cx="644.5" cy="187.1094" fill="#F1F1F1" rx="8" ry="8" style="stroke:#181818;stroke-width:0.5;"/><path d="M644.5,195.1094 L644.5,222.1094 M631.5,203.1094 L657.5,203.1094 M644.5,222.1094 L631.5,237.1094 M644.5,222.1094 L657.5,237.1094 " fill="none" style="stroke:#181818;stroke-width:0.5;"/><text fill="#000000" font-family="sans-serif" font-size="14" lengthAdjust="spacing" textLength="97" x="596" y="253.1426">Supabase (DB)</text></g><!--link User to UC_ViewTrans--><g id="link_User_UC_ViewTrans"><path d="M93.23,185.5994 C108.54,170.4894 127.44,154.0994 147,142.6094 C163.53,132.8994 177.0808,127.0847 195.2108,121.2247 " fill="none" id="User-to-UC_ViewTrans" style="stroke:#181818;stroke-width:1.0;"/><polygon fill="#181818" points="200.92,119.3794,191.126,118.3412,196.1623,120.9171,193.5864,125.9535,200.92,119.3794" style="stroke:#181818;stroke-width:1.0;"/></g><!--link User to UC_ViewBi--><g id="link_User_UC_ViewBi"><path d="M108.23,213.9594 C136.3,208.0094 165.6907,201.7748 195.7107,195.4048 " fill="none" id="User-to-UC_ViewBi" style="stroke:#181818;stroke-width:1.0;"/><polygon fill="#181818" points="201.58,194.1594,191.9457,192.1146,196.6889,195.1972,193.6063,199.9404,201.58,194.1594" style="stroke:#181818;stroke-width:1.0;"/></g><!--link User to UC_Delete--><g id="link_User_UC_Delete"><path d="M108.23,231.3894 C137.26,235.2994 168.034,239.4565 198.694,243.5965 " fill="none" id="User-to-UC_Delete" style="stroke:#181818;stroke-width:1.0;"/><polygon fill="#181818" points="204.64,244.3994,196.2562,239.231,199.685,243.7303,195.1857,247.1591,204.64,244.3994" style="stroke:#181818;stroke-width:1.0;"/></g><!--link User to UC_Fav--><g id="link_User_UC_Fav"><path d="M108.05,263.6294 C120.33,272.0094 133.76,280.2494 147,286.6094 C167.11,296.2694 184.6499,302.2861 205.2599,307.8861 " fill="none" id="User-to-UC_Fav" style="stroke:#181818;stroke-width:1.0;"/><polygon fill="#181818" points="211.05,309.4594,203.4137,303.2395,206.2249,308.1483,201.3161,310.9596,211.05,309.4594" style="stroke:#181818;stroke-width:1.0;"/></g><!--link UC_ViewTrans to DB--><g id="link_UC_ViewTrans_DB"><path d="M350.91,113.7994 C412.1,123.1694 496.32,140.0394 566,168.6094 C576.02,172.7194 581.0298,175.0212 590.5498,180.7112 " fill="none" id="UC_ViewTrans-to-DB" style="stroke:#181818;stroke-width:1.0;stroke-dasharray:7.0,7.0;"/><polygon fill="#181818" points="595.7,183.7894,590.0268,175.7386,591.4082,181.2242,585.9226,182.6055,595.7,183.7894" style="stroke:#181818;stroke-width:1.0;"/><text fill="#000000" font-family="sans-serif" font-size="13" lengthAdjust="spacing" textLength="144" x="408" y="119.1045">select * from translations</text></g><!--link UC_ViewBi to DB--><g id="link_UC_ViewBi_DB"><path d="M347.7,188.4994 C423.08,195.9194 527.4089,206.1811 589.8289,212.3311 " fill="none" id="UC_ViewBi-to-DB" style="stroke:#181818;stroke-width:1.0;stroke-dasharray:7.0,7.0;"/><polygon fill="#181818" points="595.8,212.9194,587.2356,208.0562,590.8241,212.4291,586.4512,216.0176,595.8,212.9194" style="stroke:#181818;stroke-width:1.0;"/><text fill="#000000" font-family="sans-serif" font-size="13" lengthAdjust="spacing" textLength="170" x="395" y="191.1045">select * from bilingual_history</text></g><!--link UC_Delete to DB--><g id="link_UC_Delete_DB"><path d="M334.83,257.1694 C395.75,259.8494 487.66,260.2794 566,245.6094 C575.84,243.7694 580.4162,242.7613 590.1162,239.4813 " fill="none" id="UC_Delete-to-DB" style="stroke:#181818;stroke-width:1.0;stroke-dasharray:7.0,7.0;"/><polygon fill="#181818" points="595.8,237.5594,585.9929,236.6531,591.0635,239.161,588.5555,244.2315,595.8,237.5594" style="stroke:#181818;stroke-width:1.0;"/><text fill="#000000" font-family="sans-serif" font-size="13" lengthAdjust="spacing" textLength="59" x="450.5" y="242.1045">delete row</text></g><!--link UC_Fav to DB--><g id="link_UC_Fav_DB"><path d="M341.88,324.6294 C404.32,324.4194 494.51,317.5394 566,285.6094 C581.2,278.8194 591.1377,272.0225 603.2977,260.9825 " fill="none" id="UC_Fav-to-DB" style="stroke:#181818;stroke-width:1.0;stroke-dasharray:7.0,7.0;"/><polygon fill="#181818" points="607.74,256.9494,598.3878,260.0375,604.0381,260.3103,603.7653,265.9606,607.74,256.9494" style="stroke:#181818;stroke-width:1.0;"/><text fill="#000000" font-family="sans-serif" font-size="13" lengthAdjust="spacing" textLength="100" x="430" y="282.1045">update is_favorite</text></g><!--SRC=[TL2zRi8m4DxlAKwPsahm00n8JQAg2mkqNT6HN8A5iT7PAQggldlj14DIKK_sVN_dpokl6TyTOq6E5_YgdBVoXIiorFAHZGVGt7Zq5aMrUu-r4gwyiWQ0gi35RCrjKB5m7OqaGtBz9U6RxaIxu8uFPVxOesKE45t8j24zIw6RIfYDo_0RC9pESHLbsOVYCxu96QSf9gSjXwHY6_4UlYFBbLQcxKZV4-LggYXPisTSSsMbJiHXE2MkI0uHVg5FAyfpueRtb5Xe9i5dhHEZ7y0FG6m8PxFbz0D_fs73yUYootWK8s7iWVFvCZIC2tI1NNbymaRi4VsjG0TN-__OkzJRTZ_q1jVucwGUtcBFC6noWxfJJG5IRjjSEe9V]--></g></svg>