<?xml version="1.0" encoding="us-ascii" standalone="no"?><svg xmlns="http://www.w3.org/2000/svg" xmlns:xlink="http://www.w3.org/1999/xlink" contentStyleType="text/css" height="366px" preserveAspectRatio="none" style="width:911px;height:366px;background:#FFFFFF;" version="1.1" viewBox="0 0 911 366" width="911px" zoomAndPan="magnify"><defs/><g><text fill="#000000" font-family="sans-serif" font-size="14" font-weight="bold" lengthAdjust="spacing" textLength="234" x="331.5" y="24.5332">Use Case: Bilingual Conversation</text><!--cluster Bilingual Screen--><g id="cluster_Bilingual Screen"><rect fill="none" height="222" rx="2.5" ry="2.5" style="stroke:#181818;stroke-width:1.0;" width="536" x="95" y="45.6094"/><text fill="#000000" font-family="sans-serif" font-size="14" font-weight="bold" lengthAdjust="spacing" textLength="115" x="305.5" y="62.1426">Bilingual Screen</text></g><g id="elem_UC_SpeakA"><ellipse cx="189.1119" cy="97.8318" fill="#F1F1F1" rx="69.1119" ry="16.2224" style="stroke:#181818;stroke-width:0.5;"/><text fill="#000000" font-family="sans-serif" font-size="14" lengthAdjust="spacing" textLength="85" x="143.6119" y="102.3484">Speak Side A</text></g><g id="elem_UC_SpeakB"><ellipse cx="189.1119" cy="235.8318" fill="#F1F1F1" rx="69.1119" ry="16.2224" style="stroke:#181818;stroke-width:0.5;"/><text fill="#000000" font-family="sans-serif" font-size="14" lengthAdjust="spacing" textLength="85" x="143.6119" y="240.3484">Speak Side B</text></g><g id="elem_UC_Swap"><ellipse cx="188.896" cy="166.5886" fill="#F1F1F1" rx="77.896" ry="17.9792" style="stroke:#181818;stroke-width:0.5;"/><text fill="#000000" font-family="sans-serif" font-size="14" lengthAdjust="spacing" textLength="109" x="132.4355" y="170.856">Swap Languages</text></g><g id="elem_UC_Save"><ellipse cx="517.9525" cy="134.3999" fill="#F1F1F1" rx="96.9525" ry="21.7905" style="stroke:#181818;stroke-width:0.5;"/><text fill="#000000" font-family="sans-serif" font-size="14" lengthAdjust="spacing" textLength="154" x="440.9525" y="138.1284">Auto-Save Conversation</text></g><!--entity UserA--><g id="elem_UserA"><ellipse cx="27" cy="80.1094" fill="#F1F1F1" rx="8" ry="8" style="stroke:#181818;stroke-width:0.5;"/><path d="M27,88.1094 L27,115.1094 M14,96.1094 L40,96.1094 M27,115.1094 L14,130.1094 M27,115.1094 L40,130.1094 " fill="none" style="stroke:#181818;stroke-width:0.5;"/><text fill="#000000" font-family="sans-serif" font-size="14" lengthAdjust="spacing" textLength="42" x="6" y="146.1426">User A</text></g><!--entity UserB--><g id="elem_UserB"><ellipse cx="27" cy="205.1094" fill="#F1F1F1" rx="8" ry="8" style="stroke:#181818;stroke-width:0.5;"/><path d="M27,213.1094 L27,240.1094 M14,221.1094 L40,221.1094 M27,240.1094 L14,255.1094 M27,240.1094 L40,255.1094 " fill="none" style="stroke:#181818;stroke-width:0.5;"/><text fill="#000000" font-family="sans-serif" font-size="14" lengthAdjust="spacing" textLength="42" x="6" y="271.1426">User B</text></g><!--entity API--><g id="elem_API"><ellipse cx="518" cy="292.1094" fill="#F1F1F1" rx="8" ry="8" style="stroke:#181818;stroke-width:0.5;"/><path d="M518,300.1094 L518,327.1094 M505,308.1094 L531,308.1094 M518,327.1094 L505,342.1094 M518,327.1094 L531,342.1094 " fill="none" style="stroke:#181818;stroke-width:0.5;"/><text fill="#000000" font-family="sans-serif" font-size="14" lengthAdjust="spacing" textLength="96" x="470" y="358.1426">Translation API</text></g><!--entity DB--><g id="elem_DB"><ellipse cx="855.5" cy="104.1094" fill="#F1F1F1" rx="8" ry="8" style="stroke:#181818;stroke-width:0.5;"/><path d="M855.5,112.1094 L855.5,139.1094 M842.5,120.1094 L868.5,120.1094 M855.5,139.1094 L842.5,154.1094 M855.5,139.1094 L868.5,154.1094 " fill="none" style="stroke:#181818;stroke-width:0.5;"/><text fill="#000000" font-family="sans-serif" font-size="14" lengthAdjust="spacing" textLength="97" x="807" y="170.1426">Supabase (DB)</text></g><!--link UserA to UC_SpeakA--><g id="link_UserA_UC_SpeakA"><path d="M48.26,108.9594 C67.27,107.4194 90.7398,105.517 117.7198,103.317 " fill="none" id="UserA-to-UC_SpeakA" style="stroke:#181818;stroke-width:1.0;"/><polygon fill="#181818" points="123.7,102.8294,114.4047,99.5741,118.7165,103.2357,115.0549,107.5476,123.7,102.8294" style="stroke:#181818;stroke-width:1.0;"/></g><!--link UserB to UC_SpeakB--><g id="link_UserB_UC_SpeakB"><path d="M48.26,235.6094 C66.34,235.6094 87.88,235.6094 113.74,235.6094 " fill="none" id="UserB-to-UC_SpeakB" style="stroke:#181818;stroke-width:1.0;"/><polygon fill="#181818" points="119.74,235.6094,110.74,231.6094,114.74,235.6094,110.74,239.6094,119.74,235.6094" style="stroke:#181818;stroke-width:1.0;"/></g><!--link UserA to UC_Swap--><g id="link_UserA_UC_Swap"><path d="M48.26,117.6994 C72.48,126.1794 108.0068,138.6073 139.4068,149.5973 " fill="none" id="UserA-to-UC_Swap" style="stroke:#181818;stroke-width:1.0;"/><polygon fill="#181818" points="145.07,151.5794,137.8967,144.8308,140.3507,149.9276,135.2539,152.3817,145.07,151.5794" style="stroke:#181818;stroke-width:1.0;"/></g><!--link UC_SpeakA to API--><g id="link_UC_SpeakA_API"><path d="M235.28,109.4894 C246.91,114.3994 258.52,121.2194 267,130.6094 C296.96,163.7894 267.15,193.3394 297,226.6094 C327.44,260.5394 349.22,249.3794 391,267.6094 C417.03,278.9694 440.5911,289.2489 464.2311,299.5689 " fill="none" id="UC_SpeakA-to-API" style="stroke:#181818;stroke-width:1.0;stroke-dasharray:7.0,7.0;"/><polygon fill="#181818" points="469.73,301.9694,463.0821,294.7027,465.1476,299.9689,459.8814,302.0345,469.73,301.9694" style="stroke:#181818;stroke-width:1.0;"/><text fill="#000000" font-family="sans-serif" font-size="13" lengthAdjust="spacing" textLength="92" x="298" y="223.1045">translate A -&gt; B</text></g><!--link UC_SpeakB to API--><g id="link_UC_SpeakB_API"><path d="M214.12,250.5994 C235.21,263.0094 267.06,280.0794 297,289.6094 C354.78,307.9994 418.4491,315.7708 463.6891,319.3908 " fill="none" id="UC_SpeakB-to-API" style="stroke:#181818;stroke-width:1.0;stroke-dasharray:7.0,7.0;"/><polygon fill="#181818" points="469.67,319.8694,461.0177,315.1643,464.6859,319.4706,460.3796,323.1388,469.67,319.8694" style="stroke:#181818;stroke-width:1.0;"/><text fill="#000000" font-family="sans-serif" font-size="13" lengthAdjust="spacing" textLength="92" x="298" y="286.1045">translate B -&gt; A</text></g><!--link UC_SpeakA to UC_Save--><g id="link_UC_SpeakA_UC_Save"><path d="M251.51,104.5694 C302.11,110.2894 368.4379,117.8058 424.8179,124.1758 " fill="none" id="UC_SpeakA-to-UC_Save" style="stroke:#181818;stroke-width:1.0;stroke-dasharray:7.0,7.0;"/><polygon fill="#181818" points="430.78,124.8494,422.286,119.8642,425.8116,124.288,421.3878,127.8137,430.78,124.8494" style="stroke:#181818;stroke-width:1.0;"/><text fill="#000000" font-family="sans-serif" font-size="13" lengthAdjust="spacing" textLength="55" x="316.5" y="108.1045">&#171;include&#187;</text></g><!--link UC_SpeakB to UC_Save--><g id="link_UC_SpeakB_UC_Save"><path d="M231.08,222.9194 C288.89,205.0694 388.7373,174.2304 454.1573,154.0204 " fill="none" id="UC_SpeakB-to-UC_Save" style="stroke:#181818;stroke-width:1.0;stroke-dasharray:7.0,7.0;"/><polygon fill="#181818" points="459.89,152.2494,450.1103,151.0841,455.1128,153.7252,452.4716,158.7276,459.89,152.2494" style="stroke:#181818;stroke-width:1.0;"/><text fill="#000000" font-family="sans-serif" font-size="13" lengthAdjust="spacing" textLength="55" x="316.5" y="173.1045">&#171;include&#187;</text></g><!--link UC_Save to DB--><g id="link_UC_Save_DB"><path d="M615.14,134.6094 C677.88,134.6094 751.06,134.6094 800.76,134.6094 " fill="none" id="UC_Save-to-DB" style="stroke:#181818;stroke-width:1.0;stroke-dasharray:7.0,7.0;"/><polygon fill="#181818" points="806.76,134.6094,797.76,130.6094,801.76,134.6094,797.76,138.6094,806.76,134.6094" style="stroke:#181818;stroke-width:1.0;"/><text fill="#000000" font-family="sans-serif" font-size="13" lengthAdjust="spacing" textLength="128" x="648" y="131.1045">save conversation turn</text></g><!--SRC=[TP3DJiCm48JlVefLJd187w2g8ddJ2r8FI84pMfmbM5XEv9zoGBmxjcb24nLV8iz-dfrCqC4mF7k6bZpl0RNHTeXae1tjcPsde4ShXE6t0644fuVt0Brsh7u7fCBee4eE3cG5vBEPaoiT5nrd_ScHzQQOWtnyA43wpkCkJlIQ0i7T4U_By8X2vALaXnIu-ilPASTiA_WIa4xqhFAxgfkOFg3JFS-nsfUYoNyvN76uuJvfWXFbdGFxXKpgcfCnZ7L7PruLkF1f8Bw5A1r1NJTNiKe_AmqtN5ucbWUmspMvCzX3kBIP_XKIYmk4Do7CaDnQNU8byd3GLfdOSzDid6upOfOpSiGqzVcchWg049qLFm00]--></g></svg>