<?xml version="1.0" encoding="us-ascii" standalone="no"?><svg xmlns="http://www.w3.org/2000/svg" xmlns:xlink="http://www.w3.org/1999/xlink" contentStyleType="text/css" height="595px" preserveAspectRatio="none" style="width:885px;height:595px;background:#FFFFFF;" version="1.1" viewBox="0 0 885 595" width="885px" zoomAndPan="magnify"><defs/><g><text fill="#000000" font-family="sans-serif" font-size="14" font-weight="bold" lengthAdjust="spacing" textLength="270" x="300.5" y="24.5332">Use Case: Quick Phrases Management</text><!--cluster Phrases Screen--><g id="cluster_Phrases Screen"><rect fill="none" height="371" rx="2.5" ry="2.5" style="stroke:#181818;stroke-width:1.0;" width="547" x="82" y="45.6094"/><text fill="#000000" font-family="sans-serif" font-size="14" font-weight="bold" lengthAdjust="spacing" textLength="111" x="300" y="62.1426">Phrases Screen</text></g><g id="elem_UC_Browse"><ellipse cx="180.2256" cy="99.5545" fill="#F1F1F1" rx="75.2256" ry="17.4451" style="stroke:#181818;stroke-width:0.5;"/><text fill="#000000" font-family="sans-serif" font-size="14" lengthAdjust="spacing" textLength="102" x="126.2256" y="104.0711">Browse Phrases</text></g><g id="elem_UC_Filter"><ellipse cx="179.9202" cy="171.3934" fill="#F1F1F1" rx="81.9202" ry="18.784" style="stroke:#181818;stroke-width:0.5;"/><text fill="#000000" font-family="sans-serif" font-size="14" lengthAdjust="spacing" textLength="119" x="120.2512" y="175.1722">Filter by Language</text></g><g id="elem_UC_Translate"><ellipse cx="179.896" cy="243.5886" fill="#F1F1F1" rx="77.896" ry="17.9792" style="stroke:#181818;stroke-width:0.5;"/><text fill="#000000" font-family="sans-serif" font-size="14" lengthAdjust="spacing" textLength="109" x="123.4355" y="247.856">Translate Phrase</text></g><g id="elem_UC_Add"><ellipse cx="179.9763" cy="314.7046" fill="#F1F1F1" rx="75.9763" ry="17.5953" style="stroke:#181818;stroke-width:0.5;"/><text fill="#000000" font-family="sans-serif" font-size="14" lengthAdjust="spacing" textLength="104" x="125.0467" y="319.2051">Add New Phrase</text></g><g id="elem_UC_Delete"><ellipse cx="179.8567" cy="383.6807" fill="#F1F1F1" rx="70.8567" ry="16.5713" style="stroke:#181818;stroke-width:0.5;"/><text fill="#000000" font-family="sans-serif" font-size="14" lengthAdjust="spacing" textLength="90" x="131.8567" y="388.1973">Delete Phrase</text></g><g id="elem_UC_Detect"><ellipse cx="534.896" cy="213.5886" fill="#F1F1F1" rx="77.896" ry="17.9792" style="stroke:#181818;stroke-width:0.5;"/><text fill="#000000" font-family="sans-serif" font-size="14" lengthAdjust="spacing" textLength="109" x="478.4355" y="217.856">Detect Language</text></g><!--entity User--><g id="elem_User"><ellipse cx="20.5" cy="213.1094" fill="#F1F1F1" rx="8" ry="8" style="stroke:#181818;stroke-width:0.5;"/><path d="M20.5,221.1094 L20.5,248.1094 M7.5,229.1094 L33.5,229.1094 M20.5,248.1094 L7.5,263.1094 M20.5,248.1094 L33.5,263.1094 " fill="none" style="stroke:#181818;stroke-width:0.5;"/><text fill="#000000" font-family="sans-serif" font-size="14" lengthAdjust="spacing" textLength="29" x="6" y="279.1426">User</text></g><!--entity DB--><g id="elem_DB"><ellipse cx="535" cy="441.1094" fill="#F1F1F1" rx="8" ry="8" style="stroke:#181818;stroke-width:0.5;"/><path d="M535,449.1094 L535,476.1094 M522,457.1094 L548,457.1094 M535,476.1094 L522,491.1094 M535,476.1094 L548,491.1094 " fill="none" style="stroke:#181818;stroke-width:0.5;"/><text fill="#000000" font-family="sans-serif" font-size="14" lengthAdjust="spacing" textLength="97" x="486.5" y="507.1426">Supabase (DB)</text></g><!--entity API--><g id="elem_API"><ellipse cx="830" cy="256.1094" fill="#F1F1F1" rx="8" ry="8" style="stroke:#181818;stroke-width:0.5;"/><path d="M830,264.1094 L830,291.1094 M817,272.1094 L843,272.1094 M830,291.1094 L817,306.1094 M830,291.1094 L843,306.1094 " fill="none" style="stroke:#181818;stroke-width:0.5;"/><text fill="#000000" font-family="sans-serif" font-size="14" lengthAdjust="spacing" textLength="96" x="782" y="322.1426">Translation API</text></g><g id="elem_GMN23"><path d="M447,546.1094 L447,588.8125 L623,588.8125 L623,556.1094 L613,546.1094 L447,546.1094 " fill="#FEFFDD" style="stroke:#181818;stroke-width:0.5;"/><path d="M613,546.1094 L613,556.1094 L623,556.1094 L613,546.1094 " fill="#FEFFDD" style="stroke:#181818;stroke-width:1.0;"/><text fill="#000000" font-family="sans-serif" font-size="13" lengthAdjust="spacing" textLength="155" x="453" y="564.6045">Only User-created phrases</text><text fill="#000000" font-family="sans-serif" font-size="13" lengthAdjust="spacing" textLength="85" x="453" y="580.9561">can be deleted</text></g><!--link User to UC_Browse--><g id="link_User_UC_Browse"><path d="M31.87,204.5594 C39.88,181.3394 53.19,152.9294 74,134.6094 C86.98,123.1794 98.0916,117.2759 114.4616,112.0759 " fill="none" id="User-to-UC_Browse" style="stroke:#181818;stroke-width:1.0;"/><polygon fill="#181818" points="120.18,110.2594,110.3914,109.1718,115.4146,111.7731,112.8133,116.7964,120.18,110.2594" style="stroke:#181818;stroke-width:1.0;"/></g><!--link User to UC_Filter--><g id="link_User_UC_Filter"><path d="M35.12,232.7394 C45.36,224.9594 59.98,214.6594 74,207.6094 C90.79,199.1694 104.3207,193.8151 121.7007,188.0951 " fill="none" id="User-to-UC_Filter" style="stroke:#181818;stroke-width:1.0;"/><polygon fill="#181818" points="127.4,186.2194,117.6006,185.2334,122.6506,187.7825,120.1016,192.8325,127.4,186.2194" style="stroke:#181818;stroke-width:1.0;"/></g><!--link User to UC_Translate--><g id="link_User_UC_Translate"><path d="M35.2,243.6094 C50.39,243.6094 70.14,243.6094 95.69,243.6094 " fill="none" id="User-to-UC_Translate" style="stroke:#181818;stroke-width:1.0;"/><polygon fill="#181818" points="101.69,243.6094,92.69,239.6094,96.69,243.6094,92.69,247.6094,101.69,243.6094" style="stroke:#181818;stroke-width:1.0;"/></g><!--link User to UC_Add--><g id="link_User_UC_Add"><path d="M35.17,254.1494 C45.43,261.6994 60.06,271.7194 74,278.6094 C92.05,287.5294 107.151,293.3235 125.461,299.2435 " fill="none" id="User-to-UC_Add" style="stroke:#181818;stroke-width:1.0;"/><polygon fill="#181818" points="131.17,301.0894,123.837,294.5146,126.4125,299.5512,121.3759,302.1266,131.17,301.0894" style="stroke:#181818;stroke-width:1.0;"/></g><!--link User to UC_Delete--><g id="link_User_UC_Delete"><path d="M32.45,282.6894 C40.57,305.0994 53.79,332.1694 74,349.6094 C87.49,361.2494 99.292,367.1987 116.162,372.2487 " fill="none" id="User-to-UC_Delete" style="stroke:#181818;stroke-width:1.0;"/><polygon fill="#181818" points="121.91,373.9694,114.4351,367.5564,117.12,372.5355,112.1409,375.2204,121.91,373.9694" style="stroke:#181818;stroke-width:1.0;"/></g><!--link UC_Browse to DB--><g id="link_UC_Browse_DB"><path d="M230.82,112.5794 C242.48,117.7294 253.86,124.8394 262,134.6094 C299.97,180.1594 256.27,217.2794 292,264.6094 C330.23,315.2594 375.8,285.3494 417,333.6094 C442.47,363.4394 422.43,386.0294 447,416.6094 C457.52,429.6994 466.9111,437.5023 481.0811,446.0423 " fill="none" id="UC_Browse-to-DB" style="stroke:#181818;stroke-width:1.0;stroke-dasharray:7.0,7.0;"/><polygon fill="#181818" points="486.22,449.1394,480.5764,441.0678,481.9376,446.5585,476.447,447.9196,486.22,449.1394" style="stroke:#181818;stroke-width:1.0;"/><text fill="#000000" font-family="sans-serif" font-size="13" lengthAdjust="spacing" textLength="123" x="293" y="261.1045">fetch (generic + user)</text></g><!--link UC_Add to DB--><g id="link_UC_Add_DB"><path d="M217,329.9294 C238.61,338.9394 266.71,350.3494 292,359.6094 C346.9,379.7194 363.88,376.1694 417,400.6094 C430.92,407.0194 455.4371,421.8013 481.3771,438.0713 " fill="none" id="UC_Add-to-DB" style="stroke:#181818;stroke-width:1.0;stroke-dasharray:7.0,7.0;"/><polygon fill="#181818" points="486.46,441.2594,480.961,433.0886,482.2242,438.6026,476.7102,439.8659,486.46,441.2594" style="stroke:#181818;stroke-width:1.0;"/><text fill="#000000" font-family="sans-serif" font-size="13" lengthAdjust="spacing" textLength="32" x="338.5" y="356.1045">insert</text></g><!--link UC_Delete to DB--><g id="link_UC_Delete_DB"><path d="M217.09,397.7094 C238.61,405.7594 266.6,415.6094 292,422.6094 C358.54,440.9394 431.1848,454.5942 480.3248,462.9442 " fill="none" id="UC_Delete-to-DB" style="stroke:#181818;stroke-width:1.0;stroke-dasharray:7.0,7.0;"/><polygon fill="#181818" points="486.24,463.9494,478.0373,458.4982,481.3107,463.1118,476.6971,466.3852,486.24,463.9494" style="stroke:#181818;stroke-width:1.0;"/><text fill="#000000" font-family="sans-serif" font-size="13" lengthAdjust="spacing" textLength="41" x="334" y="419.1045">remove</text></g><!--link UC_Add to UC_Detect--><g id="link_UC_Add_UC_Detect"><path d="M224.08,300.2594 C237.06,294.7194 250.81,287.5294 262,278.6094 C279.38,264.7594 272.66,249.5594 292,238.6094 C344.01,209.1694 406.4639,204.4123 457.2939,206.2523 " fill="none" id="UC_Add-to-UC_Detect" style="stroke:#181818;stroke-width:1.0;stroke-dasharray:7.0,7.0;"/><polygon fill="#181818" points="463.29,206.4694,454.4406,202.1464,458.2933,206.2885,454.1512,210.1412,463.29,206.4694" style="stroke:#181818;stroke-width:1.0;"/><text fill="#000000" font-family="sans-serif" font-size="13" lengthAdjust="spacing" textLength="55" x="327" y="204.1045">&#171;include&#187;</text></g><!--link UC_Detect to API--><g id="link_UC_Detect_API"><path d="M588.72,226.7494 C643.59,240.4094 722.8979,260.1791 775.7279,273.3391 " fill="none" id="UC_Detect-to-API" style="stroke:#181818;stroke-width:1.0;stroke-dasharray:7.0,7.0;"/><polygon fill="#181818" points="781.55,274.7894,773.7837,268.7326,776.6983,273.5808,771.85,276.4953,781.55,274.7894" style="stroke:#181818;stroke-width:1.0;"/><text fill="#000000" font-family="sans-serif" font-size="13" lengthAdjust="spacing" textLength="97" x="654" y="240.1045">identify language</text></g><!--link UC_Translate to API--><g id="link_UC_Translate_API"><path d="M217.35,259.5994 C231.34,265.7894 247.44,272.9794 262,279.6094 C275.39,285.7094 277.64,290.4194 292,293.6094 C469.27,332.9394 681.6651,309.2608 775.9951,295.2508 " fill="none" id="UC_Translate-to-API" style="stroke:#181818;stroke-width:1.0;stroke-dasharray:7.0,7.0;"/><polygon fill="#181818" points="781.93,294.3694,772.44,291.735,776.9843,295.1039,773.6153,299.6482,781.93,294.3694" style="stroke:#181818;stroke-width:1.0;"/><text fill="#000000" font-family="sans-serif" font-size="13" lengthAdjust="spacing" textLength="50" x="510" y="307.1045">translate</text></g><!--link UC_Delete to GMN23--><g id="link_UC_Delete_GMN23"><path d="M202.01,399.3894 C223.83,415.3994 259.31,440.3594 292,458.6094 C358,495.4594 378.07,497.5894 447,528.6094 C459.53,534.2494 473.08,540.3294 485.67,545.9694 " fill="none" id="UC_Delete-GMN23" style="stroke:#181818;stroke-width:1.0;stroke-dasharray:7.0,7.0;"/></g><!--SRC=[PPBBQiCm44NtynM3Lmab-O0G37bGAFIHadPT56diY3foaEM6KFhl7LcM7uatmdUkZ- -CncbN47vMX1jHqGBVQos_SNUq_5RXYp0YfnCP1r1Gvj2LQ7L-TAYq9UbqQG24TAN5X1asGL5vc8tYlZwB0wDmibrFc-fs7MiVLfYg41w2gzrJK-KJm9E5oJbN4eFifIKo2Vu2ybDN93qqMTlomcVh2d_VV0Lrx7pKXIEBXoi-Cxhchg8xLCRk62sYexVJn_QLKlXAbnipgsFRbWgwGmRnrkXu17T9Wmn_07x4E9kbWsw7KjlIKEgJ3rKVSVZUXe4EY_DvobU62yp8oIDESZ9ajSG7dzPE8K1wcpOiE-XOVSNIgVm9xFX5rnENbqjjP54hIbFeTU_YdV1WnLkeioiMxLGQKdzHlTDrhO8fkH8Mjin6qtupnRNPr1bl5diLdiCISKqAWmT2rNWLa57eGV0F]--></g></svg>