<?xml version="1.0" encoding="us-ascii" standalone="no"?><svg xmlns="http://www.w3.org/2000/svg" xmlns:xlink="http://www.w3.org/1999/xlink" contentStyleType="text/css" height="451px" preserveAspectRatio="none" style="width:597px;height:451px;background:#FFFFFF;" version="1.1" viewBox="0 0 597 451" width="597px" zoomAndPan="magnify"><defs/><g><text fill="#000000" font-family="sans-serif" font-size="14" font-weight="bold" lengthAdjust="spacing" textLength="176" x="203.5" y="24.5332">Use Case: Authentication</text><!--cluster Authentication System--><g id="cluster_Authentication System"><rect fill="none" height="307" rx="2.5" ry="2.5" style="stroke:#181818;stroke-width:1.0;" width="509" x="82" y="45.6094"/><text fill="#000000" font-family="sans-serif" font-size="14" font-weight="bold" lengthAdjust="spacing" textLength="156" x="258.5" y="62.1426">Authentication System</text></g><g id="elem_UC_Login"><ellipse cx="188.105" cy="101.8304" fill="#F1F1F1" rx="89.105" ry="20.221" style="stroke:#181818;stroke-width:0.5;"/><text fill="#000000" font-family="sans-serif" font-size="14" lengthAdjust="spacing" textLength="136" x="120.105" y="105.5589">Login with Email/Pass</text></g><g id="elem_UC_Register"><ellipse cx="187.9659" cy="177.5025" fill="#F1F1F1" rx="89.9659" ry="20.3932" style="stroke:#181818;stroke-width:0.5;"/><text fill="#000000" font-family="sans-serif" font-size="14" lengthAdjust="spacing" textLength="138" x="118.9659" y="181.2311">Register New Account</text></g><g id="elem_UC_Guest"><ellipse cx="188.0075" cy="251.8109" fill="#F1F1F1" rx="81.5075" ry="18.7015" style="stroke:#181818;stroke-width:0.5;"/><text fill="#000000" font-family="sans-serif" font-size="14" lengthAdjust="spacing" textLength="118" x="128.6675" y="255.6398">Continue as Guest</text></g><g id="elem_UC_Logout"><ellipse cx="188.0997" cy="320.5616" fill="#F1F1F1" rx="42.5997" ry="15.4523" style="stroke:#181818;stroke-width:0.5;"/><text fill="#000000" font-family="sans-serif" font-size="14" lengthAdjust="spacing" textLength="44" x="165.8355" y="324.3732">Logout</text></g><g id="elem_UC_Validate"><ellipse cx="505.457" cy="140.4008" fill="#F1F1F1" rx="69.457" ry="16.2914" style="stroke:#181818;stroke-width:0.5;"/><text fill="#000000" font-family="sans-serif" font-size="14" lengthAdjust="spacing" textLength="86" x="459.457" y="144.9174">Validate Input</text></g><!--entity User--><g id="elem_User"><ellipse cx="20.5" cy="193.1094" fill="#F1F1F1" rx="8" ry="8" style="stroke:#181818;stroke-width:0.5;"/><path d="M20.5,201.1094 L20.5,228.1094 M7.5,209.1094 L33.5,209.1094 M20.5,228.1094 L7.5,243.1094 M20.5,228.1094 L33.5,243.1094 " fill="none" style="stroke:#181818;stroke-width:0.5;"/><text fill="#000000" font-family="sans-serif" font-size="14" lengthAdjust="spacing" textLength="29" x="6" y="259.1426">User</text></g><!--entity Supabase--><g id="elem_Supabase"><ellipse cx="505.5" cy="377.1094" fill="#F1F1F1" rx="8" ry="8" style="stroke:#181818;stroke-width:0.5;"/><path d="M505.5,385.1094 L505.5,412.1094 M492.5,393.1094 L518.5,393.1094 M505.5,412.1094 L492.5,427.1094 M505.5,412.1094 L518.5,427.1094 " fill="none" style="stroke:#181818;stroke-width:0.5;"/><text fill="#000000" font-family="sans-serif" font-size="14" lengthAdjust="spacing" textLength="107" x="452" y="443.1426">Supabase (Auth)</text></g><!--link User to UC_Login--><g id="link_User_UC_Login"><path d="M35.21,191.0094 C44.01,173.5994 56.99,153.0394 74,139.6094 C87.89,128.6394 99.422,122.6689 116.192,117.0389 " fill="none" id="User-to-UC_Login" style="stroke:#181818;stroke-width:1.0;"/><polygon fill="#181818" points="121.88,115.1294,112.0749,114.2017,117.14,116.7207,114.621,121.7857,121.88,115.1294" style="stroke:#181818;stroke-width:1.0;"/></g><!--link User to UC_Register--><g id="link_User_UC_Register"><path d="M35.12,218.5894 C43.65,215.5194 54.9,211.6294 65,208.6094 C84.37,202.8194 99.8516,198.6345 119.1516,193.7745 " fill="none" id="User-to-UC_Register" style="stroke:#181818;stroke-width:1.0;"/><polygon fill="#181818" points="124.97,192.3094,115.2657,190.6282,120.1214,193.5303,117.2192,198.386,124.97,192.3094" style="stroke:#181818;stroke-width:1.0;"/></g><!--link User to UC_Guest--><g id="link_User_UC_Guest"><path d="M35.04,225.8994 C54.03,229.1094 83.9441,234.1683 116.0341,239.5983 " fill="none" id="User-to-UC_Guest" style="stroke:#181818;stroke-width:1.0;"/><polygon fill="#181818" points="121.95,240.5994,113.7435,235.1539,117.0201,239.7652,112.4088,243.0418,121.95,240.5994" style="stroke:#181818;stroke-width:1.0;"/></g><!--link User to UC_Logout--><g id="link_User_UC_Logout"><path d="M35.17,246.4394 C44.51,260.2094 58.05,277.0694 74,287.6094 C96.17,302.2594 119.0768,309.3612 142.0468,313.9612 " fill="none" id="User-to-UC_Logout" style="stroke:#181818;stroke-width:1.0;"/><polygon fill="#181818" points="147.93,315.1394,139.8907,309.45,143.0273,314.1576,138.3198,317.2942,147.93,315.1394" style="stroke:#181818;stroke-width:1.0;"/></g><!--link UC_Login to Supabase--><g id="link_UC_Login_Supabase"><path d="M243.19,117.3494 C255.71,122.8794 268.21,130.1594 278,139.6094 C300.6,161.4294 289.76,178.0394 308,203.6094 C343.23,252.9894 369.09,250.4694 406,298.6094 C422.7,320.3994 418.3,331.6194 436,352.6094 C440.72,358.2094 441.6594,359.5825 447.2494,364.7125 " fill="none" id="UC_Login-to-Supabase" style="stroke:#181818;stroke-width:1.0;stroke-dasharray:7.0,7.0;"/><polygon fill="#181818" points="451.67,368.7694,447.7436,359.737,447.9861,365.3887,442.3345,365.6312,451.67,368.7694" style="stroke:#181818;stroke-width:1.0;"/><text fill="#000000" font-family="sans-serif" font-size="13" lengthAdjust="spacing" textLength="96" x="309" y="200.1045">verify credentials</text></g><!--link UC_Register to Supabase--><g id="link_UC_Register_Supabase"><path d="M246.6,193.3494 C258.28,198.7894 269.55,206.0294 278,215.6094 C310.1,252.0094 276.14,283.9994 308,320.6094 C345.23,363.3894 401.7061,384.5568 446.1761,395.8968 " fill="none" id="UC_Register-to-Supabase" style="stroke:#181818;stroke-width:1.0;stroke-dasharray:7.0,7.0;"/><polygon fill="#181818" points="451.99,397.3794,444.2575,391.2795,447.145,396.1439,442.2807,399.0315,451.99,397.3794" style="stroke:#181818;stroke-width:1.0;"/><text fill="#000000" font-family="sans-serif" font-size="13" lengthAdjust="spacing" textLength="65" x="324.5" y="317.1045">create user</text></g><!--link UC_Login to UC_Validate--><g id="link_UC_Login_UC_Validate"><path d="M266.58,111.1994 C321.14,117.9394 387.1554,126.1029 437.6054,132.3429 " fill="none" id="UC_Login-to-UC_Validate" style="stroke:#181818;stroke-width:1.0;stroke-dasharray:7.0,7.0;"/><polygon fill="#181818" points="443.56,133.0794,435.1191,128.0049,438.5978,132.4656,434.1371,135.9444,443.56,133.0794" style="stroke:#181818;stroke-width:1.0;"/><text fill="#000000" font-family="sans-serif" font-size="13" lengthAdjust="spacing" textLength="55" x="329.5" y="113.1045">&#171;include&#187;</text></g><!--link UC_Register to UC_Validate--><g id="link_UC_Register_UC_Validate"><path d="M278.14,177.9394 C317.53,176.9394 364.28,174.2094 406,167.6094 C425.27,164.5594 440.4049,160.8461 457.9749,155.6661 " fill="none" id="UC_Register-to-UC_Validate" style="stroke:#181818;stroke-width:1.0;stroke-dasharray:7.0,7.0;"/><polygon fill="#181818" points="463.73,153.9694,453.9662,152.6777,458.9341,155.3833,456.2285,160.3512,463.73,153.9694" style="stroke:#181818;stroke-width:1.0;"/><text fill="#000000" font-family="sans-serif" font-size="13" lengthAdjust="spacing" textLength="55" x="329.5" y="164.1045">&#171;include&#187;</text></g><!--SRC=[TP51QyCm38Nl_XKYf-tGxbvAe8Gn2cECbUqwF4TD1AvTR7cbZFttsGbEuvRvPkdfUyyo4sk4Tu_GI8yhs0JkqJ0foMID41ht36p1KTSpjEHGZGsfs3geugIhGFg4SBcu2qVv5N5mbt3tGp_NX4W8QRfeMvLki3jxnaC5FmBY2HvLWbJFjYC39-8U7W-IzCEhz7uqRJw7Pgb_muuYoC4Bdc2Zb0s6ipptoed6nX0cO18z1VIJVBZSfB61P_RnLYe-fAPMCiBM72_AN1M_GgHbmM9HNnumhqmPvyKnoTLWiXQP0SjbFQqPLl2DZlPdK0xRj6EflPZ1hzLHbYA7z8q5SHOzojPhCag75klwXlQ_yWy0]--></g></svg>