<?xml version="1.0" encoding="us-ascii" standalone="no"?><svg xmlns="http://www.w3.org/2000/svg" xmlns:xlink="http://www.w3.org/1999/xlink" contentStyleType="text/css" height="301px" preserveAspectRatio="none" style="width:1245px;height:301px;background:#FFFFFF;" version="1.1" viewBox="0 0 1245 301" width="1245px" zoomAndPan="magnify"><defs/><g><text fill="#000000" font-family="sans-serif" font-size="14" font-weight="bold" lengthAdjust="spacing" textLength="243" x="494" y="24.5332">Use Case: Image (OCR) Translation</text><!--cluster Image Screen--><g id="cluster_Image Screen"><rect fill="none" height="155" rx="2.5" ry="2.5" style="stroke:#181818;stroke-width:1.0;" width="1157" x="82" y="45.6094"/><text fill="#000000" font-family="sans-serif" font-size="14" font-weight="bold" lengthAdjust="spacing" textLength="96" x="612.5" y="62.1426">Image Screen</text></g><g id="elem_UC_Photo"><ellipse cx="174.8631" cy="97.7183" fill="#F1F1F1" rx="63.8631" ry="15.609" style="stroke:#181818;stroke-width:0.5;"/><text fill="#000000" font-family="sans-serif" font-size="14" lengthAdjust="spacing" textLength="73" x="135.3631" y="102.2349">Take Photo</text></g><g id="elem_UC_Gallery"><ellipse cx="175.1203" cy="166.4334" fill="#F1F1F1" rx="77.1203" ry="17.8241" style="stroke:#181818;stroke-width:0.5;"/><text fill="#000000" font-family="sans-serif" font-size="14" lengthAdjust="spacing" textLength="107" x="119.2783" y="170.795">Pick from Gallery</text></g><g id="elem_UC_Extract"><ellipse cx="527.602" cy="164.723" fill="#F1F1F1" rx="64.602" ry="15.6136" style="stroke:#181818;stroke-width:0.5;"/><text fill="#000000" font-family="sans-serif" font-size="14" lengthAdjust="spacing" textLength="74" x="487.602" y="169.2396">Extract Text</text></g><g id="elem_UC_Translate"><ellipse cx="817.9525" cy="161.3999" fill="#F1F1F1" rx="96.9525" ry="21.7905" style="stroke:#181818;stroke-width:0.5;"/><text fill="#000000" font-family="sans-serif" font-size="14" lengthAdjust="spacing" textLength="154" x="740.9525" y="165.1284">Translate Extracted Text</text></g><g id="elem_UC_Result"><ellipse cx="1137.8478" cy="161.4789" fill="#F1F1F1" rx="84.8478" ry="19.3696" style="stroke:#181818;stroke-width:0.5;"/><text fill="#000000" font-family="sans-serif" font-size="14" lengthAdjust="spacing" textLength="126" x="1074.8478" y="165.2075">View Overlay/Result</text></g><!--entity User--><g id="elem_User"><ellipse cx="20.5" cy="102.1094" fill="#F1F1F1" rx="8" ry="8" style="stroke:#181818;stroke-width:0.5;"/><path d="M20.5,110.1094 L20.5,137.1094 M7.5,118.1094 L33.5,118.1094 M20.5,137.1094 L7.5,152.1094 M20.5,137.1094 L33.5,152.1094 " fill="none" style="stroke:#181818;stroke-width:0.5;"/><text fill="#000000" font-family="sans-serif" font-size="14" lengthAdjust="spacing" textLength="29" x="6" y="168.1426">User</text></g><!--entity Phone--><g id="elem_Phone"><ellipse cx="527.5" cy="225.1094" fill="#F1F1F1" rx="8" ry="8" style="stroke:#181818;stroke-width:0.5;"/><path d="M527.5,233.1094 L527.5,260.1094 M514.5,241.1094 L540.5,241.1094 M527.5,260.1094 L514.5,275.1094 M527.5,260.1094 L540.5,275.1094 " fill="none" style="stroke:#181818;stroke-width:0.5;"/><text fill="#000000" font-family="sans-serif" font-size="14" lengthAdjust="spacing" textLength="107" x="474" y="291.1426">Camera / Gallery</text></g><!--entity OCR--><g id="elem_OCR"><ellipse cx="818" cy="227.1094" fill="#F1F1F1" rx="8" ry="8" style="stroke:#181818;stroke-width:0.5;"/><path d="M818,235.1094 L818,262.1094 M805,243.1094 L831,243.1094 M818,262.1094 L805,277.1094 M818,262.1094 L831,277.1094 " fill="none" style="stroke:#181818;stroke-width:0.5;"/><text fill="#000000" font-family="sans-serif" font-size="14" lengthAdjust="spacing" textLength="56" x="790" y="293.1426">OCR API</text></g><!--entity TransAPI--><g id="elem_TransAPI"><ellipse cx="1138" cy="225.1094" fill="#F1F1F1" rx="8" ry="8" style="stroke:#181818;stroke-width:0.5;"/><path d="M1138,233.1094 L1138,260.1094 M1125,241.1094 L1151,241.1094 M1138,260.1094 L1125,275.1094 M1138,260.1094 L1151,275.1094 " fill="none" style="stroke:#181818;stroke-width:0.5;"/><text fill="#000000" font-family="sans-serif" font-size="14" lengthAdjust="spacing" textLength="96" x="1090" y="291.1426">Translation API</text></g><!--link User to UC_Photo--><g id="link_User_UC_Photo"><path d="M35.03,129.4994 C55.66,124.7694 90.0919,116.8609 122.0019,109.5409 " fill="none" id="User-to-UC_Photo" style="stroke:#181818;stroke-width:1.0;"/><polygon fill="#181818" points="127.85,108.1994,118.1835,106.3129,122.9766,109.3173,119.9722,114.1104,127.85,108.1994" style="stroke:#181818;stroke-width:1.0;"/></g><!--link User to UC_Gallery--><g id="link_User_UC_Gallery"><path d="M35.03,135.6294 C53.69,139.7894 82.584,146.2226 112.654,152.9326 " fill="none" id="User-to-UC_Gallery" style="stroke:#181818;stroke-width:1.0;"/><polygon fill="#181818" points="118.51,154.2394,110.5972,148.3753,113.63,153.1504,108.8549,156.1833,118.51,154.2394" style="stroke:#181818;stroke-width:1.0;"/></g><!--link UC_Photo to Phone--><g id="link_UC_Photo_Phone"><path d="M215.04,109.7594 C227.67,114.8994 241.2,121.7794 252,130.6094 C270.04,145.3594 263.35,159.6494 282,173.6094 C297.73,185.3794 401.0582,217.8082 468.0982,238.1382 " fill="none" id="UC_Photo-to-Phone" style="stroke:#181818;stroke-width:1.0;stroke-dasharray:7.0,7.0;"/><polygon fill="#181818" points="473.84,239.8794,466.3881,233.4397,469.0552,238.4284,464.0665,241.0954,473.84,239.8794" style="stroke:#181818;stroke-width:1.0;"/><text fill="#000000" font-family="sans-serif" font-size="13" lengthAdjust="spacing" textLength="149" x="283" y="170.1045">request permission/image</text></g><!--link UC_Gallery to Phone--><g id="link_UC_Gallery_Phone"><path d="M191.02,184.5694 C209.8,205.4794 244.11,238.9094 282,252.6094 C344.88,275.3394 416.9789,272.0038 467.7389,265.4838 " fill="none" id="UC_Gallery-to-Phone" style="stroke:#181818;stroke-width:1.0;stroke-dasharray:7.0,7.0;"/><polygon fill="#181818" points="473.69,264.7194,464.2537,261.8986,468.7307,265.3564,465.2729,269.8334,473.69,264.7194" style="stroke:#181818;stroke-width:1.0;"/><text fill="#000000" font-family="sans-serif" font-size="13" lengthAdjust="spacing" textLength="82" x="316.5" y="249.1045">request image</text></g><!--link UC_Photo to UC_Extract--><g id="link_UC_Photo_UC_Extract"><path d="M225.85,107.1394 C292.47,119.8694 403.9668,141.1825 470.6468,153.9325 " fill="none" id="UC_Photo-to-UC_Extract" style="stroke:#181818;stroke-width:1.0;"/><polygon fill="#181818" points="476.54,155.0594,468.4514,149.4403,471.629,154.1203,466.9489,157.2979,476.54,155.0594" style="stroke:#181818;stroke-width:1.0;"/></g><!--link UC_Gallery to UC_Extract--><g id="link_UC_Gallery_UC_Extract"><path d="M252.05,166.1794 C315.07,165.8194 397.6101,165.3438 456.9101,165.0038 " fill="none" id="UC_Gallery-to-UC_Extract" style="stroke:#181818;stroke-width:1.0;"/><polygon fill="#181818" points="462.91,164.9694,453.8872,161.021,457.9101,164.998,453.9331,169.0209,462.91,164.9694" style="stroke:#181818;stroke-width:1.0;"/></g><!--link UC_Extract to OCR--><g id="link_UC_Extract_OCR"><path d="M566.81,176.9594 C625.98,196.0294 732.4194,230.3485 784.0394,246.9885 " fill="none" id="UC_Extract-to-OCR" style="stroke:#181818;stroke-width:1.0;stroke-dasharray:7.0,7.0;"/><polygon fill="#181818" points="789.75,248.8294,782.4113,242.261,784.9911,247.2953,779.9568,249.8752,789.75,248.8294" style="stroke:#181818;stroke-width:1.0;"/><text fill="#000000" font-family="sans-serif" font-size="13" lengthAdjust="spacing" textLength="67" x="623" y="194.1045">send image</text></g><!--link UC_Extract to UC_Translate--><g id="link_UC_Extract_UC_Translate"><path d="M592.17,163.9494 C629.92,163.5594 672.5103,163.1117 714.8603,162.6717 " fill="none" id="UC_Extract-to-UC_Translate" style="stroke:#181818;stroke-width:1.0;"/><polygon fill="#181818" points="720.86,162.6094,711.8189,158.7031,715.8603,162.6613,711.902,166.7027,720.86,162.6094" style="stroke:#181818;stroke-width:1.0;"/></g><!--link UC_Translate to TransAPI--><g id="link_UC_Translate_TransAPI"><path d="M877.7,178.9594 C938.71,196.9994 1027.2862,223.1784 1083.7762,239.8784 " fill="none" id="UC_Translate-to-TransAPI" style="stroke:#181818;stroke-width:1.0;stroke-dasharray:7.0,7.0;"/><polygon fill="#181818" points="1089.53,241.5794,1082.0332,235.192,1084.7351,240.1619,1079.7653,242.8638,1089.53,241.5794" style="stroke:#181818;stroke-width:1.0;"/><text fill="#000000" font-family="sans-serif" font-size="13" lengthAdjust="spacing" textLength="76" x="946" y="197.1045">translate text</text></g><!--link UC_Translate to UC_Result--><g id="link_UC_Translate_UC_Result"><path d="M915.27,161.6094 C959.15,161.6094 1004.61,161.6094 1046.9,161.6094 " fill="none" id="UC_Translate-to-UC_Result" style="stroke:#181818;stroke-width:1.0;"/><polygon fill="#181818" points="1052.9,161.6094,1043.9,157.6094,1047.9,161.6094,1043.9,165.6094,1052.9,161.6094" style="stroke:#181818;stroke-width:1.0;"/></g><!--SRC=[RL8xRy8m4DxzApvbQWTWpu1KHLN51AAqQsM50ooSX9ulBQZgVw-Js7cWPihTzxgxH8nOmfiZPDfHYbMXZuI7TRPzn8vrwQmMKvLAMJe8f0ARuqcmDqnv1-XSAaRYBJY1TeqNnsQc2sAD1LwqjSItbh0vLIL5XW_2qsRL0luzjaVHFTpsVA5KawtBenyywUPzpPceJF2Zu9_QKUwNyIxwJ4sSLDrasKTRJ4aRavznuAgO3EcvePoodw_2VaRiw2gH67ftsM43Ge1fFn7r-5JsRkWRwozYgs-BBRdQzegkKhzADIV6RBOSDXftujmgefZFbztLaOBfioOdk10NnZb_u8LfRgW6vR_yZZHuXh2u-qXzXwZXlJLkldWAH-KUVN34WtIupRXerV4dy1RI0-BlEgK6et2oFm00]--></g></svg>