<?xml version="1.0" encoding="us-ascii" standalone="no"?><svg xmlns="http://www.w3.org/2000/svg" xmlns:xlink="http://www.w3.org/1999/xlink" contentStyleType="text/css" height="532px" preserveAspectRatio="none" style="width:1176px;height:532px;background:#FFFFFF;" version="1.1" viewBox="0 0 1176 532" width="1176px" zoomAndPan="magnify"><defs/><g><text fill="#000000" font-family="sans-serif" font-size="14" font-weight="bold" lengthAdjust="spacing" textLength="243" x="459.5" y="24.5332">Use Case: Voice &amp; Text Translation</text><!--cluster Translation Screen--><g id="cluster_Translation Screen"><rect fill="none" height="388" rx="2.5" ry="2.5" style="stroke:#181818;stroke-width:1.0;" width="870" x="82" y="45.6094"/><text fill="#000000" font-family="sans-serif" font-size="14" font-weight="bold" lengthAdjust="spacing" textLength="132" x="451" y="62.1426">Translation Screen</text></g><g id="elem_UC_InputText"><ellipse cx="197.9267" cy="101.3947" fill="#F1F1F1" rx="84.4267" ry="19.2853" style="stroke:#181818;stroke-width:0.5;"/><text fill="#000000" font-family="sans-serif" font-size="14" lengthAdjust="spacing" textLength="125" x="135.4267" y="105.1232">Enter Text Manually</text></g><g id="elem_UC_InputVoice"><ellipse cx="198.0583" cy="178.521" fill="#F1F1F1" rx="100.0583" ry="22.4117" style="stroke:#181818;stroke-width:0.5;"/><text fill="#000000" font-family="sans-serif" font-size="14" lengthAdjust="spacing" textLength="161" x="117.5583" y="182.2496">Speak to Translate (STT)</text></g><g id="elem_UC_SelectLang"><ellipse cx="197.8789" cy="254.4852" fill="#F1F1F1" rx="79.8789" ry="18.3758" style="stroke:#181818;stroke-width:0.5;"/><text fill="#000000" font-family="sans-serif" font-size="14" lengthAdjust="spacing" textLength="114" x="139.8373" y="258.5118">Select Languages</text></g><g id="elem_UC_View"><ellipse cx="496.9763" cy="178.7046" fill="#F1F1F1" rx="75.9763" ry="17.5953" style="stroke:#181818;stroke-width:0.5;"/><text fill="#000000" font-family="sans-serif" font-size="14" lengthAdjust="spacing" textLength="104" x="442.0467" y="183.2051">View Translation</text></g><g id="elem_UC_Play"><ellipse cx="198.0069" cy="326.5108" fill="#F1F1F1" rx="77.5069" ry="17.9014" style="stroke:#181818;stroke-width:0.5;"/><text fill="#000000" font-family="sans-serif" font-size="14" lengthAdjust="spacing" textLength="108" x="141.8567" y="330.8254">Play Audio (TTS)</text></g><g id="elem_UC_Copy"><ellipse cx="197.8789" cy="398.4852" fill="#F1F1F1" rx="79.8789" ry="18.3758" style="stroke:#181818;stroke-width:0.5;"/><text fill="#000000" font-family="sans-serif" font-size="14" lengthAdjust="spacing" textLength="114" x="139.8373" y="402.5118">Copy to Clipboard</text></g><g id="elem_UC_Save"><ellipse cx="850.1163" cy="178.7326" fill="#F1F1F1" rx="86.1163" ry="19.6233" style="stroke:#181818;stroke-width:0.5;"/><text fill="#000000" font-family="sans-serif" font-size="14" lengthAdjust="spacing" textLength="129" x="785.6163" y="182.4611">Auto-Save to History</text></g><!--entity User--><g id="elem_User"><ellipse cx="20.5" cy="224.1094" fill="#F1F1F1" rx="8" ry="8" style="stroke:#181818;stroke-width:0.5;"/><path d="M20.5,232.1094 L20.5,259.1094 M7.5,240.1094 L33.5,240.1094 M20.5,259.1094 L7.5,274.1094 M20.5,259.1094 L33.5,274.1094 " fill="none" style="stroke:#181818;stroke-width:0.5;"/><text fill="#000000" font-family="sans-serif" font-size="14" lengthAdjust="spacing" textLength="29" x="6" y="290.1426">User</text></g><!--entity API--><g id="elem_API"><ellipse cx="850" cy="458.1094" fill="#F1F1F1" rx="8" ry="8" style="stroke:#181818;stroke-width:0.5;"/><path d="M850,466.1094 L850,493.1094 M837,474.1094 L863,474.1094 M850,493.1094 L837,508.1094 M850,493.1094 L863,508.1094 " fill="none" style="stroke:#181818;stroke-width:0.5;"/><text fill="#000000" font-family="sans-serif" font-size="14" lengthAdjust="spacing" textLength="96" x="802" y="524.1426">Translation API</text></g><!--entity TTS--><g id="elem_TTS"><ellipse cx="497" cy="458.1094" fill="#F1F1F1" rx="8" ry="8" style="stroke:#181818;stroke-width:0.5;"/><path d="M497,466.1094 L497,493.1094 M484,474.1094 L510,474.1094 M497,493.1094 L484,508.1094 M497,493.1094 L510,508.1094 " fill="none" style="stroke:#181818;stroke-width:0.5;"/><text fill="#000000" font-family="sans-serif" font-size="14" lengthAdjust="spacing" textLength="124" x="435" y="524.1426">Expo Speech (TTS)</text></g><!--entity DB--><g id="elem_DB"><ellipse cx="1120.5" cy="148.1094" fill="#F1F1F1" rx="8" ry="8" style="stroke:#181818;stroke-width:0.5;"/><path d="M1120.5,156.1094 L1120.5,183.1094 M1107.5,164.1094 L1133.5,164.1094 M1120.5,183.1094 L1107.5,198.1094 M1120.5,183.1094 L1133.5,198.1094 " fill="none" style="stroke:#181818;stroke-width:0.5;"/><text fill="#000000" font-family="sans-serif" font-size="14" lengthAdjust="spacing" textLength="97" x="1072" y="214.1426">Supabase (DB)</text></g><!--link User to UC_InputText--><g id="link_User_UC_InputText"><path d="M30.3,215.3694 C37.88,190.1394 51.3,158.4794 74,138.6094 C88.6,125.8294 101.7253,119.1676 120.2953,113.6876 " fill="none" id="User-to-UC_InputText" style="stroke:#181818;stroke-width:1.0;"/><polygon fill="#181818" points="126.05,111.9894,116.2859,110.7002,121.2544,113.4045,118.5501,118.3731,126.05,111.9894" style="stroke:#181818;stroke-width:1.0;"/></g><!--link User to UC_InputVoice--><g id="link_User_UC_InputVoice"><path d="M35.09,243.6794 C45.31,235.8594 59.92,225.5494 74,218.6094 C92.43,209.5294 107.6813,203.6449 127.0213,197.5049 " fill="none" id="User-to-UC_InputVoice" style="stroke:#181818;stroke-width:1.0;"/><polygon fill="#181818" points="132.74,195.6894,122.9515,194.6002,127.9744,197.2023,125.3723,202.2252,132.74,195.6894" style="stroke:#181818;stroke-width:1.0;"/></g><!--link User to UC_SelectLang--><g id="link_User_UC_SelectLang"><path d="M35.27,254.6094 C53.29,254.6094 80.29,254.6094 111.81,254.6094 " fill="none" id="User-to-UC_SelectLang" style="stroke:#181818;stroke-width:1.0;"/><polygon fill="#181818" points="117.81,254.6094,108.81,250.6094,112.81,254.6094,108.81,258.6094,117.81,254.6094" style="stroke:#181818;stroke-width:1.0;"/></g><!--link User to UC_Play--><g id="link_User_UC_Play"><path d="M35.03,265.6694 C45.22,273.5394 59.82,283.8794 74,290.6094 C95.11,300.6194 113.795,306.9244 135.335,312.7044 " fill="none" id="User-to-UC_Play" style="stroke:#181818;stroke-width:1.0;"/><polygon fill="#181818" points="141.13,314.2594,133.4742,308.0635,136.3008,312.9635,131.4008,315.7902,141.13,314.2594" style="stroke:#181818;stroke-width:1.0;"/></g><!--link User to UC_Copy--><g id="link_User_UC_Copy"><path d="M32.04,293.6894 C40.06,316.4694 53.33,344.0794 74,361.6094 C89.65,374.8794 104.1507,381.777 123.7207,387.237 " fill="none" id="User-to-UC_Copy" style="stroke:#181818;stroke-width:1.0;"/><polygon fill="#181818" points="129.5,388.8494,121.906,382.5779,124.6839,387.5057,119.7561,390.2836,129.5,388.8494" style="stroke:#181818;stroke-width:1.0;"/></g><!--link UC_InputVoice to UC_View--><g id="link_UC_InputVoice_UC_View"><path d="M298.31,178.6094 C338.28,178.6094 377.6,178.6094 414.76,178.6094 " fill="none" id="UC_InputVoice-to-UC_View" style="stroke:#181818;stroke-width:1.0;stroke-dasharray:7.0,7.0;"/><polygon fill="#181818" points="420.76,178.6094,411.76,174.6094,415.76,178.6094,411.76,182.6094,420.76,178.6094" style="stroke:#181818;stroke-width:1.0;"/><text fill="#000000" font-family="sans-serif" font-size="13" lengthAdjust="spacing" textLength="46" x="336.5" y="175.1045">leads to</text></g><!--link UC_InputText to UC_View--><g id="link_UC_InputText_UC_View"><path d="M254.86,116.0894 C309.81,130.3394 387.1219,150.3841 440.0219,164.0941 " fill="none" id="UC_InputText-to-UC_View" style="stroke:#181818;stroke-width:1.0;stroke-dasharray:7.0,7.0;"/><polygon fill="#181818" points="445.83,165.5994,438.1214,159.4694,440.9899,164.345,436.1143,167.2135,445.83,165.5994" style="stroke:#181818;stroke-width:1.0;"/><text fill="#000000" font-family="sans-serif" font-size="13" lengthAdjust="spacing" textLength="46" x="336.5" y="132.1045">leads to</text></g><!--link UC_View to API--><g id="link_UC_View_API"><path d="M513.8,195.8794 C553.51,238.7894 661.65,352.6394 764,433.6094 C775.72,442.8794 783.9825,448.8 796.5325,456.92 " fill="none" id="UC_View-to-API" style="stroke:#181818;stroke-width:1.0;stroke-dasharray:7.0,7.0;"/><polygon fill="#181818" points="801.57,460.1794,796.1866,451.932,797.3721,457.4633,791.8408,458.6487,801.57,460.1794" style="stroke:#181818;stroke-width:1.0;"/><text fill="#000000" font-family="sans-serif" font-size="13" lengthAdjust="spacing" textLength="103" x="617" y="290.1045">detect &amp; translate</text></g><!--link UC_Play to TTS--><g id="link_UC_Play_TTS"><path d="M245.21,341.0694 C262.15,346.9794 281.27,354.3694 298,362.6094 C348.8,387.6394 397.873,419.2196 436.633,445.9896 " fill="none" id="UC_Play-to-TTS" style="stroke:#181818;stroke-width:1.0;stroke-dasharray:7.0,7.0;"/><polygon fill="#181818" points="441.57,449.3994,436.4377,440.9934,437.4559,446.5579,431.8914,447.576,441.57,449.3994" style="stroke:#181818;stroke-width:1.0;"/><text fill="#000000" font-family="sans-serif" font-size="13" lengthAdjust="spacing" textLength="61" x="329" y="377.1045">speak text</text></g><!--link UC_View to UC_Save--><g id="link_UC_View_UC_Save"><path d="M573.3,178.6094 C629.3,178.6094 699.77,178.6094 757.97,178.6094 " fill="none" id="UC_View-to-UC_Save" style="stroke:#181818;stroke-width:1.0;stroke-dasharray:7.0,7.0;"/><polygon fill="#181818" points="763.97,178.6094,754.97,174.6094,758.97,178.6094,754.97,182.6094,763.97,178.6094" style="stroke:#181818;stroke-width:1.0;"/><text fill="#000000" font-family="sans-serif" font-size="13" lengthAdjust="spacing" textLength="129" x="604" y="175.1045">&#171;include&#187; (if logged in)</text></g><!--link UC_Save to DB--><g id="link_UC_Save_DB"><path d="M936.32,178.6094 C981.16,178.6094 1028.44,178.6094 1065.94,178.6094 " fill="none" id="UC_Save-to-DB" style="stroke:#181818;stroke-width:1.0;stroke-dasharray:7.0,7.0;"/><polygon fill="#181818" points="1071.94,178.6094,1062.94,174.6094,1066.94,178.6094,1062.94,182.6094,1071.94,178.6094" style="stroke:#181818;stroke-width:1.0;"/><text fill="#000000" font-family="sans-serif" font-size="13" lengthAdjust="spacing" textLength="72" x="969" y="175.1045">insert record</text></g><!--SRC=[TPB1QiCm38RlVWhHGsaFxGEK4cZJmWeR59BrEhn4JSsC7MndQnbxzqb9FUADvPBmwvFywtU22XhXsIFaqkCAJbPL25CeyHgWTD9uBOEoHWYDvm31WbFD9K2j75P3GLR1EfZG33S1wNcOY-9e0coEXxvExrZUNriBHOjONM1MbiMy1-WZ0aNNobSo1hFTTYZkjaBmqT8qP3mveAWSefd0fm1wEeyLTqxs9g0R5dgIffDQtmQV-Sl1j5tWIjf1ZkGRxngdq_b5MSwJjZwfNtseoHayahTEDkWZF-Wif_n9uSSuvCYpdf97BM-mwMfbHpaHoNfAvhQziVLSg_RLIbT7b0ifkkc2NHJo7Pb_K9uI_qc6PV4b15ycB1PPcjOVTGXZB8zs7ikzuR7GsnB975WkinW3h42Zh3rP56CB_p4YQbodFurgDGQ-bIc4U9lYRgI7A4w2_73bl5mouXu54UkrCfNkQimocAapQDiqM8CoSn4XRjXjYLM6DWn0_wbrjVW6]--></g></svg>