<?xml version="1.0" encoding="us-ascii" standalone="no"?><svg xmlns="http://www.w3.org/2000/svg" xmlns:xlink="http://www.w3.org/1999/xlink" contentStyleType="text/css" height="628px" preserveAspectRatio="none" style="width:1345px;height:628px;background:#FFFFFF;" version="1.1" viewBox="0 0 1345 628" width="1345px" zoomAndPan="magnify"><defs/><g><text fill="#000000" font-family="Inter" font-size="14" font-weight="bold" lengthAdjust="spacing" textLength="211" x="560" y="24.5332">React Native App Architecture</text><!--cluster app (Screens)--><g id="cluster_app (Screens)"><path d="M208.5,44.6094 L307.5,44.6094 A3.75,3.75 0 0 1 310,47.1094 L317,68.2188 L1102.5,68.2188 A2.5,2.5 0 0 1 1105,70.7188 L1105,195.1094 A2.5,2.5 0 0 1 1102.5,197.6094 L208.5,197.6094 A2.5,2.5 0 0 1 206,195.1094 L206,47.1094 A2.5,2.5 0 0 1 208.5,44.6094 " fill="#F8F8F8" style="stroke:#000000;stroke-width:1.5;"/><line style="stroke:#000000;stroke-width:1.5;" x1="206" x2="317" y1="68.2188" y2="68.2188"/><text fill="#000000" font-family="Inter" font-size="14" font-weight="bold" lengthAdjust="spacing" textLength="98" x="210" y="61.1426">app (Screens)</text></g><!--cluster src/context (State & Logic)--><g id="cluster_src/context (State &amp; Logic)"><path d="M134.5,221.6094 L320.5,221.6094 A3.75,3.75 0 0 1 323,224.1094 L330,245.2188 L1335.5,245.2188 A2.5,2.5 0 0 1 1338,247.7188 L1338,389.1094 A2.5,2.5 0 0 1 1335.5,391.6094 L134.5,391.6094 A2.5,2.5 0 0 1 132,389.1094 L132,224.1094 A2.5,2.5 0 0 1 134.5,221.6094 " fill="#F8F8F8" style="stroke:#000000;stroke-width:1.5;"/><line style="stroke:#000000;stroke-width:1.5;" x1="132" x2="330" y1="245.2188" y2="245.2188"/><text fill="#000000" font-family="Inter" font-size="14" font-weight="bold" lengthAdjust="spacing" textLength="185" x="136" y="238.1426">src/context (State &amp; Logic)</text></g><!--cluster src/api (Services)--><g id="cluster_src/api (Services)"><path d="M8.5,442.1094 L132.5,442.1094 A3.75,3.75 0 0 1 135,444.6094 L142,465.7188 L493.5,465.7188 A2.5,2.5 0 0 1 496,468.2188 L496,592.6094 A2.5,2.5 0 0 1 493.5,595.1094 L8.5,595.1094 A2.5,2.5 0 0 1 6,592.6094 L6,444.6094 A2.5,2.5 0 0 1 8.5,442.1094 " fill="#F8F8F8" style="stroke:#000000;stroke-width:1.5;"/><line style="stroke:#000000;stroke-width:1.5;" x1="6" x2="142" y1="465.7188" y2="465.7188"/><text fill="#000000" font-family="Inter" font-size="14" font-weight="bold" lengthAdjust="spacing" textLength="123" x="10" y="458.6426">src/api (Services)</text></g><!--cluster src/types (Domain Model)--><g id="cluster_src/types (Domain Model)"><path d="M522.5,415.6094 L701.5,415.6094 A3.75,3.75 0 0 1 704,418.1094 L711,439.2188 L1295.5,439.2188 A2.5,2.5 0 0 1 1298,441.7188 L1298,619.1094 A2.5,2.5 0 0 1 1295.5,621.6094 L522.5,621.6094 A2.5,2.5 0 0 1 520,619.1094 L520,418.1094 A2.5,2.5 0 0 1 522.5,415.6094 " fill="#F8F8F8" style="stroke:#000000;stroke-width:1.5;"/><line style="stroke:#000000;stroke-width:1.5;" x1="520" x2="711" y1="439.2188" y2="439.2188"/><text fill="#000000" font-family="Inter" font-size="14" font-weight="bold" lengthAdjust="spacing" textLength="178" x="524" y="432.1426">src/types (Domain Model)</text></g><!--class TranslationScreen--><g id="elem_TranslationScreen"><rect codeLine="8" fill="#F1F1F1" height="83.2188" id="TranslationScreen" rx="2.5" ry="2.5" style="stroke:#181818;stroke-width:0.5;" width="174" x="754" y="89.6094"/><ellipse cx="780.7" cy="105.6094" fill="#ADD1B2" rx="11" ry="11" style="stroke:#181818;stroke-width:1.0;"/><path d="M783.4656,101.4844 Q783.6219,101.2656 783.8094,101.1563 Q783.9969,101.0469 784.2156,101.0469 Q784.5906,101.0469 784.825,101.3125 Q785.0594,101.5625 785.0594,102.1719 L785.0594,103.625 Q785.0594,104.2344 784.825,104.5 Q784.5906,104.7656 784.2156,104.7656 Q783.8719,104.7656 783.6688,104.5625 Q783.4656,104.375 783.3563,103.8594 Q783.3094,103.5 783.1219,103.3125 Q782.7938,102.9375 782.1844,102.7188 Q781.575,102.5 780.95,102.5 Q780.1844,102.5 779.5438,102.8281 Q778.9188,103.1563 778.4188,103.9063 Q777.9344,104.6563 777.9344,105.6875 L777.9344,106.7813 Q777.9344,108.0156 778.825,108.8438 Q779.7156,109.6563 781.3094,109.6563 Q782.2469,109.6563 782.9031,109.4063 Q783.2938,109.25 783.7156,108.8125 Q783.9813,108.5469 784.1219,108.4688 Q784.2781,108.3906 784.4813,108.3906 Q784.8094,108.3906 785.0594,108.6563 Q785.325,108.9063 785.325,109.25 Q785.325,109.5938 784.9813,110 Q784.4813,110.5781 783.6844,110.9063 Q782.6063,111.3594 781.3094,111.3594 Q779.7938,111.3594 778.5906,110.7344 Q777.6063,110.2344 776.9188,109.1719 Q776.2313,108.0938 776.2313,106.8125 L776.2313,105.6563 Q776.2313,104.3281 776.8406,103.1875 Q777.4656,102.0313 778.5594,101.4219 Q779.6531,100.7969 780.8875,100.7969 Q781.6219,100.7969 782.2625,100.9688 Q782.9188,101.125 783.4656,101.4844 Z " fill="#000000"/><text fill="#000000" font-family="Inter" font-size="14" lengthAdjust="spacing" textLength="116" x="797.3" y="111.3379">TranslationScreen</text><line style="stroke:#181818;stroke-width:0.5;" x1="755" x2="927" y1="121.6094" y2="121.6094"/><line style="stroke:#181818;stroke-width:0.5;" x1="755" x2="927" y1="129.6094" y2="129.6094"/><text fill="#000000" font-family="Inter" font-size="14" lengthAdjust="spacing" textLength="162" x="760" y="148.1426">+handleTranslationClick()</text><text fill="#000000" font-family="Inter" font-size="14" lengthAdjust="spacing" textLength="88" x="760" y="165.752">+handleTTS()</text></g><!--class ImageScreen--><g id="elem_ImageScreen"><rect codeLine="12" fill="#F1F1F1" height="65.6094" id="ImageScreen" rx="2.5" ry="2.5" style="stroke:#181818;stroke-width:0.5;" width="153" x="400.5" y="98.1094"/><ellipse cx="432.6" cy="114.1094" fill="#ADD1B2" rx="11" ry="11" style="stroke:#181818;stroke-width:1.0;"/><path d="M435.3656,109.9844 Q435.5219,109.7656 435.7094,109.6563 Q435.8969,109.5469 436.1156,109.5469 Q436.4906,109.5469 436.725,109.8125 Q436.9594,110.0625 436.9594,110.6719 L436.9594,112.125 Q436.9594,112.7344 436.725,113 Q436.4906,113.2656 436.1156,113.2656 Q435.7719,113.2656 435.5688,113.0625 Q435.3656,112.875 435.2563,112.3594 Q435.2094,112 435.0219,111.8125 Q434.6938,111.4375 434.0844,111.2188 Q433.475,111 432.85,111 Q432.0844,111 431.4438,111.3281 Q430.8188,111.6563 430.3188,112.4063 Q429.8344,113.1563 429.8344,114.1875 L429.8344,115.2813 Q429.8344,116.5156 430.725,117.3438 Q431.6156,118.1563 433.2094,118.1563 Q434.1469,118.1563 434.8031,117.9063 Q435.1938,117.75 435.6156,117.3125 Q435.8813,117.0469 436.0219,116.9688 Q436.1781,116.8906 436.3813,116.8906 Q436.7094,116.8906 436.9594,117.1563 Q437.225,117.4063 437.225,117.75 Q437.225,118.0938 436.8813,118.5 Q436.3813,119.0781 435.5844,119.4063 Q434.5063,119.8594 433.2094,119.8594 Q431.6938,119.8594 430.4906,119.2344 Q429.5063,118.7344 428.8188,117.6719 Q428.1313,116.5938 428.1313,115.3125 L428.1313,114.1563 Q428.1313,112.8281 428.7406,111.6875 Q429.3656,110.5313 430.4594,109.9219 Q431.5531,109.2969 432.7875,109.2969 Q433.5219,109.2969 434.1625,109.4688 Q434.8188,109.625 435.3656,109.9844 Z " fill="#000000"/><text fill="#000000" font-family="Inter" font-size="14" lengthAdjust="spacing" textLength="83" x="450.4" y="119.8379">ImageScreen</text><line style="stroke:#181818;stroke-width:0.5;" x1="401.5" x2="552.5" y1="130.1094" y2="130.1094"/><line style="stroke:#181818;stroke-width:0.5;" x1="401.5" x2="552.5" y1="138.1094" y2="138.1094"/><text fill="#000000" font-family="Inter" font-size="14" lengthAdjust="spacing" textLength="141" x="406.5" y="156.6426">+handleImagePicked()</text></g><!--class BilingualScreen--><g id="elem_BilingualScreen"><rect codeLine="15" fill="#F1F1F1" height="100.8281" id="BilingualScreen" rx="2.5" ry="2.5" style="stroke:#181818;stroke-width:0.5;" width="130" x="589" y="80.6094"/><ellipse cx="604" cy="96.6094" fill="#ADD1B2" rx="11" ry="11" style="stroke:#181818;stroke-width:1.0;"/><path d="M606.7656,92.4844 Q606.9219,92.2656 607.1094,92.1563 Q607.2969,92.0469 607.5156,92.0469 Q607.8906,92.0469 608.125,92.3125 Q608.3594,92.5625 608.3594,93.1719 L608.3594,94.625 Q608.3594,95.2344 608.125,95.5 Q607.8906,95.7656 607.5156,95.7656 Q607.1719,95.7656 606.9688,95.5625 Q606.7656,95.375 606.6563,94.8594 Q606.6094,94.5 606.4219,94.3125 Q606.0938,93.9375 605.4844,93.7188 Q604.875,93.5 604.25,93.5 Q603.4844,93.5 602.8438,93.8281 Q602.2188,94.1563 601.7188,94.9063 Q601.2344,95.6563 601.2344,96.6875 L601.2344,97.7813 Q601.2344,99.0156 602.125,99.8438 Q603.0156,100.6563 604.6094,100.6563 Q605.5469,100.6563 606.2031,100.4063 Q606.5938,100.25 607.0156,99.8125 Q607.2813,99.5469 607.4219,99.4688 Q607.5781,99.3906 607.7813,99.3906 Q608.1094,99.3906 608.3594,99.6563 Q608.625,99.9063 608.625,100.25 Q608.625,100.5938 608.2813,101 Q607.7813,101.5781 606.9844,101.9063 Q605.9063,102.3594 604.6094,102.3594 Q603.0938,102.3594 601.8906,101.7344 Q600.9063,101.2344 600.2188,100.1719 Q599.5313,99.0938 599.5313,97.8125 L599.5313,96.6563 Q599.5313,95.3281 600.1406,94.1875 Q600.7656,93.0313 601.8594,92.4219 Q602.9531,91.7969 604.1875,91.7969 Q604.9219,91.7969 605.5625,91.9688 Q606.2188,92.125 606.7656,92.4844 Z " fill="#000000"/><text fill="#000000" font-family="Inter" font-size="14" lengthAdjust="spacing" textLength="98" x="618" y="102.3379">BilingualScreen</text><line style="stroke:#181818;stroke-width:0.5;" x1="590" x2="718" y1="112.6094" y2="112.6094"/><line style="stroke:#181818;stroke-width:0.5;" x1="590" x2="718" y1="120.6094" y2="120.6094"/><text fill="#000000" font-family="Inter" font-size="14" lengthAdjust="spacing" textLength="110" x="595" y="139.1426">+handleSpeakA()</text><text fill="#000000" font-family="Inter" font-size="14" lengthAdjust="spacing" textLength="110" x="595" y="156.752">+handleSpeakB()</text><text fill="#000000" font-family="Inter" font-size="14" lengthAdjust="spacing" textLength="95" x="595" y="174.3613">+handleSwap()</text></g><!--class PhrasesScreen--><g id="elem_PhrasesScreen"><rect codeLine="20" fill="#F1F1F1" height="83.2188" id="PhrasesScreen" rx="2.5" ry="2.5" style="stroke:#181818;stroke-width:0.5;" width="143" x="222.5" y="89.6094"/><ellipse cx="243.8" cy="105.6094" fill="#ADD1B2" rx="11" ry="11" style="stroke:#181818;stroke-width:1.0;"/><path d="M246.5656,101.4844 Q246.7219,101.2656 246.9094,101.1563 Q247.0969,101.0469 247.3156,101.0469 Q247.6906,101.0469 247.925,101.3125 Q248.1594,101.5625 248.1594,102.1719 L248.1594,103.625 Q248.1594,104.2344 247.925,104.5 Q247.6906,104.7656 247.3156,104.7656 Q246.9719,104.7656 246.7688,104.5625 Q246.5656,104.375 246.4563,103.8594 Q246.4094,103.5 246.2219,103.3125 Q245.8938,102.9375 245.2844,102.7188 Q244.675,102.5 244.05,102.5 Q243.2844,102.5 242.6438,102.8281 Q242.0188,103.1563 241.5188,103.9063 Q241.0344,104.6563 241.0344,105.6875 L241.0344,106.7813 Q241.0344,108.0156 241.925,108.8438 Q242.8156,109.6563 244.4094,109.6563 Q245.3469,109.6563 246.0031,109.4063 Q246.3938,109.25 246.8156,108.8125 Q247.0813,108.5469 247.2219,108.4688 Q247.3781,108.3906 247.5813,108.3906 Q247.9094,108.3906 248.1594,108.6563 Q248.425,108.9063 248.425,109.25 Q248.425,109.5938 248.0813,110 Q247.5813,110.5781 246.7844,110.9063 Q245.7063,111.3594 244.4094,111.3594 Q242.8938,111.3594 241.6906,110.7344 Q240.7063,110.2344 240.0188,109.1719 Q239.3313,108.0938 239.3313,106.8125 L239.3313,105.6563 Q239.3313,104.3281 239.9406,103.1875 Q240.5656,102.0313 241.6594,101.4219 Q242.7531,100.7969 243.9875,100.7969 Q244.7219,100.7969 245.3625,100.9688 Q246.0188,101.125 246.5656,101.4844 Z " fill="#000000"/><text fill="#000000" font-family="Inter" font-size="14" lengthAdjust="spacing" textLength="97" x="259.2" y="111.3379">PhrasesScreen</text><line style="stroke:#181818;stroke-width:0.5;" x1="223.5" x2="364.5" y1="121.6094" y2="121.6094"/><line style="stroke:#181818;stroke-width:0.5;" x1="223.5" x2="364.5" y1="129.6094" y2="129.6094"/><text fill="#000000" font-family="Inter" font-size="14" lengthAdjust="spacing" textLength="101" x="228.5" y="148.1426">+fetchPhrases()</text><text fill="#000000" font-family="Inter" font-size="14" lengthAdjust="spacing" textLength="131" x="228.5" y="165.752">+handleAddPhrase()</text></g><!--class LoginScreen--><g id="elem_LoginScreen"><rect codeLine="24" fill="#F1F1F1" height="83.2188" id="LoginScreen" rx="2.5" ry="2.5" style="stroke:#181818;stroke-width:0.5;" width="126" x="963" y="89.6094"/><ellipse cx="984.3" cy="105.6094" fill="#ADD1B2" rx="11" ry="11" style="stroke:#181818;stroke-width:1.0;"/><path d="M987.0656,101.4844 Q987.2219,101.2656 987.4094,101.1563 Q987.5969,101.0469 987.8156,101.0469 Q988.1906,101.0469 988.425,101.3125 Q988.6594,101.5625 988.6594,102.1719 L988.6594,103.625 Q988.6594,104.2344 988.425,104.5 Q988.1906,104.7656 987.8156,104.7656 Q987.4719,104.7656 987.2688,104.5625 Q987.0656,104.375 986.9563,103.8594 Q986.9094,103.5 986.7219,103.3125 Q986.3938,102.9375 985.7844,102.7188 Q985.175,102.5 984.55,102.5 Q983.7844,102.5 983.1438,102.8281 Q982.5188,103.1563 982.0188,103.9063 Q981.5344,104.6563 981.5344,105.6875 L981.5344,106.7813 Q981.5344,108.0156 982.425,108.8438 Q983.3156,109.6563 984.9094,109.6563 Q985.8469,109.6563 986.5031,109.4063 Q986.8938,109.25 987.3156,108.8125 Q987.5813,108.5469 987.7219,108.4688 Q987.8781,108.3906 988.0813,108.3906 Q988.4094,108.3906 988.6594,108.6563 Q988.925,108.9063 988.925,109.25 Q988.925,109.5938 988.5813,110 Q988.0813,110.5781 987.2844,110.9063 Q986.2063,111.3594 984.9094,111.3594 Q983.3938,111.3594 982.1906,110.7344 Q981.2063,110.2344 980.5188,109.1719 Q979.8313,108.0938 979.8313,106.8125 L979.8313,105.6563 Q979.8313,104.3281 980.4406,103.1875 Q981.0656,102.0313 982.1594,101.4219 Q983.2531,100.7969 984.4875,100.7969 Q985.2219,100.7969 985.8625,100.9688 Q986.5188,101.125 987.0656,101.4844 Z " fill="#000000"/><text fill="#000000" font-family="Inter" font-size="14" lengthAdjust="spacing" textLength="80" x="999.7" y="111.3379">LoginScreen</text><line style="stroke:#181818;stroke-width:0.5;" x1="964" x2="1088" y1="121.6094" y2="121.6094"/><line style="stroke:#181818;stroke-width:0.5;" x1="964" x2="1088" y1="129.6094" y2="129.6094"/><text fill="#000000" font-family="Inter" font-size="14" lengthAdjust="spacing" textLength="96" x="969" y="148.1426">+handleLogin()</text><text fill="#000000" font-family="Inter" font-size="14" lengthAdjust="spacing" textLength="114" x="969" y="165.752">+handleRegister()</text></g><!--class UserContext--><g id="elem_UserContext"><rect codeLine="31" fill="#F1F1F1" height="118.4375" id="UserContext" rx="2.5" ry="2.5" style="stroke:#181818;stroke-width:0.5;" width="138" x="891" y="257.6094"/><ellipse cx="919.05" cy="273.6094" fill="#ADD1B2" rx="11" ry="11" style="stroke:#181818;stroke-width:1.0;"/><path d="M921.8156,269.4844 Q921.9719,269.2656 922.1594,269.1563 Q922.3469,269.0469 922.5656,269.0469 Q922.9406,269.0469 923.175,269.3125 Q923.4094,269.5625 923.4094,270.1719 L923.4094,271.625 Q923.4094,272.2344 923.175,272.5 Q922.9406,272.7656 922.5656,272.7656 Q922.2219,272.7656 922.0188,272.5625 Q921.8156,272.375 921.7063,271.8594 Q921.6594,271.5 921.4719,271.3125 Q921.1438,270.9375 920.5344,270.7188 Q919.925,270.5 919.3,270.5 Q918.5344,270.5 917.8938,270.8281 Q917.2688,271.1563 916.7688,271.9063 Q916.2844,272.6563 916.2844,273.6875 L916.2844,274.7813 Q916.2844,276.0156 917.175,276.8438 Q918.0656,277.6563 919.6594,277.6563 Q920.5969,277.6563 921.2531,277.4063 Q921.6438,277.25 922.0656,276.8125 Q922.3313,276.5469 922.4719,276.4688 Q922.6281,276.3906 922.8313,276.3906 Q923.1594,276.3906 923.4094,276.6563 Q923.675,276.9063 923.675,277.25 Q923.675,277.5938 923.3313,278 Q922.8313,278.5781 922.0344,278.9063 Q920.9563,279.3594 919.6594,279.3594 Q918.1438,279.3594 916.9406,278.7344 Q915.9563,278.2344 915.2688,277.1719 Q914.5813,276.0938 914.5813,274.8125 L914.5813,273.6563 Q914.5813,272.3281 915.1906,271.1875 Q915.8156,270.0313 916.9094,269.4219 Q918.0031,268.7969 919.2375,268.7969 Q919.9719,268.7969 920.6125,268.9688 Q921.2688,269.125 921.8156,269.4844 Z " fill="#000000"/><text fill="#000000" font-family="Inter" font-size="14" lengthAdjust="spacing" textLength="77" x="935.95" y="279.3379">UserContext</text><line style="stroke:#181818;stroke-width:0.5;" x1="892" x2="1028" y1="289.6094" y2="289.6094"/><text fill="#000000" font-family="Inter" font-size="14" lengthAdjust="spacing" textLength="69" x="897" y="308.1426">+User user</text><line style="stroke:#181818;stroke-width:0.5;" x1="892" x2="1028" y1="315.2188" y2="315.2188"/><text fill="#000000" font-family="Inter" font-size="14" lengthAdjust="spacing" textLength="126" x="897" y="333.752">+signIn(email, pass)</text><text fill="#000000" font-family="Inter" font-size="14" lengthAdjust="spacing" textLength="109" x="897" y="351.3613">+signInAsGuest()</text><text fill="#000000" font-family="Inter" font-size="14" lengthAdjust="spacing" textLength="67" x="897" y="368.9707">+signOut()</text></g><!--class TranslationContext--><g id="elem_TranslationContext"><rect codeLine="38" fill="#F1F1F1" height="83.2188" id="TranslationContext" rx="2.5" ry="2.5" style="stroke:#181818;stroke-width:0.5;" width="235" x="359.5" y="275.1094"/><ellipse cx="413.25" cy="291.1094" fill="#ADD1B2" rx="11" ry="11" style="stroke:#181818;stroke-width:1.0;"/><path d="M416.0156,286.9844 Q416.1719,286.7656 416.3594,286.6563 Q416.5469,286.5469 416.7656,286.5469 Q417.1406,286.5469 417.375,286.8125 Q417.6094,287.0625 417.6094,287.6719 L417.6094,289.125 Q417.6094,289.7344 417.375,290 Q417.1406,290.2656 416.7656,290.2656 Q416.4219,290.2656 416.2188,290.0625 Q416.0156,289.875 415.9063,289.3594 Q415.8594,289 415.6719,288.8125 Q415.3438,288.4375 414.7344,288.2188 Q414.125,288 413.5,288 Q412.7344,288 412.0938,288.3281 Q411.4688,288.6563 410.9688,289.4063 Q410.4844,290.1563 410.4844,291.1875 L410.4844,292.2813 Q410.4844,293.5156 411.375,294.3438 Q412.2656,295.1563 413.8594,295.1563 Q414.7969,295.1563 415.4531,294.9063 Q415.8438,294.75 416.2656,294.3125 Q416.5313,294.0469 416.6719,293.9688 Q416.8281,293.8906 417.0313,293.8906 Q417.3594,293.8906 417.6094,294.1563 Q417.875,294.4063 417.875,294.75 Q417.875,295.0938 417.5313,295.5 Q417.0313,296.0781 416.2344,296.4063 Q415.1563,296.8594 413.8594,296.8594 Q412.3438,296.8594 411.1406,296.2344 Q410.1563,295.7344 409.4688,294.6719 Q408.7813,293.5938 408.7813,292.3125 L408.7813,291.1563 Q408.7813,289.8281 409.3906,288.6875 Q410.0156,287.5313 411.1094,286.9219 Q412.2031,286.2969 413.4375,286.2969 Q414.1719,286.2969 414.8125,286.4688 Q415.4688,286.625 416.0156,286.9844 Z " fill="#000000"/><text fill="#000000" font-family="Inter" font-size="14" lengthAdjust="spacing" textLength="119" x="433.75" y="296.8379">TranslationContext</text><line style="stroke:#181818;stroke-width:0.5;" x1="360.5" x2="593.5" y1="307.1094" y2="307.1094"/><line style="stroke:#181818;stroke-width:0.5;" x1="360.5" x2="593.5" y1="315.1094" y2="315.1094"/><text fill="#000000" font-family="Inter" font-size="14" lengthAdjust="spacing" textLength="138" x="365.5" y="333.6426">+performTranslation()</text><text fill="#000000" font-family="Inter" font-size="14" lengthAdjust="spacing" textLength="223" x="365.5" y="351.252">+performDetectionAndTranslation()</text></g><!--class TranslationHistoryContext--><g id="elem_TranslationHistoryContext"><rect codeLine="43" fill="#F1F1F1" height="118.4375" id="TranslationHistoryContext" rx="2.5" ry="2.5" style="stroke:#181818;stroke-width:0.5;" width="258" x="1064" y="257.6094"/><ellipse cx="1107.8" cy="273.6094" fill="#ADD1B2" rx="11" ry="11" style="stroke:#181818;stroke-width:1.0;"/><path d="M1110.5656,269.4844 Q1110.7219,269.2656 1110.9094,269.1563 Q1111.0969,269.0469 1111.3156,269.0469 Q1111.6906,269.0469 1111.925,269.3125 Q1112.1594,269.5625 1112.1594,270.1719 L1112.1594,271.625 Q1112.1594,272.2344 1111.925,272.5 Q1111.6906,272.7656 1111.3156,272.7656 Q1110.9719,272.7656 1110.7688,272.5625 Q1110.5656,272.375 1110.4563,271.8594 Q1110.4094,271.5 1110.2219,271.3125 Q1109.8938,270.9375 1109.2844,270.7188 Q1108.675,270.5 1108.05,270.5 Q1107.2844,270.5 1106.6438,270.8281 Q1106.0188,271.1563 1105.5188,271.9063 Q1105.0344,272.6563 1105.0344,273.6875 L1105.0344,274.7813 Q1105.0344,276.0156 1105.925,276.8438 Q1106.8156,277.6563 1108.4094,277.6563 Q1109.3469,277.6563 1110.0031,277.4063 Q1110.3938,277.25 1110.8156,276.8125 Q1111.0813,276.5469 1111.2219,276.4688 Q1111.3781,276.3906 1111.5813,276.3906 Q1111.9094,276.3906 1112.1594,276.6563 Q1112.425,276.9063 1112.425,277.25 Q1112.425,277.5938 1112.0813,278 Q1111.5813,278.5781 1110.7844,278.9063 Q1109.7063,279.3594 1108.4094,279.3594 Q1106.8938,279.3594 1105.6906,278.7344 Q1104.7063,278.2344 1104.0188,277.1719 Q1103.3313,276.0938 1103.3313,274.8125 L1103.3313,273.6563 Q1103.3313,272.3281 1103.9406,271.1875 Q1104.5656,270.0313 1105.6594,269.4219 Q1106.7531,268.7969 1107.9875,268.7969 Q1108.7219,268.7969 1109.3625,268.9688 Q1110.0188,269.125 1110.5656,269.4844 Z " fill="#000000"/><text fill="#000000" font-family="Inter" font-size="14" lengthAdjust="spacing" textLength="162" x="1128.2" y="279.3379">TranslationHistoryContext</text><line style="stroke:#181818;stroke-width:0.5;" x1="1065" x2="1321" y1="289.6094" y2="289.6094"/><text fill="#000000" font-family="Inter" font-size="14" lengthAdjust="spacing" textLength="246" x="1070" y="308.1426">+TranslationRecord[] translationHistory</text><line style="stroke:#181818;stroke-width:0.5;" x1="1065" x2="1321" y1="315.2188" y2="315.2188"/><text fill="#000000" font-family="Inter" font-size="14" lengthAdjust="spacing" textLength="119" x="1070" y="333.752">+saveTranslation()</text><text fill="#000000" font-family="Inter" font-size="14" lengthAdjust="spacing" textLength="128" x="1070" y="351.3613">+deleteTranslation()</text><text fill="#000000" font-family="Inter" font-size="14" lengthAdjust="spacing" textLength="109" x="1070" y="368.9707">+toggleFavorite()</text></g><!--class BilingualHistoryContext--><g id="elem_BilingualHistoryContext"><rect codeLine="50" fill="#F1F1F1" height="100.8281" id="BilingualHistoryContext" rx="2.5" ry="2.5" style="stroke:#181818;stroke-width:0.5;" width="226" x="630" y="266.1094"/><ellipse cx="667.5" cy="282.1094" fill="#ADD1B2" rx="11" ry="11" style="stroke:#181818;stroke-width:1.0;"/><path d="M670.2656,277.9844 Q670.4219,277.7656 670.6094,277.6563 Q670.7969,277.5469 671.0156,277.5469 Q671.3906,277.5469 671.625,277.8125 Q671.8594,278.0625 671.8594,278.6719 L671.8594,280.125 Q671.8594,280.7344 671.625,281 Q671.3906,281.2656 671.0156,281.2656 Q670.6719,281.2656 670.4688,281.0625 Q670.2656,280.875 670.1563,280.3594 Q670.1094,280 669.9219,279.8125 Q669.5938,279.4375 668.9844,279.2188 Q668.375,279 667.75,279 Q666.9844,279 666.3438,279.3281 Q665.7188,279.6563 665.2188,280.4063 Q664.7344,281.1563 664.7344,282.1875 L664.7344,283.2813 Q664.7344,284.5156 665.625,285.3438 Q666.5156,286.1563 668.1094,286.1563 Q669.0469,286.1563 669.7031,285.9063 Q670.0938,285.75 670.5156,285.3125 Q670.7813,285.0469 670.9219,284.9688 Q671.0781,284.8906 671.2813,284.8906 Q671.6094,284.8906 671.8594,285.1563 Q672.125,285.4063 672.125,285.75 Q672.125,286.0938 671.7813,286.5 Q671.2813,287.0781 670.4844,287.4063 Q669.4063,287.8594 668.1094,287.8594 Q666.5938,287.8594 665.3906,287.2344 Q664.4063,286.7344 663.7188,285.6719 Q663.0313,284.5938 663.0313,283.3125 L663.0313,282.1563 Q663.0313,280.8281 663.6406,279.6875 Q664.2656,278.5313 665.3594,277.9219 Q666.4531,277.2969 667.6875,277.2969 Q668.4219,277.2969 669.0625,277.4688 Q669.7188,277.625 670.2656,277.9844 Z " fill="#000000"/><text fill="#000000" font-family="Inter" font-size="14" lengthAdjust="spacing" textLength="144" x="686.5" y="287.8379">BilingualHistoryContext</text><line style="stroke:#181818;stroke-width:0.5;" x1="631" x2="855" y1="298.1094" y2="298.1094"/><text fill="#000000" font-family="Inter" font-size="14" lengthAdjust="spacing" textLength="214" x="636" y="316.6426">+BilingualRecord[] bilingualHistory</text><line style="stroke:#181818;stroke-width:0.5;" x1="631" x2="855" y1="323.7188" y2="323.7188"/><text fill="#000000" font-family="Inter" font-size="14" lengthAdjust="spacing" textLength="119" x="636" y="342.252">+saveTranslation()</text><text fill="#000000" font-family="Inter" font-size="14" lengthAdjust="spacing" textLength="141" x="636" y="359.8613">+deleteConversation()</text></g><!--class PhrasesContext--><g id="elem_PhrasesContext"><rect codeLine="56" fill="#F1F1F1" height="118.4375" id="PhrasesContext" rx="2.5" ry="2.5" style="stroke:#181818;stroke-width:0.5;" width="176" x="148" y="257.6094"/><ellipse cx="182.8" cy="273.6094" fill="#ADD1B2" rx="11" ry="11" style="stroke:#181818;stroke-width:1.0;"/><path d="M185.5656,269.4844 Q185.7219,269.2656 185.9094,269.1563 Q186.0969,269.0469 186.3156,269.0469 Q186.6906,269.0469 186.925,269.3125 Q187.1594,269.5625 187.1594,270.1719 L187.1594,271.625 Q187.1594,272.2344 186.925,272.5 Q186.6906,272.7656 186.3156,272.7656 Q185.9719,272.7656 185.7688,272.5625 Q185.5656,272.375 185.4563,271.8594 Q185.4094,271.5 185.2219,271.3125 Q184.8938,270.9375 184.2844,270.7188 Q183.675,270.5 183.05,270.5 Q182.2844,270.5 181.6438,270.8281 Q181.0188,271.1563 180.5188,271.9063 Q180.0344,272.6563 180.0344,273.6875 L180.0344,274.7813 Q180.0344,276.0156 180.925,276.8438 Q181.8156,277.6563 183.4094,277.6563 Q184.3469,277.6563 185.0031,277.4063 Q185.3938,277.25 185.8156,276.8125 Q186.0813,276.5469 186.2219,276.4688 Q186.3781,276.3906 186.5813,276.3906 Q186.9094,276.3906 187.1594,276.6563 Q187.425,276.9063 187.425,277.25 Q187.425,277.5938 187.0813,278 Q186.5813,278.5781 185.7844,278.9063 Q184.7063,279.3594 183.4094,279.3594 Q181.8938,279.3594 180.6906,278.7344 Q179.7063,278.2344 179.0188,277.1719 Q178.3313,276.0938 178.3313,274.8125 L178.3313,273.6563 Q178.3313,272.3281 178.9406,271.1875 Q179.5656,270.0313 180.6594,269.4219 Q181.7531,268.7969 182.9875,268.7969 Q183.7219,268.7969 184.3625,268.9688 Q185.0188,269.125 185.5656,269.4844 Z " fill="#000000"/><text fill="#000000" font-family="Inter" font-size="14" lengthAdjust="spacing" textLength="100" x="201.2" y="279.3379">PhrasesContext</text><line style="stroke:#181818;stroke-width:0.5;" x1="149" x2="323" y1="289.6094" y2="289.6094"/><text fill="#000000" font-family="Inter" font-size="14" lengthAdjust="spacing" textLength="145" x="154" y="308.1426">+Phrase[] userPhrases</text><text fill="#000000" font-family="Inter" font-size="14" lengthAdjust="spacing" textLength="164" x="154" y="325.752">+Phrase[] genericPhrases</text><line style="stroke:#181818;stroke-width:0.5;" x1="149" x2="323" y1="332.8281" y2="332.8281"/><text fill="#000000" font-family="Inter" font-size="14" lengthAdjust="spacing" textLength="87" x="154" y="351.3613">+addPhrase()</text><text fill="#000000" font-family="Inter" font-size="14" lengthAdjust="spacing" textLength="102" x="154" y="368.9707">+deletePhrase()</text></g><!--class supabase--><g id="elem_supabase"><rect codeLine="65" fill="#F1F1F1" height="83.2188" id="supabase" rx="2.5" ry="2.5" style="stroke:#181818;stroke-width:0.5;" width="94" x="386" y="487.1094"/><ellipse cx="401" cy="503.1094" fill="#ADD1B2" rx="11" ry="11" style="stroke:#181818;stroke-width:1.0;"/><path d="M403.7656,498.9844 Q403.9219,498.7656 404.1094,498.6563 Q404.2969,498.5469 404.5156,498.5469 Q404.8906,498.5469 405.125,498.8125 Q405.3594,499.0625 405.3594,499.6719 L405.3594,501.125 Q405.3594,501.7344 405.125,502 Q404.8906,502.2656 404.5156,502.2656 Q404.1719,502.2656 403.9688,502.0625 Q403.7656,501.875 403.6563,501.3594 Q403.6094,501 403.4219,500.8125 Q403.0938,500.4375 402.4844,500.2188 Q401.875,500 401.25,500 Q400.4844,500 399.8438,500.3281 Q399.2188,500.6563 398.7188,501.4063 Q398.2344,502.1563 398.2344,503.1875 L398.2344,504.2813 Q398.2344,505.5156 399.125,506.3438 Q400.0156,507.1563 401.6094,507.1563 Q402.5469,507.1563 403.2031,506.9063 Q403.5938,506.75 404.0156,506.3125 Q404.2813,506.0469 404.4219,505.9688 Q404.5781,505.8906 404.7813,505.8906 Q405.1094,505.8906 405.3594,506.1563 Q405.625,506.4063 405.625,506.75 Q405.625,507.0938 405.2813,507.5 Q404.7813,508.0781 403.9844,508.4063 Q402.9063,508.8594 401.6094,508.8594 Q400.0938,508.8594 398.8906,508.2344 Q397.9063,507.7344 397.2188,506.6719 Q396.5313,505.5938 396.5313,504.3125 L396.5313,503.1563 Q396.5313,501.8281 397.1406,500.6875 Q397.7656,499.5313 398.8594,498.9219 Q399.9531,498.2969 401.1875,498.2969 Q401.9219,498.2969 402.5625,498.4688 Q403.2188,498.625 403.7656,498.9844 Z " fill="#000000"/><text fill="#000000" font-family="Inter" font-size="14" lengthAdjust="spacing" textLength="62" x="415" y="508.8379">supabase</text><line style="stroke:#181818;stroke-width:0.5;" x1="387" x2="479" y1="519.1094" y2="519.1094"/><text fill="#000000" font-family="Inter" font-size="14" lengthAdjust="spacing" textLength="36" x="392" y="537.6426">+auth</text><line style="stroke:#181818;stroke-width:0.5;" x1="387" x2="479" y1="544.7188" y2="544.7188"/><text fill="#000000" font-family="Inter" font-size="14" lengthAdjust="spacing" textLength="77" x="392" y="563.252">+from(table)</text></g><!--class translationAPI--><g id="elem_translationAPI"><rect codeLine="70" fill="#F1F1F1" height="100.8281" id="translationAPI" rx="2.5" ry="2.5" style="stroke:#181818;stroke-width:0.5;" width="154" x="197" y="478.1094"/><ellipse cx="227.75" cy="494.1094" fill="#ADD1B2" rx="11" ry="11" style="stroke:#181818;stroke-width:1.0;"/><path d="M230.5156,489.9844 Q230.6719,489.7656 230.8594,489.6563 Q231.0469,489.5469 231.2656,489.5469 Q231.6406,489.5469 231.875,489.8125 Q232.1094,490.0625 232.1094,490.6719 L232.1094,492.125 Q232.1094,492.7344 231.875,493 Q231.6406,493.2656 231.2656,493.2656 Q230.9219,493.2656 230.7188,493.0625 Q230.5156,492.875 230.4063,492.3594 Q230.3594,492 230.1719,491.8125 Q229.8438,491.4375 229.2344,491.2188 Q228.625,491 228,491 Q227.2344,491 226.5938,491.3281 Q225.9688,491.6563 225.4688,492.4063 Q224.9844,493.1563 224.9844,494.1875 L224.9844,495.2813 Q224.9844,496.5156 225.875,497.3438 Q226.7656,498.1563 228.3594,498.1563 Q229.2969,498.1563 229.9531,497.9063 Q230.3438,497.75 230.7656,497.3125 Q231.0313,497.0469 231.1719,496.9688 Q231.3281,496.8906 231.5313,496.8906 Q231.8594,496.8906 232.1094,497.1563 Q232.375,497.4063 232.375,497.75 Q232.375,498.0938 232.0313,498.5 Q231.5313,499.0781 230.7344,499.4063 Q229.6563,499.8594 228.3594,499.8594 Q226.8438,499.8594 225.6406,499.2344 Q224.6563,498.7344 223.9688,497.6719 Q223.2813,496.5938 223.2813,495.3125 L223.2813,494.1563 Q223.2813,492.8281 223.8906,491.6875 Q224.5156,490.5313 225.6094,489.9219 Q226.7031,489.2969 227.9375,489.2969 Q228.6719,489.2969 229.3125,489.4688 Q229.9688,489.625 230.5156,489.9844 Z " fill="#000000"/><text fill="#000000" font-family="Inter" font-size="14" lengthAdjust="spacing" textLength="87" x="245.25" y="499.8379">translationAPI</text><line style="stroke:#181818;stroke-width:0.5;" x1="198" x2="350" y1="510.1094" y2="510.1094"/><line style="stroke:#181818;stroke-width:0.5;" x1="198" x2="350" y1="518.1094" y2="518.1094"/><text fill="#000000" font-family="Inter" font-size="14" lengthAdjust="spacing" textLength="112" x="203" y="536.6426">+useTranslation()</text><text fill="#000000" font-family="Inter" font-size="14" lengthAdjust="spacing" textLength="121" x="203" y="554.252">+detectLanguage()</text><text fill="#000000" font-family="Inter" font-size="14" lengthAdjust="spacing" textLength="142" x="203" y="571.8613">+detectAndTranslate()</text></g><!--class ocrAPI--><g id="elem_ocrAPI"><rect codeLine="76" fill="#F1F1F1" height="65.6094" id="ocrAPI" rx="2.5" ry="2.5" style="stroke:#181818;stroke-width:0.5;" width="139" x="22.5" y="495.6094"/><ellipse cx="67.25" cy="511.6094" fill="#ADD1B2" rx="11" ry="11" style="stroke:#181818;stroke-width:1.0;"/><path d="M70.0156,507.4844 Q70.1719,507.2656 70.3594,507.1563 Q70.5469,507.0469 70.7656,507.0469 Q71.1406,507.0469 71.375,507.3125 Q71.6094,507.5625 71.6094,508.1719 L71.6094,509.625 Q71.6094,510.2344 71.375,510.5 Q71.1406,510.7656 70.7656,510.7656 Q70.4219,510.7656 70.2188,510.5625 Q70.0156,510.375 69.9063,509.8594 Q69.8594,509.5 69.6719,509.3125 Q69.3438,508.9375 68.7344,508.7188 Q68.125,508.5 67.5,508.5 Q66.7344,508.5 66.0938,508.8281 Q65.4688,509.1563 64.9688,509.9063 Q64.4844,510.6563 64.4844,511.6875 L64.4844,512.7813 Q64.4844,514.0156 65.375,514.8438 Q66.2656,515.6563 67.8594,515.6563 Q68.7969,515.6563 69.4531,515.4063 Q69.8438,515.25 70.2656,514.8125 Q70.5313,514.5469 70.6719,514.4688 Q70.8281,514.3906 71.0313,514.3906 Q71.3594,514.3906 71.6094,514.6563 Q71.875,514.9063 71.875,515.25 Q71.875,515.5938 71.5313,516 Q71.0313,516.5781 70.2344,516.9063 Q69.1563,517.3594 67.8594,517.3594 Q66.3438,517.3594 65.1406,516.7344 Q64.1563,516.2344 63.4688,515.1719 Q62.7813,514.0938 62.7813,512.8125 L62.7813,511.6563 Q62.7813,510.3281 63.3906,509.1875 Q64.0156,508.0313 65.1094,507.4219 Q66.2031,506.7969 67.4375,506.7969 Q68.1719,506.7969 68.8125,506.9688 Q69.4688,507.125 70.0156,507.4844 Z " fill="#000000"/><text fill="#000000" font-family="Inter" font-size="14" lengthAdjust="spacing" textLength="41" x="87.75" y="517.3379">ocrAPI</text><line style="stroke:#181818;stroke-width:0.5;" x1="23.5" x2="160.5" y1="527.6094" y2="527.6094"/><line style="stroke:#181818;stroke-width:0.5;" x1="23.5" x2="160.5" y1="535.6094" y2="535.6094"/><text fill="#000000" font-family="Inter" font-size="14" lengthAdjust="spacing" textLength="127" x="28.5" y="554.1426">+useOCR(imageUri)</text></g><!--class User--><g id="elem_User"><rect codeLine="82" fill="#F1F1F1" height="118.4375" id="User" rx="2.5" ry="2.5" style="stroke:#181818;stroke-width:0.5;" width="189" x="884.5" y="469.6094"/><ellipse cx="960.25" cy="485.6094" fill="#ADD1B2" rx="11" ry="11" style="stroke:#181818;stroke-width:1.0;"/><path d="M963.0156,481.4844 Q963.1719,481.2656 963.3594,481.1563 Q963.5469,481.0469 963.7656,481.0469 Q964.1406,481.0469 964.375,481.3125 Q964.6094,481.5625 964.6094,482.1719 L964.6094,483.625 Q964.6094,484.2344 964.375,484.5 Q964.1406,484.7656 963.7656,484.7656 Q963.4219,484.7656 963.2188,484.5625 Q963.0156,484.375 962.9063,483.8594 Q962.8594,483.5 962.6719,483.3125 Q962.3438,482.9375 961.7344,482.7188 Q961.125,482.5 960.5,482.5 Q959.7344,482.5 959.0938,482.8281 Q958.4688,483.1563 957.9688,483.9063 Q957.4844,484.6563 957.4844,485.6875 L957.4844,486.7813 Q957.4844,488.0156 958.375,488.8438 Q959.2656,489.6563 960.8594,489.6563 Q961.7969,489.6563 962.4531,489.4063 Q962.8438,489.25 963.2656,488.8125 Q963.5313,488.5469 963.6719,488.4688 Q963.8281,488.3906 964.0313,488.3906 Q964.3594,488.3906 964.6094,488.6563 Q964.875,488.9063 964.875,489.25 Q964.875,489.5938 964.5313,490 Q964.0313,490.5781 963.2344,490.9063 Q962.1563,491.3594 960.8594,491.3594 Q959.3438,491.3594 958.1406,490.7344 Q957.1563,490.2344 956.4688,489.1719 Q955.7813,488.0938 955.7813,486.8125 L955.7813,485.6563 Q955.7813,484.3281 956.3906,483.1875 Q957.0156,482.0313 958.1094,481.4219 Q959.2031,480.7969 960.4375,480.7969 Q961.1719,480.7969 961.8125,480.9688 Q962.4688,481.125 963.0156,481.4844 Z " fill="#000000"/><text fill="#000000" font-family="Inter" font-size="14" lengthAdjust="spacing" textLength="29" x="980.75" y="491.3379">User</text><line style="stroke:#181818;stroke-width:0.5;" x1="885.5" x2="1072.5" y1="501.6094" y2="501.6094"/><text fill="#000000" font-family="Inter" font-size="14" lengthAdjust="spacing" textLength="62" x="890.5" y="520.1426">+id: string</text><text fill="#000000" font-family="Inter" font-size="14" lengthAdjust="spacing" textLength="84" x="890.5" y="537.752">+email: string</text><text fill="#000000" font-family="Inter" font-size="14" lengthAdjust="spacing" textLength="86" x="890.5" y="555.3613">+name: string</text><text fill="#000000" font-family="Inter" font-size="14" lengthAdjust="spacing" textLength="177" x="890.5" y="572.9707">+preferred_language: string</text><line style="stroke:#181818;stroke-width:0.5;" x1="885.5" x2="1072.5" y1="580.0469" y2="580.0469"/></g><!--class TranslationRecord--><g id="elem_TranslationRecord"><rect codeLine="89" fill="#F1F1F1" height="153.6563" id="TranslationRecord" rx="2.5" ry="2.5" style="stroke:#181818;stroke-width:0.5;" width="173" x="1108.5" y="451.6094"/><ellipse cx="1134.3" cy="467.6094" fill="#ADD1B2" rx="11" ry="11" style="stroke:#181818;stroke-width:1.0;"/><path d="M1137.0656,463.4844 Q1137.2219,463.2656 1137.4094,463.1563 Q1137.5969,463.0469 1137.8156,463.0469 Q1138.1906,463.0469 1138.425,463.3125 Q1138.6594,463.5625 1138.6594,464.1719 L1138.6594,465.625 Q1138.6594,466.2344 1138.425,466.5 Q1138.1906,466.7656 1137.8156,466.7656 Q1137.4719,466.7656 1137.2688,466.5625 Q1137.0656,466.375 1136.9563,465.8594 Q1136.9094,465.5 1136.7219,465.3125 Q1136.3938,464.9375 1135.7844,464.7188 Q1135.175,464.5 1134.55,464.5 Q1133.7844,464.5 1133.1438,464.8281 Q1132.5188,465.1563 1132.0188,465.9063 Q1131.5344,466.6563 1131.5344,467.6875 L1131.5344,468.7813 Q1131.5344,470.0156 1132.425,470.8438 Q1133.3156,471.6563 1134.9094,471.6563 Q1135.8469,471.6563 1136.5031,471.4063 Q1136.8938,471.25 1137.3156,470.8125 Q1137.5813,470.5469 1137.7219,470.4688 Q1137.8781,470.3906 1138.0813,470.3906 Q1138.4094,470.3906 1138.6594,470.6563 Q1138.925,470.9063 1138.925,471.25 Q1138.925,471.5938 1138.5813,472 Q1138.0813,472.5781 1137.2844,472.9063 Q1136.2063,473.3594 1134.9094,473.3594 Q1133.3938,473.3594 1132.1906,472.7344 Q1131.2063,472.2344 1130.5188,471.1719 Q1129.8313,470.0938 1129.8313,468.8125 L1129.8313,467.6563 Q1129.8313,466.3281 1130.4406,465.1875 Q1131.0656,464.0313 1132.1594,463.4219 Q1133.2531,462.7969 1134.4875,462.7969 Q1135.2219,462.7969 1135.8625,462.9688 Q1136.5188,463.125 1137.0656,463.4844 Z " fill="#000000"/><text fill="#000000" font-family="Inter" font-size="14" lengthAdjust="spacing" textLength="117" x="1150.7" y="473.3379">TranslationRecord</text><line style="stroke:#181818;stroke-width:0.5;" x1="1109.5" x2="1280.5" y1="483.6094" y2="483.6094"/><text fill="#000000" font-family="Inter" font-size="14" lengthAdjust="spacing" textLength="62" x="1114.5" y="502.1426">+id: string</text><text fill="#000000" font-family="Inter" font-size="14" lengthAdjust="spacing" textLength="127" x="1114.5" y="519.752">+original_text: string</text><text fill="#000000" font-family="Inter" font-size="14" lengthAdjust="spacing" textLength="144" x="1114.5" y="537.3613">+translated_text: string</text><text fill="#000000" font-family="Inter" font-size="14" lengthAdjust="spacing" textLength="161" x="1114.5" y="554.9707">+source_language: string</text><text fill="#000000" font-family="Inter" font-size="14" lengthAdjust="spacing" textLength="155" x="1114.5" y="572.5801">+target_language: string</text><text fill="#000000" font-family="Inter" font-size="14" lengthAdjust="spacing" textLength="132" x="1114.5" y="590.1895">+is_favorite: boolean</text><line style="stroke:#181818;stroke-width:0.5;" x1="1109.5" x2="1280.5" y1="597.2656" y2="597.2656"/></g><!--class BilingualRecord--><g id="elem_BilingualRecord"><rect codeLine="98" fill="#F1F1F1" height="118.4375" id="BilingualRecord" rx="2.5" ry="2.5" style="stroke:#181818;stroke-width:0.5;" width="156" x="693" y="469.6094"/><ellipse cx="719.25" cy="485.6094" fill="#ADD1B2" rx="11" ry="11" style="stroke:#181818;stroke-width:1.0;"/><path d="M722.0156,481.4844 Q722.1719,481.2656 722.3594,481.1563 Q722.5469,481.0469 722.7656,481.0469 Q723.1406,481.0469 723.375,481.3125 Q723.6094,481.5625 723.6094,482.1719 L723.6094,483.625 Q723.6094,484.2344 723.375,484.5 Q723.1406,484.7656 722.7656,484.7656 Q722.4219,484.7656 722.2188,484.5625 Q722.0156,484.375 721.9063,483.8594 Q721.8594,483.5 721.6719,483.3125 Q721.3438,482.9375 720.7344,482.7188 Q720.125,482.5 719.5,482.5 Q718.7344,482.5 718.0938,482.8281 Q717.4688,483.1563 716.9688,483.9063 Q716.4844,484.6563 716.4844,485.6875 L716.4844,486.7813 Q716.4844,488.0156 717.375,488.8438 Q718.2656,489.6563 719.8594,489.6563 Q720.7969,489.6563 721.4531,489.4063 Q721.8438,489.25 722.2656,488.8125 Q722.5313,488.5469 722.6719,488.4688 Q722.8281,488.3906 723.0313,488.3906 Q723.3594,488.3906 723.6094,488.6563 Q723.875,488.9063 723.875,489.25 Q723.875,489.5938 723.5313,490 Q723.0313,490.5781 722.2344,490.9063 Q721.1563,491.3594 719.8594,491.3594 Q718.3438,491.3594 717.1406,490.7344 Q716.1563,490.2344 715.4688,489.1719 Q714.7813,488.0938 714.7813,486.8125 L714.7813,485.6563 Q714.7813,484.3281 715.3906,483.1875 Q716.0156,482.0313 717.1094,481.4219 Q718.2031,480.7969 719.4375,480.7969 Q720.1719,480.7969 720.8125,480.9688 Q721.4688,481.125 722.0156,481.4844 Z " fill="#000000"/><text fill="#000000" font-family="Inter" font-size="14" lengthAdjust="spacing" textLength="99" x="735.75" y="491.3379">BilingualRecord</text><line style="stroke:#181818;stroke-width:0.5;" x1="694" x2="848" y1="501.6094" y2="501.6094"/><text fill="#000000" font-family="Inter" font-size="14" lengthAdjust="spacing" textLength="62" x="699" y="520.1426">+id: string</text><text fill="#000000" font-family="Inter" font-size="14" lengthAdjust="spacing" textLength="142" x="699" y="537.752">+speaker_side: 'A' | 'B'</text><text fill="#000000" font-family="Inter" font-size="14" lengthAdjust="spacing" textLength="127" x="699" y="555.3613">+original_text: string</text><text fill="#000000" font-family="Inter" font-size="14" lengthAdjust="spacing" textLength="144" x="699" y="572.9707">+translated_text: string</text><line style="stroke:#181818;stroke-width:0.5;" x1="694" x2="848" y1="580.0469" y2="580.0469"/></g><!--class Phrase--><g id="elem_Phrase"><rect codeLine="105" fill="#F1F1F1" height="118.4375" id="Phrase" rx="2.5" ry="2.5" style="stroke:#181818;stroke-width:0.5;" width="122" x="536" y="469.6094"/><ellipse cx="571.25" cy="485.6094" fill="#ADD1B2" rx="11" ry="11" style="stroke:#181818;stroke-width:1.0;"/><path d="M574.0156,481.4844 Q574.1719,481.2656 574.3594,481.1563 Q574.5469,481.0469 574.7656,481.0469 Q575.1406,481.0469 575.375,481.3125 Q575.6094,481.5625 575.6094,482.1719 L575.6094,483.625 Q575.6094,484.2344 575.375,484.5 Q575.1406,484.7656 574.7656,484.7656 Q574.4219,484.7656 574.2188,484.5625 Q574.0156,484.375 573.9063,483.8594 Q573.8594,483.5 573.6719,483.3125 Q573.3438,482.9375 572.7344,482.7188 Q572.125,482.5 571.5,482.5 Q570.7344,482.5 570.0938,482.8281 Q569.4688,483.1563 568.9688,483.9063 Q568.4844,484.6563 568.4844,485.6875 L568.4844,486.7813 Q568.4844,488.0156 569.375,488.8438 Q570.2656,489.6563 571.8594,489.6563 Q572.7969,489.6563 573.4531,489.4063 Q573.8438,489.25 574.2656,488.8125 Q574.5313,488.5469 574.6719,488.4688 Q574.8281,488.3906 575.0313,488.3906 Q575.3594,488.3906 575.6094,488.6563 Q575.875,488.9063 575.875,489.25 Q575.875,489.5938 575.5313,490 Q575.0313,490.5781 574.2344,490.9063 Q573.1563,491.3594 571.8594,491.3594 Q570.3438,491.3594 569.1406,490.7344 Q568.1563,490.2344 567.4688,489.1719 Q566.7813,488.0938 566.7813,486.8125 L566.7813,485.6563 Q566.7813,484.3281 567.3906,483.1875 Q568.0156,482.0313 569.1094,481.4219 Q570.2031,480.7969 571.4375,480.7969 Q572.1719,480.7969 572.8125,480.9688 Q573.4688,481.125 574.0156,481.4844 Z " fill="#000000"/><text fill="#000000" font-family="Inter" font-size="14" lengthAdjust="spacing" textLength="45" x="589.75" y="491.3379">Phrase</text><line style="stroke:#181818;stroke-width:0.5;" x1="537" x2="657" y1="501.6094" y2="501.6094"/><text fill="#000000" font-family="Inter" font-size="14" lengthAdjust="spacing" textLength="62" x="542" y="520.1426">+id: string</text><text fill="#000000" font-family="Inter" font-size="14" lengthAdjust="spacing" textLength="73" x="542" y="537.752">+text: string</text><text fill="#000000" font-family="Inter" font-size="14" lengthAdjust="spacing" textLength="106" x="542" y="555.3613">+category: string</text><text fill="#000000" font-family="Inter" font-size="14" lengthAdjust="spacing" textLength="110" x="542" y="572.9707">+language: string</text><line style="stroke:#181818;stroke-width:0.5;" x1="537" x2="657" y1="580.0469" y2="580.0469"/></g><!--link TranslationScreen to TranslationContext--><g id="link_TranslationScreen_TranslationContext"><path codeLine="114" d="M795.17,172.7094 C778.07,185.5394 757.74,198.2794 737,205.6094 C684.93,224.0194 664.8,194.4694 613,213.6094 C577.29,226.8094 547.5181,248.6173 522.3281,270.9673 " fill="none" id="TranslationScreen-to-TranslationContext" style="stroke:#181818;stroke-width:1.0;stroke-dasharray:7.0,7.0;"/><polygon fill="#181818" points="517.84,274.9494,527.2269,271.9683,521.5801,271.631,521.9174,265.9842,517.84,274.9494" style="stroke:#181818;stroke-width:1.0;"/></g><!--link TranslationScreen to TranslationHistoryContext--><g id="link_TranslationScreen_TranslationHistoryContext"><path codeLine="115" d="M887.64,172.7294 C904.87,185.4794 925.27,198.1594 946,205.6094 C988.38,220.8294 1004.62,198.4094 1047,213.6094 C1074.79,223.5794 1097.3207,236.776 1120.7207,253.826 " fill="none" id="TranslationScreen-to-TranslationHistoryContext" style="stroke:#181818;stroke-width:1.0;stroke-dasharray:7.0,7.0;"/><polygon fill="#181818" points="1125.57,257.3594,1120.6516,248.8265,1121.5289,254.4149,1115.9405,255.2922,1125.57,257.3594" style="stroke:#181818;stroke-width:1.0;"/></g><!--link TranslationScreen to UserContext--><g id="link_TranslationScreen_UserContext"><path codeLine="116" d="M867.41,172.8294 C883.57,197.7494 901.2353,224.9953 919.1153,252.5653 " fill="none" id="TranslationScreen-to-UserContext" style="stroke:#181818;stroke-width:1.0;stroke-dasharray:7.0,7.0;"/><polygon fill="#181818" points="922.38,257.5994,920.8389,247.8718,919.6594,253.4043,914.1269,252.2248,922.38,257.5994" style="stroke:#181818;stroke-width:1.0;"/></g><!--link ImageScreen to TranslationContext--><g id="link_ImageScreen_TranslationContext"><path codeLine="118" d="M477,164.4894 C477,195.2594 477,235.6294 477,268.8794 " fill="none" id="ImageScreen-to-TranslationContext" style="stroke:#181818;stroke-width:1.0;stroke-dasharray:7.0,7.0;"/><polygon fill="#181818" points="477,274.8794,481,265.8794,477,269.8794,473,265.8794,477,274.8794" style="stroke:#181818;stroke-width:1.0;"/></g><!--link ImageScreen to UserContext--><g id="link_ImageScreen_UserContext"><path codeLine="119" d="M508.14,164.4194 C525.34,179.9694 548.04,197.0694 572,205.6094 C603.62,216.8794 843.75,199.0594 874,213.6094 C894.14,223.2994 907.6113,235.4629 921.1913,252.7329 " fill="none" id="ImageScreen-to-UserContext" style="stroke:#181818;stroke-width:1.0;stroke-dasharray:7.0,7.0;"/><polygon fill="#181818" points="924.9,257.4494,922.4812,247.9022,921.8094,253.519,916.1926,252.8471,924.9,257.4494" style="stroke:#181818;stroke-width:1.0;"/></g><!--link BilingualScreen to TranslationContext--><g id="link_BilingualScreen_TranslationContext"><path codeLine="121" d="M606.1,181.7694 C577.95,210.9594 546.955,243.0804 520.445,270.5704 " fill="none" id="BilingualScreen-to-TranslationContext" style="stroke:#181818;stroke-width:1.0;stroke-dasharray:7.0,7.0;"/><polygon fill="#181818" points="516.28,274.8894,525.4067,271.1876,519.7508,271.2903,519.6482,265.6343,516.28,274.8894" style="stroke:#181818;stroke-width:1.0;"/></g><!--link BilingualScreen to BilingualHistoryContext--><g id="link_BilingualScreen_BilingualHistoryContext"><path codeLine="122" d="M678.08,181.7694 C690.75,207.8794 703.6106,234.4014 716.2806,260.5114 " fill="none" id="BilingualScreen-to-BilingualHistoryContext" style="stroke:#181818;stroke-width:1.0;stroke-dasharray:7.0,7.0;"/><polygon fill="#181818" points="718.9,265.9094,718.5696,256.0661,716.7172,261.411,711.3722,259.5586,718.9,265.9094" style="stroke:#181818;stroke-width:1.0;"/></g><!--link PhrasesScreen to PhrasesContext--><g id="link_PhrasesScreen_PhrasesContext"><path codeLine="124" d="M281.13,172.8294 C273.25,197.7494 264.8575,224.3081 256.1475,251.8781 " fill="none" id="PhrasesScreen-to-PhrasesContext" style="stroke:#181818;stroke-width:1.0;stroke-dasharray:7.0,7.0;"/><polygon fill="#181818" points="254.34,257.5994,260.8654,250.2224,255.8462,252.8316,253.237,247.8125,254.34,257.5994" style="stroke:#181818;stroke-width:1.0;"/></g><!--link PhrasesScreen to TranslationContext--><g id="link_PhrasesScreen_TranslationContext"><path codeLine="125" d="M334.61,172.8294 C364.94,203.2394 401.963,240.3711 432.263,270.7511 " fill="none" id="PhrasesScreen-to-TranslationContext" style="stroke:#181818;stroke-width:1.0;stroke-dasharray:7.0,7.0;"/><polygon fill="#181818" points="436.5,274.9994,432.9766,265.8023,432.9691,271.4592,427.3123,271.4517,436.5,274.9994" style="stroke:#181818;stroke-width:1.0;"/></g><!--link LoginScreen to UserContext--><g id="link_LoginScreen_UserContext"><path codeLine="127" d="M1011.35,172.8294 C1002.39,197.7494 992.8096,224.3831 982.8996,251.9531 " fill="none" id="LoginScreen-to-UserContext" style="stroke:#181818;stroke-width:1.0;stroke-dasharray:7.0,7.0;"/><polygon fill="#181818" points="980.87,257.5994,987.6786,250.4829,982.5613,252.8941,980.1501,247.7769,980.87,257.5994" style="stroke:#181818;stroke-width:1.0;"/></g><!--link TranslationContext to translationAPI--><g id="link_TranslationContext_translationAPI"><path codeLine="130" d="M424,358.1194 C405.84,372.9294 385.87,390.3094 369,407.6094 C347.85,429.2994 330.3259,450.6789 313.3659,473.0389 " fill="none" id="TranslationContext-to-translationAPI" style="stroke:#181818;stroke-width:1.0;stroke-dasharray:7.0,7.0;"/><polygon fill="#181818" points="309.74,477.8194,318.3659,473.066,312.7616,473.8357,311.992,468.2314,309.74,477.8194" style="stroke:#181818;stroke-width:1.0;"/></g><!--link UserContext to supabase--><g id="link_UserContext_supabase"><path codeLine="131" d="M910.91,375.8294 C899.82,385.4594 887.34,394.0894 874,399.6094 C837.64,414.6394 554.84,389.3394 520,407.6094 C487.87,424.4594 467.4869,453.8151 453.1869,481.5851 " fill="none" id="UserContext-to-supabase" style="stroke:#181818;stroke-width:1.0;stroke-dasharray:7.0,7.0;"/><polygon fill="#181818" points="450.44,486.9194,458.1165,480.7492,452.7291,482.4741,451.0041,477.0867,450.44,486.9194" style="stroke:#181818;stroke-width:1.0;"/></g><!--link UserContext to User--><g id="link_UserContext_User"><path codeLine="132" d="M965.27,375.8294 C967.9,404.9594 970.5509,434.1536 973.1809,463.3036 " fill="none" id="UserContext-to-User" style="stroke:#181818;stroke-width:1.0;stroke-dasharray:7.0,7.0;"/><polygon fill="#181818" points="973.72,469.2794,976.8951,459.9564,973.2707,464.2996,968.9275,460.6752,973.72,469.2794" style="stroke:#181818;stroke-width:1.0;"/></g><!--link TranslationHistoryContext to supabase--><g id="link_TranslationHistoryContext_supabase"><path codeLine="133" d="M1105.68,375.7594 C1087.03,385.5294 1066.93,394.2294 1047,399.6094 C1018.73,407.2394 545.98,394.1094 520,407.6094 C487.81,424.3394 467.42,453.7115 453.15,481.5115 " fill="none" id="TranslationHistoryContext-to-supabase" style="stroke:#181818;stroke-width:1.0;stroke-dasharray:7.0,7.0;"/><polygon fill="#181818" points="450.41,486.8494,458.0785,480.6693,452.6933,482.4012,450.9614,477.016,450.41,486.8494" style="stroke:#181818;stroke-width:1.0;"/></g><!--link TranslationHistoryContext to TranslationRecord--><g id="link_TranslationHistoryContext_TranslationRecord"><path codeLine="134" d="M1193.55,375.8294 C1193.78,399.2494 1193.9823,420.5897 1194.2223,445.5497 " fill="none" id="TranslationHistoryContext-to-TranslationRecord" style="stroke:#181818;stroke-width:1.0;stroke-dasharray:7.0,7.0;"/><polygon fill="#181818" points="1194.28,451.5494,1198.1933,442.5113,1194.2319,446.5496,1190.1937,442.5883,1194.28,451.5494" style="stroke:#181818;stroke-width:1.0;"/></g><!--link BilingualHistoryContext to supabase--><g id="link_BilingualHistoryContext_supabase"><path codeLine="135" d="M677.06,367.3094 C657.12,379.9494 634.52,392.0694 612,399.6094 C592.54,406.1194 537.86,397.4994 520,407.6094 C488.65,425.3594 468.3758,454.2758 453.8958,481.6458 " fill="none" id="BilingualHistoryContext-to-supabase" style="stroke:#181818;stroke-width:1.0;stroke-dasharray:7.0,7.0;"/><polygon fill="#181818" points="451.09,486.9494,458.8344,480.8646,453.4282,482.5298,451.763,477.1235,451.09,486.9494" style="stroke:#181818;stroke-width:1.0;"/></g><!--link BilingualHistoryContext to BilingualRecord--><g id="link_BilingualHistoryContext_BilingualRecord"><path codeLine="136" d="M749.6,367.1094 C753.69,397.7894 758.1667,431.3921 762.4567,463.5521 " fill="none" id="BilingualHistoryContext-to-BilingualRecord" style="stroke:#181818;stroke-width:1.0;stroke-dasharray:7.0,7.0;"/><polygon fill="#181818" points="763.25,469.4994,766.0249,460.0495,762.5889,464.5433,758.0951,461.1073,763.25,469.4994" style="stroke:#181818;stroke-width:1.0;"/></g><!--link PhrasesContext to supabase--><g id="link_PhrasesContext_supabase"><path codeLine="137" d="M303.65,375.7594 C315.91,384.5694 328.95,392.9294 342,399.6094 C353.14,405.3094 359.3,399.6994 369,407.6094 C393.97,427.9894 408.3669,455.1452 418.3669,481.2952 " fill="none" id="PhrasesContext-to-supabase" style="stroke:#181818;stroke-width:1.0;stroke-dasharray:7.0,7.0;"/><polygon fill="#181818" points="420.51,486.8994,421.0315,477.0643,418.7241,482.2292,413.5592,479.9218,420.51,486.8994" style="stroke:#181818;stroke-width:1.0;"/></g><!--link PhrasesContext to Phrase--><g id="link_PhrasesContext_Phrase"><path codeLine="138" d="M298.66,375.8094 C312.1,385.3694 326.84,393.9894 342,399.6094 C374.13,411.5294 465.32,392.3494 496,407.6094 C523.31,421.1894 542.5352,440.9967 559.4852,464.4467 " fill="none" id="PhrasesContext-to-Phrase" style="stroke:#181818;stroke-width:1.0;stroke-dasharray:7.0,7.0;"/><polygon fill="#181818" points="563,469.3094,560.9696,459.6721,560.071,465.2571,554.4859,464.3585,563,469.3094" style="stroke:#181818;stroke-width:1.0;"/></g><!--link ImageScreen to ocrAPI--><g id="link_ImageScreen_ocrAPI"><path codeLine="140" d="M446.23,164.3594 C429.22,179.8994 406.76,196.9994 383,205.6094 C369.88,210.3594 142.32,204.2194 132,213.6094 C52.52,285.8894 69.8944,425.0217 83.1244,489.5217 " fill="none" id="ImageScreen-to-ocrAPI" style="stroke:#181818;stroke-width:1.0;stroke-dasharray:7.0,7.0;"/><polygon fill="#181818" points="84.33,495.3994,86.44,485.7792,83.3253,490.5013,78.6032,487.3867,84.33,495.3994" style="stroke:#181818;stroke-width:1.0;"/></g><!--SRC=[hLPTQzim57tNhn0PB2dRsZsEFXISb6w1hYr9-pH6KEGRHyIHZ2HdwxR-zrt5RYfRKiDWAIHKv-ZU8zqlMM5Be3DWtD8RPiKEQ5PLDDDyBInmMsiWn6o4h9XcMyfBPanchHRBsiAKApaNlu1-z2Wvh5XTsYibxGtR0XrCfGKzy1WLunjMm1X_2grgcKzKgJHzS_N9_H7IudJ0KCbepZM0D2S3-fjG_Embq7lDf2bHC2hO4rhKVTwjcSnBy2YJKl3Dw2HWtC_RnIVFz7IBpbD6z-0TMeCyidKiIY6BcfMfxVCAs2OBbUpNnv7r7woA-BbRQsR0X5vMOFcwHKDhMPutMCJajIf4yYhtO6Xl1eKm6Do3kISlU4RpCymF2pyj1j4o2_JjtWllXVB1W9wqHC-pMwOrVhqi6L78gHp1bedoFQQHCITzC3EVQp1sr0DkQtiG6S-YY88Az4hfhKVopRRe9RWoGIoJUSXCUVk2zwRqOyIfHve1Lph_zftQOADtEhQ3XC8SIXIN0AqgYXAks4vfBFIOt4CofyKUA0UfozwcVn2AzdUWJVVwt7UO-14f3O8ANCgqj0XQW0GjU41WlTBmTFLAff_Zh1AOtw1tWaE_IvcwOalSx0jbjLrx1QlLTcJPieH81BouPtTJtmWUCdcNBX-lcGj20I7YfMaqwehhqDVjP3OIhlCzQ96w1_jOWQ6ZIuNLAUbNXPSNANJViCZFgS5H8ekNjNrjXyiI9qcuMcbOWTQGByhsl1rEglYQP3sc1Ei2cnuh5oxJGlWvDkWyJZ2grXpYoXeBJ1TWNo48irYrzNbEbqgLm6IyB7frUEnenaqRq0iZShGyp8Rq3nsEX__bx9rBRqhdc9ou4uxs2-mW8P88DdeUuakcYR5PYyeS7W_qmmLjUmQEZF3jS7fw4Pa5nudTpfZWU_ED4FznaV3QftJszryO2HinMgAV4z9zJJXgjyr6216Nn7z11Bg3o3o7muK66uuvQpe6YOnaPwpR2ed_Pd3mSwCD0FS_IG_UpjxNQK438Qa1sJ7w6gbNjgGttJfs8bYp5EPKqyB9Nm00]--></g></svg>