<svg xmlns="http://www.w3.org/2000/svg" xmlns:xlink="http://www.w3.org/1999/xlink" contentStyleType="text/css" data-diagram-type="DESCRIPTION" height="602px" preserveAspectRatio="none" style="width:626px;height:602px;background:#FFFFFF;" version="1.1" viewBox="0 0 626 602" width="626px" zoomAndPan="magnify"><title>Deployment Diagram - Translator App</title><defs/><g><g class="title" data-source-line="1"><text fill="#000000" font-family="'Inter'" font-size="14" font-weight="bold" lengthAdjust="spacing" textLength="300.0977" x="156.1396" y="22.9951">Deployment Diagram - Translator App</text></g><!--cluster Device--><g class="cluster" data-entity="Device" data-source-line="8" data-uid="ent0002" id="cluster_Device"><polygon fill="#F8F8F8" points="16,53.2969,26,43.2969,336,43.2969,336,168.2969,326,178.2969,16,178.2969,16,53.2969" style="stroke:#000000;stroke-width:1;"/><line style="stroke:#000000;stroke-width:1;" x1="326" x2="336" y1="53.2969" y2="43.2969"/><line style="stroke:#000000;stroke-width:1;" x1="16" x2="326" y1="53.2969" y2="53.2969"/><line style="stroke:#000000;stroke-width:1;" x1="326" x2="326" y1="53.2969" y2="178.2969"/><text fill="#000000" font-family="'Inter'" font-size="14" font-style="italic" lengthAdjust="spacing" textLength="100.2285" x="121.8857" y="69.292">&#171;Android/iOS&#187;</text><text fill="#000000" font-family="'Inter'" font-size="14" font-weight="bold" lengthAdjust="spacing" textLength="151.3477" x="96.3262" y="85.5889">User Mobile Device</text></g><!--cluster Internet--><g class="cluster" data-entity="Internet" data-source-line="12" data-uid="ent0004" id="cluster_Internet"><path d="M50.1446,250.7154 C63.2534,234.1941 81.3652,233.87 88.8766,256.2836 C96.1368,235.6259 115.1004,231.3117 128.3715,250.2948 C140.9506,232.1104 151.8977,235.0912 163.9178,250.8797 C176.0933,229.7807 194.9216,234.0255 205.4873,252.5678 C213.867,233.8137 228.3599,235.2691 240.1014,248.9839 C254.131,233.1431 267.6186,229.8681 278.9964,251.7202 C285.9789,232.6203 303.4706,233.6551 314.8762,246.7982 C325.3978,230.4545 342.7791,229.9602 353.828,246.1671 C368.3443,231.5574 380.6119,228.5188 391.0145,250.3634 C403.3824,230.1235 418.7421,233.1447 429.32,252.1122 C443.1839,230.1012 456.6078,232.5706 470.2963,252.2844 C482.4821,235.032 493.3317,238.4335 503.1608,254.6019 C515.953,239.0631 527.0507,234.2251 540.2509,254.1755 C555.0452,236.2216 572.1001,234.6829 584,257.2969 C586.1002,258.7383 585.9931,260.0915 584.1813,261.6942 C602.3827,271.4998 604.2043,286.9524 589.0141,300.8765 C605.4639,307.2203 612.4373,323.5342 595.5076,336.0417 C611.5452,345.1699 614.8504,357.5779 597.7788,368.9885 C615.5008,379.5537 619.3769,398.6423 600.0253,411.1815 C614.8131,423.8845 608.6927,438.9913 591.2018,442.6411 C613.4376,454.8271 613.6453,474.0732 590.1131,485.0852 C606.0095,496.4726 609.2108,507.9734 591.1658,520.3735 C607.1239,537.6811 599.9435,556.4676 577,559.7969 C581.3627,559.4954 582.8356,561.1522 581.3835,565.3999 C570.639,584.6627 556.3876,587.3771 543.5771,567.39 C532.993,586.7816 514.1816,584.5975 503.2911,567.7305 C492.2338,586.6357 479.7877,584.342 468.7492,567.7123 C455.9833,589.6841 439.9559,588.759 427.3375,567.5707 C418.4694,585.915 400.3176,585.8104 390.6745,568.3646 C380.873,583.615 365.1005,581.9363 357.2731,566.2343 C349.4555,591.2373 328.0716,595.0405 312.7933,573.3398 C299.5795,590.984 287.3508,588.9553 277.9691,569.7212 C266.7446,585.8639 246.9039,588.7032 237.7378,567.5034 C224.2906,587.5458 211.6289,581.7189 199.8406,565.7572 C191.3994,583.0568 175.046,580.787 165.7856,566.6443 C153.7176,583.6832 137.8838,583.9651 128.1353,564.2671 C119.1249,580.8821 101.16,582.9612 89.7666,567.0808 C70.4848,583.7467 48.1244,577.6377 41,552.7969 C43.3094,551.7404 44.3914,552.9512 44.258,555.2028 C24.8676,545.3876 29.196,526.7572 44.6387,517.2918 C27.6419,506.1773 32.4094,494.1612 46.4947,484.8234 C28.2716,477.0707 25.9418,459.2086 40.5082,446.3534 C21.6999,431.7001 22.2295,414.3048 45.8415,405.1412 C26.8023,397.7894 27.997,381.8797 42.8527,371.5152 C27.913,356.6215 28.806,344.0222 46.5829,332.2353 C31.9751,323.6509 32.2054,308.0819 47.3482,300.2083 C20.793,284.7089 26.6802,265.1711 48,250.2969 C48.8248,249.4781 49.6935,249.619 50.1446,250.7154" fill="none" style="stroke:#181818;stroke-width:1;"/><text fill="#000000" font-family="'Inter'" font-size="14" font-weight="bold" lengthAdjust="spacing" textLength="64.4219" x="280.2891" y="268.292">Internet</text></g><!--cluster SupabaseNode--><g class="cluster" data-entity="SupabaseNode" data-source-line="14" data-uid="ent0005" id="cluster_SupabaseNode"><polygon fill="#F8F8F8" points="65,303.7969,75,293.7969,267,293.7969,267,400.7969,257,410.7969,65,410.7969,65,303.7969" style="stroke:#000000;stroke-width:1;"/><line style="stroke:#000000;stroke-width:1;" x1="257" x2="267" y1="303.7969" y2="293.7969"/><line style="stroke:#000000;stroke-width:1;" x1="65" x2="257" y1="303.7969" y2="303.7969"/><line style="stroke:#000000;stroke-width:1;" x1="257" x2="257" y1="303.7969" y2="410.7969"/><text fill="#000000" font-family="'Inter'" font-size="14" font-weight="bold" lengthAdjust="spacing" textLength="126.3691" x="98.8154" y="319.792">Supabase Cloud</text></g><!--cluster RapidAPI--><g class="cluster" data-entity="RapidAPI" data-source-line="18" data-uid="ent0007" id="cluster_RapidAPI"><polygon fill="#F8F8F8" points="307,303.2969,317,293.2969,560,293.2969,560,525.7969,550,535.7969,307,535.7969,307,303.2969" style="stroke:#000000;stroke-width:1;"/><line style="stroke:#000000;stroke-width:1;" x1="550" x2="560" y1="303.2969" y2="293.2969"/><line style="stroke:#000000;stroke-width:1;" x1="307" x2="550" y1="303.2969" y2="303.2969"/><line style="stroke:#000000;stroke-width:1;" x1="550" x2="550" y1="303.2969" y2="535.7969"/><text fill="#000000" font-family="'Inter'" font-size="14" font-weight="bold" lengthAdjust="spacing" textLength="144.8809" x="357.0596" y="319.292">RapidAPI Gateway</text></g><!--entity App--><g class="entity" data-entity="App" data-source-line="9" data-uid="ent0003" id="entity_App"><rect fill="#F1F1F1" height="62.5938" rx="2.5" ry="2.5" style="stroke:#181818;stroke-width:0.5;" width="288.2813" x="32" y="99.2969"/><rect fill="#F1F1F1" height="10" style="stroke:#181818;stroke-width:0.5;" width="15" x="300.2813" y="104.2969"/><rect fill="#F1F1F1" height="2" style="stroke:#181818;stroke-width:0.5;" width="4" x="298.2813" y="106.2969"/><rect fill="#F1F1F1" height="2" style="stroke:#181818;stroke-width:0.5;" width="4" x="298.2813" y="110.2969"/><text fill="#000000" font-family="'Inter'" font-size="14" font-style="italic" lengthAdjust="spacing" textLength="155.3672" x="93.457" y="132.292">&#171;React Native / Expo&#187;</text><text fill="#000000" font-family="'Inter'" font-size="14" lengthAdjust="spacing" textLength="248.2813" x="47" y="148.5889">RTTC - Real Time Translation Client</text></g><!--entity DB--><g class="entity" data-entity="DB" data-source-line="15" data-uid="ent0006" id="entity_DB"><path d="M117,351.7969 C117,341.7969 179.7939,341.7969 179.7939,341.7969 C179.7939,341.7969 242.5879,341.7969 242.5879,351.7969 L242.5879,377.0938 C242.5879,387.0938 179.7939,387.0938 179.7939,387.0938 C179.7939,387.0938 117,387.0938 117,377.0938 L117,351.7969" fill="#F1F1F1" style="stroke:#181818;stroke-width:0.5;"/><path d="M117,351.7969 C117,361.7969 179.7939,361.7969 179.7939,361.7969 C179.7939,361.7969 242.5879,361.7969 242.5879,351.7969" fill="none" style="stroke:#181818;stroke-width:0.5;"/><text fill="#000000" font-family="'Inter'" font-size="14" lengthAdjust="spacing" textLength="105.5879" x="127" y="378.792">PostgreSQL DB</text></g><!--entity TransAPI--><g class="entity" data-entity="TransAPI" data-source-line="19" data-uid="ent0008" id="entity_TransAPI"><rect fill="#F1F1F1" height="46.2969" rx="2.5" ry="2.5" style="stroke:#181818;stroke-width:0.5;" width="186.043" x="350" y="341.2969"/><rect fill="#F1F1F1" height="10" style="stroke:#181818;stroke-width:0.5;" width="15" x="516.043" y="346.2969"/><rect fill="#F1F1F1" height="2" style="stroke:#181818;stroke-width:0.5;" width="4" x="514.043" y="348.2969"/><rect fill="#F1F1F1" height="2" style="stroke:#181818;stroke-width:0.5;" width="4" x="514.043" y="352.2969"/><text fill="#000000" font-family="'Inter'" font-size="14" lengthAdjust="spacing" textLength="146.043" x="365" y="374.292">Google Translate API</text></g><!--entity OCRService--><g class="entity" data-entity="OCRService" data-source-line="20" data-uid="ent0009" id="entity_OCRService"><rect fill="#F1F1F1" height="46.2969" rx="2.5" ry="2.5" style="stroke:#181818;stroke-width:0.5;" width="97.1211" x="394.5" y="465.7969"/><rect fill="#F1F1F1" height="10" style="stroke:#181818;stroke-width:0.5;" width="15" x="471.6211" y="470.7969"/><rect fill="#F1F1F1" height="2" style="stroke:#181818;stroke-width:0.5;" width="4" x="469.6211" y="472.7969"/><rect fill="#F1F1F1" height="2" style="stroke:#181818;stroke-width:0.5;" width="4" x="469.6211" y="476.7969"/><text fill="#000000" font-family="'Inter'" font-size="14" lengthAdjust="spacing" textLength="57.1211" x="409.5" y="498.792">OCR API</text></g><!--link App to SupabaseNode--><g class="link" data-entity-1="App" data-entity-2="SupabaseNode" data-source-line="25" data-uid="lnk10" id="link_App_SupabaseNode"><path d="M147.28,162.5669 C131.04,181.7569 111.87,207.7769 101,234.2969 C95.5925,247.4944 91.6956,262.0087 88.8934,276.3927 C88.1929,279.9886 87.5608,283.5765 86.9906,287.1335 C86.7054,288.912 86.4358,290.6829 86.1809,292.4432 C86.1171,292.8833 86.8928,287.3816 86.8309,287.8203" fill="none" id="App-to-SupabaseNode" style="stroke:#333333;stroke-width:1;"/><polygon fill="#333333" points="85.9924,293.7614,91.2109,285.4087,86.6911,288.8105,83.2894,284.2907,85.9924,293.7614" style="stroke:#333333;stroke-width:1;"/><text fill="#000000" font-family="'Inter'" font-size="13" lengthAdjust="spacing" textLength="87.8325" x="125.1108" y="207.3638">HTTPS / REST</text><text fill="#000000" font-family="'Inter'" font-size="13" lengthAdjust="spacing" textLength="90.0542" x="124" y="222.4966">(Data &amp; Auth)</text></g><!--link App to RapidAPI--><g class="link" data-entity-1="App" data-entity-2="RapidAPI" data-source-line="26" data-uid="lnk11" id="link_App_RapidAPI"><path d="M204.52,162.4569 C221.75,182.0069 243.33,208.4569 259,234.2969 C274.95,260.6019 288.765,292.2619 298.6825,317.6344 C301.1619,323.9775 303.3977,329.9277 305.3623,335.3029 C305.8535,336.6467 306.3277,337.9546 306.7845,339.2238 C306.8416,339.3824 304.8697,333.8938 304.9262,334.0513" fill="none" id="App-to-RapidAPI" style="stroke:#333333;stroke-width:1;"/><polygon fill="#333333" points="306.955,339.6978,307.6762,329.8754,305.2644,334.9924,300.1474,332.5805,306.955,339.6978" style="stroke:#333333;stroke-width:1;"/><text fill="#000000" font-family="'Inter'" font-size="13" lengthAdjust="spacing" textLength="87.8325" x="254" y="207.3638">HTTPS / REST</text><text fill="#000000" font-family="'Inter'" font-size="13" lengthAdjust="spacing" textLength="65.8823" x="264.9751" y="222.4966">(API Calls)</text></g><!--link TransAPI to OCRService--><!--SRC=[RP1FJzmm4CNl_XIZL6hB8Q9IBrM58krcWIAropO99-XXYAUBXTSJEGuKLVtkZ9tidm8JANB6ltbvRu89bc11dUMd3Ra02uDhZnl8eV7eUek1FSowJgd-thWEuvsctpZOSCOkB753a5suG3ux81nhccDxl_OyE5so5P5tPr_Yyv9YhybFnATK1mHwpu_JvUTKIiKfoAvwyl23Rqso_s1QoW3xwGWd9pEdFHjzR2xhee2_2gHQtdJiOigiQffICbQ45XeZ6RPf3JiehH4ewKbo4HEi3R2KsmU2OpZzqt5Hg7zAjPO7FULt92FZZz9hz5aF7TvYJo8gQDBSjfOH60TYQGmZcQsu3sjFzS_li9YFiUO9ap_kbIliZ9wjBk0S0ptYKm9tpRtkGUfpvhNTPoKGCesbZdoyDNHPLZjEpZNvkEB9ZpZw02KxHsrSNQ_YmlAy-3_aL_ZMDAjQLbUTrisD-xYGhF0UPaEuEzgDxBo_mcEpH6lx8wNKrYlartT6QtA_yWDVpm00]--></g></svg>