<?xml version="1.0" encoding="us-ascii" standalone="no"?><svg xmlns="http://www.w3.org/2000/svg" xmlns:xlink="http://www.w3.org/1999/xlink" contentStyleType="text/css" height="599px" preserveAspectRatio="none" style="width:1197px;height:599px;background:#FFFFFF;" version="1.1" viewBox="0 0 1197 599" width="1197px" zoomAndPan="magnify"><defs/><g><text fill="#000000" font-family="Inter" font-size="14" font-weight="bold" lengthAdjust="spacing" textLength="247" x="468" y="24.5332">Logical Architecture - Layered View</text><!--cluster Presentation Layer (UI)--><g id="cluster_Presentation Layer (UI)"><path d="M8.5,44.6094 L169.5,44.6094 A3.75,3.75 0 0 1 172,47.1094 L179,68.2188 L454.5,68.2188 A2.5,2.5 0 0 1 457,70.7188 L457,290.1094 A2.5,2.5 0 0 1 454.5,292.6094 L8.5,292.6094 A2.5,2.5 0 0 1 6,290.1094 L6,47.1094 A2.5,2.5 0 0 1 8.5,44.6094 " fill="#F8F8F8" style="stroke:#000000;stroke-width:1.5;"/><line style="stroke:#000000;stroke-width:1.5;" x1="6" x2="179" y1="68.2188" y2="68.2188"/><text fill="#000000" font-family="Inter" font-size="14" font-weight="bold" lengthAdjust="spacing" textLength="160" x="10" y="61.1426">Presentation Layer (UI)</text></g><!--cluster Application Layer (State & Logic)--><g id="cluster_Application Layer (State &amp; Logic)"><path d="M483.5,192.6094 L710.5,192.6094 A3.75,3.75 0 0 1 713,195.1094 L720,216.2188 L1187.5,216.2188 A2.5,2.5 0 0 1 1190,218.7188 L1190,290.1094 A2.5,2.5 0 0 1 1187.5,292.6094 L483.5,292.6094 A2.5,2.5 0 0 1 481,290.1094 L481,195.1094 A2.5,2.5 0 0 1 483.5,192.6094 " fill="#F8F8F8" style="stroke:#000000;stroke-width:1.5;"/><line style="stroke:#000000;stroke-width:1.5;" x1="481" x2="720" y1="216.2188" y2="216.2188"/><text fill="#000000" font-family="Inter" font-size="14" font-weight="bold" lengthAdjust="spacing" textLength="226" x="485" y="209.1426">Application Layer (State &amp; Logic)</text></g><!--cluster Infrastructure Layer (Data Access)--><g id="cluster_Infrastructure Layer (Data Access)"><path d="M303.5,342.6094 L542.5,342.6094 A3.75,3.75 0 0 1 545,345.1094 L552,366.2188 L1070.5,366.2188 A2.5,2.5 0 0 1 1073,368.7188 L1073,440.1094 A2.5,2.5 0 0 1 1070.5,442.6094 L303.5,442.6094 A2.5,2.5 0 0 1 301,440.1094 L301,345.1094 A2.5,2.5 0 0 1 303.5,342.6094 " fill="#F8F8F8" style="stroke:#000000;stroke-width:1.5;"/><line style="stroke:#000000;stroke-width:1.5;" x1="301" x2="552" y1="366.2188" y2="366.2188"/><text fill="#000000" font-family="Inter" font-size="14" font-weight="bold" lengthAdjust="spacing" textLength="238" x="305" y="359.1426">Infrastructure Layer (Data Access)</text></g><!--cluster Domain Layer (Model)--><g id="cluster_Domain Layer (Model)"><path d="M778.5,492.6094 L931.5,492.6094 A3.75,3.75 0 0 1 934,495.1094 L941,516.2188 L963.5,516.2188 A2.5,2.5 0 0 1 966,518.7188 L966,590.1094 A2.5,2.5 0 0 1 963.5,592.6094 L778.5,592.6094 A2.5,2.5 0 0 1 776,590.1094 L776,495.1094 A2.5,2.5 0 0 1 778.5,492.6094 " fill="#F8F8F8" style="stroke:#000000;stroke-width:1.5;"/><line style="stroke:#000000;stroke-width:1.5;" x1="776" x2="941" y1="516.2188" y2="516.2188"/><text fill="#000000" font-family="Inter" font-size="14" font-weight="bold" lengthAdjust="spacing" textLength="152" x="780" y="509.1426">Domain Layer (Model)</text></g><!--entity Screens--><g id="elem_Screens"><rect fill="#F1F1F1" height="47.6094" rx="2.5" ry="2.5" style="stroke:#181818;stroke-width:0.5;" width="146" x="295" y="80.6094"/><rect fill="#F1F1F1" height="10" style="stroke:#181818;stroke-width:0.5;" width="15" x="421" y="85.6094"/><rect fill="#F1F1F1" height="2" style="stroke:#181818;stroke-width:0.5;" width="4" x="419" y="87.6094"/><rect fill="#F1F1F1" height="2" style="stroke:#181818;stroke-width:0.5;" width="4" x="419" y="91.6094"/><text fill="#000000" font-family="Inter" font-size="14" lengthAdjust="spacing" textLength="106" x="310" y="115.1426">Screens (Pages)</text></g><!--entity Components--><g id="elem_Components"><rect fill="#F1F1F1" height="47.6094" rx="2.5" ry="2.5" style="stroke:#181818;stroke-width:0.5;" width="185" x="22.5" y="228.6094"/><rect fill="#F1F1F1" height="10" style="stroke:#181818;stroke-width:0.5;" width="15" x="187.5" y="233.6094"/><rect fill="#F1F1F1" height="2" style="stroke:#181818;stroke-width:0.5;" width="4" x="185.5" y="235.6094"/><rect fill="#F1F1F1" height="2" style="stroke:#181818;stroke-width:0.5;" width="4" x="185.5" y="239.6094"/><text fill="#000000" font-family="Inter" font-size="14" lengthAdjust="spacing" textLength="145" x="37.5" y="263.1426">Components (Widgets)</text></g><!--entity Nav--><g id="elem_Nav"><rect fill="#F1F1F1" height="47.6094" rx="2.5" ry="2.5" style="stroke:#181818;stroke-width:0.5;" width="198" x="243" y="228.6094"/><rect fill="#F1F1F1" height="10" style="stroke:#181818;stroke-width:0.5;" width="15" x="421" y="233.6094"/><rect fill="#F1F1F1" height="2" style="stroke:#181818;stroke-width:0.5;" width="4" x="419" y="235.6094"/><rect fill="#F1F1F1" height="2" style="stroke:#181818;stroke-width:0.5;" width="4" x="419" y="239.6094"/><text fill="#000000" font-family="Inter" font-size="14" lengthAdjust="spacing" textLength="158" x="258" y="263.1426">Navigation (Expo Router)</text></g><!--entity UserCtx--><g id="elem_UserCtx"><rect fill="#F1F1F1" height="47.6094" rx="2.5" ry="2.5" style="stroke:#181818;stroke-width:0.5;" width="121" x="497.5" y="228.6094"/><rect fill="#F1F1F1" height="10" style="stroke:#181818;stroke-width:0.5;" width="15" x="598.5" y="233.6094"/><rect fill="#F1F1F1" height="2" style="stroke:#181818;stroke-width:0.5;" width="4" x="596.5" y="235.6094"/><rect fill="#F1F1F1" height="2" style="stroke:#181818;stroke-width:0.5;" width="4" x="596.5" y="239.6094"/><text fill="#000000" font-family="Inter" font-size="14" lengthAdjust="spacing" textLength="81" x="512.5" y="263.1426">User Context</text></g><!--entity TransCtx--><g id="elem_TransCtx"><rect fill="#F1F1F1" height="47.6094" rx="2.5" ry="2.5" style="stroke:#181818;stroke-width:0.5;" width="163" x="1010.5" y="228.6094"/><rect fill="#F1F1F1" height="10" style="stroke:#181818;stroke-width:0.5;" width="15" x="1153.5" y="233.6094"/><rect fill="#F1F1F1" height="2" style="stroke:#181818;stroke-width:0.5;" width="4" x="1151.5" y="235.6094"/><rect fill="#F1F1F1" height="2" style="stroke:#181818;stroke-width:0.5;" width="4" x="1151.5" y="239.6094"/><text fill="#000000" font-family="Inter" font-size="14" lengthAdjust="spacing" textLength="123" x="1025.5" y="263.1426">Translation Context</text></g><!--entity HistCtx--><g id="elem_HistCtx"><rect fill="#F1F1F1" height="47.6094" rx="2.5" ry="2.5" style="stroke:#181818;stroke-width:0.5;" width="142" x="654" y="228.6094"/><rect fill="#F1F1F1" height="10" style="stroke:#181818;stroke-width:0.5;" width="15" x="776" y="233.6094"/><rect fill="#F1F1F1" height="2" style="stroke:#181818;stroke-width:0.5;" width="4" x="774" y="235.6094"/><rect fill="#F1F1F1" height="2" style="stroke:#181818;stroke-width:0.5;" width="4" x="774" y="239.6094"/><text fill="#000000" font-family="Inter" font-size="14" lengthAdjust="spacing" textLength="102" x="669" y="263.1426">History Contexts</text></g><!--entity PhraseCtx--><g id="elem_PhraseCtx"><rect fill="#F1F1F1" height="47.6094" rx="2.5" ry="2.5" style="stroke:#181818;stroke-width:0.5;" width="144" x="831" y="228.6094"/><rect fill="#F1F1F1" height="10" style="stroke:#181818;stroke-width:0.5;" width="15" x="955" y="233.6094"/><rect fill="#F1F1F1" height="2" style="stroke:#181818;stroke-width:0.5;" width="4" x="953" y="235.6094"/><rect fill="#F1F1F1" height="2" style="stroke:#181818;stroke-width:0.5;" width="4" x="953" y="239.6094"/><text fill="#000000" font-family="Inter" font-size="14" lengthAdjust="spacing" textLength="104" x="846" y="263.1426">Phrases Context</text></g><!--entity Supabase--><g id="elem_Supabase"><rect fill="#F1F1F1" height="47.6094" rx="2.5" ry="2.5" style="stroke:#181818;stroke-width:0.5;" width="144" x="682" y="378.6094"/><rect fill="#F1F1F1" height="10" style="stroke:#181818;stroke-width:0.5;" width="15" x="806" y="383.6094"/><rect fill="#F1F1F1" height="2" style="stroke:#181818;stroke-width:0.5;" width="4" x="804" y="385.6094"/><rect fill="#F1F1F1" height="2" style="stroke:#181818;stroke-width:0.5;" width="4" x="804" y="389.6094"/><text fill="#000000" font-family="Inter" font-size="14" lengthAdjust="spacing" textLength="104" x="697" y="413.1426">Supabase Client</text></g><!--entity TransAPI--><g id="elem_TransAPI"><rect fill="#F1F1F1" height="47.6094" rx="2.5" ry="2.5" style="stroke:#181818;stroke-width:0.5;" width="195" x="861.5" y="378.6094"/><rect fill="#F1F1F1" height="10" style="stroke:#181818;stroke-width:0.5;" width="15" x="1036.5" y="383.6094"/><rect fill="#F1F1F1" height="2" style="stroke:#181818;stroke-width:0.5;" width="4" x="1034.5" y="385.6094"/><rect fill="#F1F1F1" height="2" style="stroke:#181818;stroke-width:0.5;" width="4" x="1034.5" y="389.6094"/><text fill="#000000" font-family="Inter" font-size="14" lengthAdjust="spacing" textLength="155" x="876.5" y="413.1426">Translation API Wrapper</text></g><!--entity OCRAPI--><g id="elem_OCRAPI"><rect fill="#F1F1F1" height="47.6094" rx="2.5" ry="2.5" style="stroke:#181818;stroke-width:0.5;" width="155" x="491.5" y="378.6094"/><rect fill="#F1F1F1" height="10" style="stroke:#181818;stroke-width:0.5;" width="15" x="626.5" y="383.6094"/><rect fill="#F1F1F1" height="2" style="stroke:#181818;stroke-width:0.5;" width="4" x="624.5" y="385.6094"/><rect fill="#F1F1F1" height="2" style="stroke:#181818;stroke-width:0.5;" width="4" x="624.5" y="389.6094"/><text fill="#000000" font-family="Inter" font-size="14" lengthAdjust="spacing" textLength="115" x="506.5" y="413.1426">OCR API Wrapper</text></g><!--entity Storage--><g id="elem_Storage"><rect fill="#F1F1F1" height="47.6094" rx="2.5" ry="2.5" style="stroke:#181818;stroke-width:0.5;" width="139" x="317.5" y="378.6094"/><rect fill="#F1F1F1" height="10" style="stroke:#181818;stroke-width:0.5;" width="15" x="436.5" y="383.6094"/><rect fill="#F1F1F1" height="2" style="stroke:#181818;stroke-width:0.5;" width="4" x="434.5" y="385.6094"/><rect fill="#F1F1F1" height="2" style="stroke:#181818;stroke-width:0.5;" width="4" x="434.5" y="389.6094"/><text fill="#000000" font-family="Inter" font-size="14" lengthAdjust="spacing" textLength="99" x="332.5" y="413.1426">Secure Storage</text></g><!--entity Models--><g id="elem_Models"><rect fill="#F1F1F1" height="47.6094" rx="2.5" ry="2.5" style="stroke:#181818;stroke-width:0.5;" width="158" x="792" y="528.6094"/><rect fill="#F1F1F1" height="10" style="stroke:#181818;stroke-width:0.5;" width="15" x="930" y="533.6094"/><rect fill="#F1F1F1" height="2" style="stroke:#181818;stroke-width:0.5;" width="4" x="928" y="535.6094"/><rect fill="#F1F1F1" height="2" style="stroke:#181818;stroke-width:0.5;" width="4" x="928" y="539.6094"/><text fill="#000000" font-family="Inter" font-size="14" lengthAdjust="spacing" textLength="118" x="807" y="563.1426">Types &amp; Interfaces</text></g><!--link Screens to Nav--><g id="link_Screens_Nav"><path d="M363.88,128.7394 C359.01,156.0794 352.012,195.3823 347.152,222.6723 " fill="none" id="Screens-to-Nav" style="stroke:#181818;stroke-width:1.0;stroke-dasharray:7.0,7.0;"/><polygon fill="#181818" points="346.1,228.5794,351.616,220.4201,346.9766,223.6568,343.7399,219.0175,346.1,228.5794" style="stroke:#181818;stroke-width:1.0;"/><text fill="#000000" font-family="Inter" font-size="13" lengthAdjust="spacing" textLength="28" x="360" y="173.1045">uses</text></g><!--link Screens to Components--><g id="link_Screens_Components"><path d="M325.19,128.6494 C296.63,144.1594 258.36,165.2494 225,184.6094 C200.44,198.8694 178.2864,212.319 157.0364,225.429 " fill="none" id="Screens-to-Components" style="stroke:#181818;stroke-width:1.0;stroke-dasharray:7.0,7.0;"/><polygon fill="#181818" points="151.93,228.5794,161.6898,227.2581,156.1853,225.9541,157.4894,220.4496,151.93,228.5794" style="stroke:#181818;stroke-width:1.0;"/><text fill="#000000" font-family="Inter" font-size="13" lengthAdjust="spacing" textLength="48" x="269" y="173.1045">includes</text></g><!--link Screens to UserCtx--><g id="link_Screens_UserCtx"><path d="M398.11,128.7394 C433.68,156.0794 487.7626,197.6332 523.2726,224.9232 " fill="none" id="Screens-to-UserCtx" style="stroke:#181818;stroke-width:1.0;stroke-dasharray:7.0,7.0;"/><polygon fill="#181818" points="528.03,228.5794,523.3313,219.9236,524.0655,225.5326,518.4565,226.2668,528.03,228.5794" style="stroke:#181818;stroke-width:1.0;"/><text fill="#000000" font-family="Inter" font-size="13" lengthAdjust="spacing" textLength="60" x="458" y="173.1045">consumes</text></g><!--link Screens to TransCtx--><g id="link_Screens_TransCtx"><path d="M441.05,109.9594 C583.85,119.2594 894.63,143.6294 993,184.6094 C1019.05,195.4594 1040.6313,210.009 1059.5713,224.719 " fill="none" id="Screens-to-TransCtx" style="stroke:#181818;stroke-width:1.0;stroke-dasharray:7.0,7.0;"/><polygon fill="#181818" points="1064.31,228.3994,1059.6556,219.7197,1060.3611,225.3324,1054.7484,226.038,1064.31,228.3994" style="stroke:#181818;stroke-width:1.0;"/><text fill="#000000" font-family="Inter" font-size="13" lengthAdjust="spacing" textLength="60" x="966" y="173.1045">consumes</text></g><!--link Screens to HistCtx--><g id="link_Screens_HistCtx"><path d="M441.17,119.7194 C496.6,132.1494 573.6,153.2294 636,184.6094 C659.15,196.2494 677.868,210.1957 694.818,224.5257 " fill="none" id="Screens-to-HistCtx" style="stroke:#181818;stroke-width:1.0;stroke-dasharray:7.0,7.0;"/><polygon fill="#181818" points="699.4,228.3994,695.1095,219.5342,695.5817,225.1713,689.9446,225.6434,699.4,228.3994" style="stroke:#181818;stroke-width:1.0;"/><text fill="#000000" font-family="Inter" font-size="13" lengthAdjust="spacing" textLength="60" x="616" y="173.1045">consumes</text></g><!--link Screens to PhraseCtx--><g id="link_Screens_PhraseCtx"><path d="M441.09,107.6694 C532.16,112.6294 690.8,129.2794 814,184.6094 C837.99,195.3894 857.0904,209.6731 873.9604,224.4031 " fill="none" id="Screens-to-PhraseCtx" style="stroke:#181818;stroke-width:1.0;stroke-dasharray:7.0,7.0;"/><polygon fill="#181818" points="878.48,228.3494,874.3314,219.4169,874.7137,225.0608,869.0697,225.443,878.48,228.3494" style="stroke:#181818;stroke-width:1.0;"/><text fill="#000000" font-family="Inter" font-size="13" lengthAdjust="spacing" textLength="60" x="792" y="173.1045">consumes</text></g><!--link UserCtx to Supabase--><g id="link_UserCtx_Supabase"><path d="M588.62,276.7294 C625.34,304.4594 681.7219,347.0236 718.4819,374.7836 " fill="none" id="UserCtx-to-Supabase" style="stroke:#181818;stroke-width:1.0;stroke-dasharray:7.0,7.0;"/><polygon fill="#181818" points="723.27,378.3994,718.4984,369.7836,719.2799,375.3862,713.6773,376.1677,723.27,378.3994" style="stroke:#181818;stroke-width:1.0;"/><text fill="#000000" font-family="Inter" font-size="13" lengthAdjust="spacing" textLength="54" x="651" y="323.1045">auth/data</text></g><!--link UserCtx to Storage--><g id="link_UserCtx_Storage"><path d="M511.77,276.6094 C494.75,284.6794 475.19,293.4994 457,300.6094 C446.13,304.8594 440.81,300.9594 432,308.6094 C410.87,326.9494 400.481,351.7255 394.261,372.7655 " fill="none" id="UserCtx-to-Storage" style="stroke:#181818;stroke-width:1.0;stroke-dasharray:7.0,7.0;"/><polygon fill="#181818" points="392.56,378.5194,398.9474,371.0226,393.9775,373.7245,391.2756,368.7546,392.56,378.5194" style="stroke:#181818;stroke-width:1.0;"/><text fill="#000000" font-family="Inter" font-size="13" lengthAdjust="spacing" textLength="116" x="433" y="323.1045">session persistence</text></g><!--link TransCtx to TransAPI--><g id="link_TransCtx_TransAPI"><path d="M1071.22,276.7294 C1046.38,304.3794 1009.0501,345.9063 984.0801,373.6963 " fill="none" id="TransCtx-to-TransAPI" style="stroke:#181818;stroke-width:1.0;stroke-dasharray:7.0,7.0;"/><polygon fill="#181818" points="980.07,378.1594,989.0606,374.1383,983.4118,374.4402,983.1099,368.7914,980.07,378.1594" style="stroke:#181818;stroke-width:1.0;"/><text fill="#000000" font-family="Inter" font-size="13" lengthAdjust="spacing" textLength="28" x="1042" y="323.1045">fetch</text></g><!--link PhraseCtx to Supabase--><g id="link_PhraseCtx_Supabase"><path d="M879.72,276.7294 C851.89,304.3794 809.8363,346.1405 781.8663,373.9305 " fill="none" id="PhraseCtx-to-Supabase" style="stroke:#181818;stroke-width:1.0;stroke-dasharray:7.0,7.0;"/><polygon fill="#181818" points="777.61,378.1594,786.8138,374.6535,781.1569,374.6353,781.1752,368.9784,777.61,378.1594" style="stroke:#181818;stroke-width:1.0;"/><text fill="#000000" font-family="Inter" font-size="13" lengthAdjust="spacing" textLength="28" x="847" y="323.1045">fetch</text></g><!--link PhraseCtx to TransAPI--><g id="link_PhraseCtx_TransAPI"><path d="M911.75,276.7294 C922.21,304.3794 937.4858,344.758 948.0058,372.548 " fill="none" id="PhraseCtx-to-TransAPI" style="stroke:#181818;stroke-width:1.0;stroke-dasharray:7.0,7.0;"/><polygon fill="#181818" points="950.13,378.1594,950.6846,368.3261,948.3598,373.4832,943.2028,371.1584,950.13,378.1594" style="stroke:#181818;stroke-width:1.0;"/><text fill="#000000" font-family="Inter" font-size="13" lengthAdjust="spacing" textLength="28" x="930" y="323.1045">fetch</text></g><!--link HistCtx to Supabase--><g id="link_HistCtx_Supabase"><path d="M729.53,276.7294 C734.95,304.3794 742.8074,344.4811 748.2474,372.2711 " fill="none" id="HistCtx-to-Supabase" style="stroke:#181818;stroke-width:1.0;stroke-dasharray:7.0,7.0;"/><polygon fill="#181818" points="749.4,378.1594,751.5965,368.5586,748.4395,373.2525,743.7455,370.0954,749.4,378.1594" style="stroke:#181818;stroke-width:1.0;"/><text fill="#000000" font-family="Inter" font-size="13" lengthAdjust="spacing" textLength="56" x="739" y="323.1045">read/write</text></g><!--link Supabase to Models--><g id="link_Supabase_Models"><path d="M772.28,426.7294 C794.13,454.3794 826.78,495.6618 848.74,523.4518 " fill="none" id="Supabase-to-Models" style="stroke:#181818;stroke-width:1.0;stroke-dasharray:7.0,7.0;"/><polygon fill="#181818" points="852.46,528.1594,850.0184,518.618,849.36,524.2364,843.7416,523.578,852.46,528.1594" style="stroke:#181818;stroke-width:1.0;"/><text fill="#000000" font-family="Inter" font-size="13" lengthAdjust="spacing" textLength="40" x="809" y="473.1045">returns</text></g><!--link TransAPI to Models--><g id="link_TransAPI_Models"><path d="M945.25,426.7294 C928.81,454.3794 904.5259,495.2119 888.0059,523.0019 " fill="none" id="TransAPI-to-Models" style="stroke:#181818;stroke-width:1.0;stroke-dasharray:7.0,7.0;"/><polygon fill="#181818" points="884.94,528.1594,892.9772,522.467,887.4949,523.8614,886.1006,518.3791,884.94,528.1594" style="stroke:#181818;stroke-width:1.0;"/><text fill="#000000" font-family="Inter" font-size="13" lengthAdjust="spacing" textLength="40" x="926" y="473.1045">returns</text></g><!--SRC=[TLJBRjim4BppAnOka3g79a1FXGy5NAL13QIfOULnA7BOK6kRY4GAV3GsYlvxbw9UjXFxO6Dcj3kS8UILBmbkp4P9B65kvLPvaZvOWazmWtkoLC23ebSXt8lIDLgieA0rXj9V6-rliIAOBBGdEnaffAbgeqdxtEzvVgZApoEsHlc26_h6FnjhWYuoKneB7ww_nAyGBG-JfIN7Gz0hevCRcDulpYVmLm1_VkVI4ca7qoNBtVaJe8CMIuAiyy6QHrLioBUgWKZ2M_oZDcdFzFkkDh0oWS-Kn4oAVoDRyxekEQ-ngvnD4fob90U3zux9Z7EYdMz6HI3pkyJUMTIkJ7F6eWRlLJ-KyyRkEuLh917i5SkjHKVkO4R2ecJiVA7N37iRKiMj-Ilq27CfoRbHjg76Pnu1MQaufvHjYvtQdoyNy6YnhiaEHs0mANzbgnC5OpsVaunsSZudsqohqly3zrUcGjL7_jCKL0v-x_OrHt06pLrS8n-ccTEeN1pp4LQKt3hHNPoBYw-nNPX1u00FuD7LcO7IiWp5aQBjacd9CqDrH7SjliUt5Rv7zmME1QBR6HLzGpF0uBUN1TTuA4WPCi-7Sx4c3j_nMjAIHE-lDnihci6QlDoAOVtHghVeawUxinqzQmcBorVBhnWXUZXgKakDWYyc5zHFV9Fz3m00]--></g></svg>