<?xml version="1.0" encoding="us-ascii" standalone="no"?><svg xmlns="http://www.w3.org/2000/svg" xmlns:xlink="http://www.w3.org/1999/xlink" contentStyleType="text/css" height="765px" preserveAspectRatio="none" style="width:2523px;height:765px;background:#FFFFFF;" version="1.1" viewBox="0 0 2523 765" width="2523px" zoomAndPan="magnify"><defs/><g><text fill="#000000" font-family="Inter" font-size="14" font-weight="bold" lengthAdjust="spacing" textLength="377" x="1066" y="24.5332">Package Diagram - Translator App (React Native/Expo)</text><!--cluster AppLayer--><g id="cluster_AppLayer"><path d="M8.5,44.6094 L131.5,44.6094 A3.75,3.75 0 0 1 134,47.1094 L141,68.2188 L1082.5,68.2188 A2.5,2.5 0 0 1 1085,70.7188 L1085,392.1094 A2.5,2.5 0 0 1 1082.5,394.6094 L8.5,394.6094 A2.5,2.5 0 0 1 6,392.1094 L6,47.1094 A2.5,2.5 0 0 1 8.5,44.6094 " fill="#F8F8F8" style="stroke:#A0A0A0;stroke-width:1.5;"/><line style="stroke:#A0A0A0;stroke-width:1.5;" x1="6" x2="141" y1="68.2188" y2="68.2188"/><text fill="#000000" font-family="Inter" font-size="14" font-weight="bold" lengthAdjust="spacing" textLength="122" x="10" y="61.1426">app (Routes &amp; UI)</text></g><!--cluster auth--><g id="cluster_auth"><path d="M923.5,96.6094 L955.5,96.6094 A3.75,3.75 0 0 1 958,99.1094 L965,120.2188 L1042.5,120.2188 A2.5,2.5 0 0 1 1045,122.7188 L1045,194.1094 A2.5,2.5 0 0 1 1042.5,196.6094 L923.5,196.6094 A2.5,2.5 0 0 1 921,194.1094 L921,99.1094 A2.5,2.5 0 0 1 923.5,96.6094 " fill="#F8F8F8" style="stroke:#A0A0A0;stroke-width:1.5;"/><line style="stroke:#A0A0A0;stroke-width:1.5;" x1="921" x2="965" y1="120.2188" y2="120.2188"/><text fill="#000000" font-family="Inter" font-size="14" font-weight="bold" lengthAdjust="spacing" textLength="31" x="925" y="113.1426">auth</text></g><!--cluster tabs--><g id="cluster_tabs"><path d="M458.5,96.6094 L489.5,96.6094 A3.75,3.75 0 0 1 492,99.1094 L499,120.2188 L894.5,120.2188 A2.5,2.5 0 0 1 897,122.7188 L897,360.1094 A2.5,2.5 0 0 1 894.5,362.6094 L458.5,362.6094 A2.5,2.5 0 0 1 456,360.1094 L456,99.1094 A2.5,2.5 0 0 1 458.5,96.6094 " fill="#F8F8F8" style="stroke:#A0A0A0;stroke-width:1.5;"/><line style="stroke:#A0A0A0;stroke-width:1.5;" x1="456" x2="499" y1="120.2188" y2="120.2188"/><text fill="#000000" font-family="Inter" font-size="14" font-weight="bold" lengthAdjust="spacing" textLength="30" x="460" y="113.1426">tabs</text></g><!--cluster history--><g id="cluster_history"><path d="M158.5,96.6094 L207.5,96.6094 A3.75,3.75 0 0 1 210,99.1094 L217,120.2188 L429.5,120.2188 A2.5,2.5 0 0 1 432,122.7188 L432,360.1094 A2.5,2.5 0 0 1 429.5,362.6094 L158.5,362.6094 A2.5,2.5 0 0 1 156,360.1094 L156,99.1094 A2.5,2.5 0 0 1 158.5,96.6094 " fill="#F8F8F8" style="stroke:#A0A0A0;stroke-width:1.5;"/><line style="stroke:#A0A0A0;stroke-width:1.5;" x1="156" x2="217" y1="120.2188" y2="120.2188"/><text fill="#000000" font-family="Inter" font-size="14" font-weight="bold" lengthAdjust="spacing" textLength="48" x="160" y="113.1426">history</text></g><!--cluster ContextLayer--><g id="cluster_ContextLayer"><path d="M1127.5,254.6094 L1352.5,254.6094 A3.75,3.75 0 0 1 1355,257.1094 L1362,278.2188 L2133.5,278.2188 A2.5,2.5 0 0 1 2136,280.7188 L2136,368.1094 A2.5,2.5 0 0 1 2133.5,370.6094 L1127.5,370.6094 A2.5,2.5 0 0 1 1125,368.1094 L1125,257.1094 A2.5,2.5 0 0 1 1127.5,254.6094 " fill="#F8F8F8" style="stroke:#A0A0A0;stroke-width:1.5;"/><line style="stroke:#A0A0A0;stroke-width:1.5;" x1="1125" x2="1362" y1="278.2188" y2="278.2188"/><text fill="#000000" font-family="Inter" font-size="14" font-weight="bold" lengthAdjust="spacing" textLength="224" x="1129" y="271.1426">src/context (State Management)</text></g><!--cluster APILayer--><g id="cluster_APILayer"><path d="M1127.5,460.6094 L1313.5,460.6094 A3.75,3.75 0 0 1 1316,463.1094 L1323,484.2188 L1433.5,484.2188 A2.5,2.5 0 0 1 1436,486.7188 L1436,574.1094 A2.5,2.5 0 0 1 1433.5,576.6094 L1127.5,576.6094 A2.5,2.5 0 0 1 1125,574.1094 L1125,463.1094 A2.5,2.5 0 0 1 1127.5,460.6094 " fill="#F8F8F8" style="stroke:#A0A0A0;stroke-width:1.5;"/><line style="stroke:#A0A0A0;stroke-width:1.5;" x1="1125" x2="1323" y1="484.2188" y2="484.2188"/><text fill="#000000" font-family="Inter" font-size="14" font-weight="bold" lengthAdjust="spacing" textLength="185" x="1129" y="477.1426">src/api (External Services)</text></g><!--cluster ServiceLayer--><g id="cluster_ServiceLayer"><path d="M1478.5,460.6094 L1645.5,460.6094 A3.75,3.75 0 0 1 1648,463.1094 L1655,484.2188 L1655.5,484.2188 A2.5,2.5 0 0 1 1658,486.7188 L1658,574.1094 A2.5,2.5 0 0 1 1655.5,576.6094 L1478.5,576.6094 A2.5,2.5 0 0 1 1476,574.1094 L1476,463.1094 A2.5,2.5 0 0 1 1478.5,460.6094 " fill="#F8F8F8" style="stroke:#A0A0A0;stroke-width:1.5;"/><line style="stroke:#A0A0A0;stroke-width:1.5;" x1="1476" x2="1655" y1="484.2188" y2="484.2188"/><text fill="#000000" font-family="Inter" font-size="14" font-weight="bold" lengthAdjust="spacing" textLength="166" x="1480" y="477.1426">src/services (Database)</text></g><!--cluster TypesLayer--><g id="cluster_TypesLayer"><path d="M1693.5,642.6094 L1872.5,642.6094 A3.75,3.75 0 0 1 1875,645.1094 L1882,666.2188 L1882.5,666.2188 A2.5,2.5 0 0 1 1885,668.7188 L1885,756.1094 A2.5,2.5 0 0 1 1882.5,758.6094 L1693.5,758.6094 A2.5,2.5 0 0 1 1691,756.1094 L1691,645.1094 A2.5,2.5 0 0 1 1693.5,642.6094 " fill="#F8F8F8" style="stroke:#A0A0A0;stroke-width:1.5;"/><line style="stroke:#A0A0A0;stroke-width:1.5;" x1="1691" x2="1882" y1="666.2188" y2="666.2188"/><text fill="#000000" font-family="Inter" font-size="14" font-weight="bold" lengthAdjust="spacing" textLength="178" x="1695" y="659.1426">src/types (Domain Model)</text></g><!--cluster ConstantsLayer--><g id="cluster_ConstantsLayer"><path d="M2230.5,254.6094 L2410.5,254.6094 A3.75,3.75 0 0 1 2413,257.1094 L2420,278.2188 L2513.5,278.2188 A2.5,2.5 0 0 1 2516,280.7188 L2516,368.1094 A2.5,2.5 0 0 1 2513.5,370.6094 L2230.5,370.6094 A2.5,2.5 0 0 1 2228,368.1094 L2228,257.1094 A2.5,2.5 0 0 1 2230.5,254.6094 " fill="#F8F8F8" style="stroke:#A0A0A0;stroke-width:1.5;"/><line style="stroke:#A0A0A0;stroke-width:1.5;" x1="2228" x2="2420" y1="278.2188" y2="278.2188"/><text fill="#000000" font-family="Inter" font-size="14" font-weight="bold" lengthAdjust="spacing" textLength="179" x="2232" y="271.1426">constants (Configuration)</text></g><!--entity _layout.tsx--><g id="elem__layout.tsx"><rect fill="#FFFFFF" height="47.6094" rx="2.5" ry="2.5" style="stroke:#000000;stroke-width:0.5;" width="107" x="30.5" y="132.6094"/><rect fill="#FFFFFF" height="10" style="stroke:#000000;stroke-width:0.5;" width="15" x="117.5" y="137.6094"/><rect fill="#FFFFFF" height="2" style="stroke:#000000;stroke-width:0.5;" width="4" x="115.5" y="139.6094"/><rect fill="#FFFFFF" height="2" style="stroke:#000000;stroke-width:0.5;" width="4" x="115.5" y="143.6094"/><text fill="#000000" font-family="Inter" font-size="14" lengthAdjust="spacing" textLength="67" x="45.5" y="167.1426">_layout.tsx</text></g><!--entity login.tsx--><g id="elem_login.tsx"><rect fill="#FFFFFF" height="47.6094" rx="2.5" ry="2.5" style="stroke:#000000;stroke-width:0.5;" width="91" x="937.5" y="132.6094"/><rect fill="#FFFFFF" height="10" style="stroke:#000000;stroke-width:0.5;" width="15" x="1008.5" y="137.6094"/><rect fill="#FFFFFF" height="2" style="stroke:#000000;stroke-width:0.5;" width="4" x="1006.5" y="139.6094"/><rect fill="#FFFFFF" height="2" style="stroke:#000000;stroke-width:0.5;" width="4" x="1006.5" y="143.6094"/><text fill="#000000" font-family="Inter" font-size="14" lengthAdjust="spacing" textLength="51" x="952.5" y="167.1426">login.tsx</text></g><!--entity translation.tsx--><g id="elem_translation.tsx"><rect fill="#FFFFFF" height="47.6094" rx="2.5" ry="2.5" style="stroke:#000000;stroke-width:0.5;" width="127" x="472.5" y="132.6094"/><rect fill="#FFFFFF" height="10" style="stroke:#000000;stroke-width:0.5;" width="15" x="579.5" y="137.6094"/><rect fill="#FFFFFF" height="2" style="stroke:#000000;stroke-width:0.5;" width="4" x="577.5" y="139.6094"/><rect fill="#FFFFFF" height="2" style="stroke:#000000;stroke-width:0.5;" width="4" x="577.5" y="143.6094"/><text fill="#000000" font-family="Inter" font-size="14" lengthAdjust="spacing" textLength="87" x="487.5" y="167.1426">translation.tsx</text></g><!--entity image.tsx--><g id="elem_image.tsx"><rect fill="#FFFFFF" height="47.6094" rx="2.5" ry="2.5" style="stroke:#000000;stroke-width:0.5;" width="99" x="634.5" y="132.6094"/><rect fill="#FFFFFF" height="10" style="stroke:#000000;stroke-width:0.5;" width="15" x="713.5" y="137.6094"/><rect fill="#FFFFFF" height="2" style="stroke:#000000;stroke-width:0.5;" width="4" x="711.5" y="139.6094"/><rect fill="#FFFFFF" height="2" style="stroke:#000000;stroke-width:0.5;" width="4" x="711.5" y="143.6094"/><text fill="#000000" font-family="Inter" font-size="14" lengthAdjust="spacing" textLength="59" x="649.5" y="167.1426">image.tsx</text></g><!--entity phrases.tsx--><g id="elem_phrases.tsx"><rect fill="#FFFFFF" height="47.6094" rx="2.5" ry="2.5" style="stroke:#000000;stroke-width:0.5;" width="112" x="769" y="132.6094"/><rect fill="#FFFFFF" height="10" style="stroke:#000000;stroke-width:0.5;" width="15" x="861" y="137.6094"/><rect fill="#FFFFFF" height="2" style="stroke:#000000;stroke-width:0.5;" width="4" x="859" y="139.6094"/><rect fill="#FFFFFF" height="2" style="stroke:#000000;stroke-width:0.5;" width="4" x="859" y="143.6094"/><text fill="#000000" font-family="Inter" font-size="14" lengthAdjust="spacing" textLength="72" x="784" y="167.1426">phrases.tsx</text></g><!--entity bilingual.tsx--><g id="elem_bilingual.tsx"><rect fill="#FFFFFF" height="47.6094" rx="2.5" ry="2.5" style="stroke:#000000;stroke-width:0.5;" width="113" x="479.5" y="298.6094"/><rect fill="#FFFFFF" height="10" style="stroke:#000000;stroke-width:0.5;" width="15" x="572.5" y="303.6094"/><rect fill="#FFFFFF" height="2" style="stroke:#000000;stroke-width:0.5;" width="4" x="570.5" y="305.6094"/><rect fill="#FFFFFF" height="2" style="stroke:#000000;stroke-width:0.5;" width="4" x="570.5" y="309.6094"/><text fill="#000000" font-family="Inter" font-size="14" lengthAdjust="spacing" textLength="73" x="494.5" y="333.1426">bilingual.tsx</text></g><!--entity account.tsx--><g id="elem_account.tsx"><rect fill="#FFFFFF" height="47.6094" rx="2.5" ry="2.5" style="stroke:#000000;stroke-width:0.5;" width="111" x="627.5" y="298.6094"/><rect fill="#FFFFFF" height="10" style="stroke:#000000;stroke-width:0.5;" width="15" x="718.5" y="303.6094"/><rect fill="#FFFFFF" height="2" style="stroke:#000000;stroke-width:0.5;" width="4" x="716.5" y="305.6094"/><rect fill="#FFFFFF" height="2" style="stroke:#000000;stroke-width:0.5;" width="4" x="716.5" y="309.6094"/><text fill="#000000" font-family="Inter" font-size="14" lengthAdjust="spacing" textLength="71" x="642.5" y="333.1426">account.tsx</text></g><!--entity HistTrans--><g id="elem_HistTrans"><rect fill="#FFFFFF" height="47.6094" rx="2.5" ry="2.5" style="stroke:#000000;stroke-width:0.5;" width="127" x="172.5" y="132.6094"/><rect fill="#FFFFFF" height="10" style="stroke:#000000;stroke-width:0.5;" width="15" x="279.5" y="137.6094"/><rect fill="#FFFFFF" height="2" style="stroke:#000000;stroke-width:0.5;" width="4" x="277.5" y="139.6094"/><rect fill="#FFFFFF" height="2" style="stroke:#000000;stroke-width:0.5;" width="4" x="277.5" y="143.6094"/><text fill="#000000" font-family="Inter" font-size="14" lengthAdjust="spacing" textLength="87" x="187.5" y="167.1426">translation.tsx</text></g><!--entity HistOCR--><g id="elem_HistOCR"><rect fill="#FFFFFF" height="47.6094" rx="2.5" ry="2.5" style="stroke:#000000;stroke-width:0.5;" width="81" x="334.5" y="132.6094"/><rect fill="#FFFFFF" height="10" style="stroke:#000000;stroke-width:0.5;" width="15" x="395.5" y="137.6094"/><rect fill="#FFFFFF" height="2" style="stroke:#000000;stroke-width:0.5;" width="4" x="393.5" y="139.6094"/><rect fill="#FFFFFF" height="2" style="stroke:#000000;stroke-width:0.5;" width="4" x="393.5" y="143.6094"/><text fill="#000000" font-family="Inter" font-size="14" lengthAdjust="spacing" textLength="41" x="349.5" y="167.1426">ocr.tsx</text></g><!--entity HistBiling--><g id="elem_HistBiling"><rect fill="#FFFFFF" height="47.6094" rx="2.5" ry="2.5" style="stroke:#000000;stroke-width:0.5;" width="113" x="179.5" y="298.6094"/><rect fill="#FFFFFF" height="10" style="stroke:#000000;stroke-width:0.5;" width="15" x="272.5" y="303.6094"/><rect fill="#FFFFFF" height="2" style="stroke:#000000;stroke-width:0.5;" width="4" x="270.5" y="305.6094"/><rect fill="#FFFFFF" height="2" style="stroke:#000000;stroke-width:0.5;" width="4" x="270.5" y="309.6094"/><text fill="#000000" font-family="Inter" font-size="14" lengthAdjust="spacing" textLength="73" x="194.5" y="333.1426">bilingual.tsx</text></g><!--entity UserContext--><g id="elem_UserContext"><rect fill="#FFFFFF" height="47.6094" rx="2.5" ry="2.5" style="stroke:#000000;stroke-width:0.5;" width="117" x="1994.5" y="298.6094"/><rect fill="#FFFFFF" height="10" style="stroke:#000000;stroke-width:0.5;" width="15" x="2091.5" y="303.6094"/><rect fill="#FFFFFF" height="2" style="stroke:#000000;stroke-width:0.5;" width="4" x="2089.5" y="305.6094"/><rect fill="#FFFFFF" height="2" style="stroke:#000000;stroke-width:0.5;" width="4" x="2089.5" y="309.6094"/><text fill="#000000" font-family="Inter" font-size="14" lengthAdjust="spacing" textLength="77" x="2009.5" y="333.1426">UserContext</text></g><!--entity TranslationContext--><g id="elem_TranslationContext"><rect fill="#FFFFFF" height="47.6094" rx="2.5" ry="2.5" style="stroke:#000000;stroke-width:0.5;" width="159" x="1168.5" y="298.6094"/><rect fill="#FFFFFF" height="10" style="stroke:#000000;stroke-width:0.5;" width="15" x="1307.5" y="303.6094"/><rect fill="#FFFFFF" height="2" style="stroke:#000000;stroke-width:0.5;" width="4" x="1305.5" y="305.6094"/><rect fill="#FFFFFF" height="2" style="stroke:#000000;stroke-width:0.5;" width="4" x="1305.5" y="309.6094"/><text fill="#000000" font-family="Inter" font-size="14" lengthAdjust="spacing" textLength="119" x="1183.5" y="333.1426">TranslationContext</text></g><!--entity PhrasesContext--><g id="elem_PhrasesContext"><rect fill="#FFFFFF" height="47.6094" rx="2.5" ry="2.5" style="stroke:#000000;stroke-width:0.5;" width="140" x="1363" y="298.6094"/><rect fill="#FFFFFF" height="10" style="stroke:#000000;stroke-width:0.5;" width="15" x="1483" y="303.6094"/><rect fill="#FFFFFF" height="2" style="stroke:#000000;stroke-width:0.5;" width="4" x="1481" y="305.6094"/><rect fill="#FFFFFF" height="2" style="stroke:#000000;stroke-width:0.5;" width="4" x="1481" y="309.6094"/><text fill="#000000" font-family="Inter" font-size="14" lengthAdjust="spacing" textLength="100" x="1378" y="333.1426">PhrasesContext</text></g><!--entity TranslationHistoryContext--><g id="elem_TranslationHistoryContext"><rect fill="#FFFFFF" height="47.6094" rx="2.5" ry="2.5" style="stroke:#000000;stroke-width:0.5;" width="202" x="1538" y="298.6094"/><rect fill="#FFFFFF" height="10" style="stroke:#000000;stroke-width:0.5;" width="15" x="1720" y="303.6094"/><rect fill="#FFFFFF" height="2" style="stroke:#000000;stroke-width:0.5;" width="4" x="1718" y="305.6094"/><rect fill="#FFFFFF" height="2" style="stroke:#000000;stroke-width:0.5;" width="4" x="1718" y="309.6094"/><text fill="#000000" font-family="Inter" font-size="14" lengthAdjust="spacing" textLength="162" x="1553" y="333.1426">TranslationHistoryContext</text></g><!--entity BilingualHistoryContext--><g id="elem_BilingualHistoryContext"><rect fill="#FFFFFF" height="47.6094" rx="2.5" ry="2.5" style="stroke:#000000;stroke-width:0.5;" width="184" x="1775" y="298.6094"/><rect fill="#FFFFFF" height="10" style="stroke:#000000;stroke-width:0.5;" width="15" x="1939" y="303.6094"/><rect fill="#FFFFFF" height="2" style="stroke:#000000;stroke-width:0.5;" width="4" x="1937" y="305.6094"/><rect fill="#FFFFFF" height="2" style="stroke:#000000;stroke-width:0.5;" width="4" x="1937" y="309.6094"/><text fill="#000000" font-family="Inter" font-size="14" lengthAdjust="spacing" textLength="144" x="1790" y="333.1426">BilingualHistoryContext</text></g><!--entity translationAPI--><g id="elem_translationAPI"><rect fill="#FFFFFF" height="47.6094" rx="2.5" ry="2.5" style="stroke:#000000;stroke-width:0.5;" width="127" x="1284.5" y="504.6094"/><rect fill="#FFFFFF" height="10" style="stroke:#000000;stroke-width:0.5;" width="15" x="1391.5" y="509.6094"/><rect fill="#FFFFFF" height="2" style="stroke:#000000;stroke-width:0.5;" width="4" x="1389.5" y="511.6094"/><rect fill="#FFFFFF" height="2" style="stroke:#000000;stroke-width:0.5;" width="4" x="1389.5" y="515.6094"/><text fill="#000000" font-family="Inter" font-size="14" lengthAdjust="spacing" textLength="87" x="1299.5" y="539.1426">translationAPI</text></g><!--entity ocrAPI--><g id="elem_ocrAPI"><rect fill="#FFFFFF" height="47.6094" rx="2.5" ry="2.5" style="stroke:#000000;stroke-width:0.5;" width="81" x="1168.5" y="504.6094"/><rect fill="#FFFFFF" height="10" style="stroke:#000000;stroke-width:0.5;" width="15" x="1229.5" y="509.6094"/><rect fill="#FFFFFF" height="2" style="stroke:#000000;stroke-width:0.5;" width="4" x="1227.5" y="511.6094"/><rect fill="#FFFFFF" height="2" style="stroke:#000000;stroke-width:0.5;" width="4" x="1227.5" y="515.6094"/><text fill="#000000" font-family="Inter" font-size="14" lengthAdjust="spacing" textLength="41" x="1183.5" y="539.1426">ocrAPI</text></g><!--entity supabase--><g id="elem_supabase"><rect fill="#FFFFFF" height="47.6094" rx="2.5" ry="2.5" style="stroke:#000000;stroke-width:0.5;" width="102" x="1532" y="504.6094"/><rect fill="#FFFFFF" height="10" style="stroke:#000000;stroke-width:0.5;" width="15" x="1614" y="509.6094"/><rect fill="#FFFFFF" height="2" style="stroke:#000000;stroke-width:0.5;" width="4" x="1612" y="511.6094"/><rect fill="#FFFFFF" height="2" style="stroke:#000000;stroke-width:0.5;" width="4" x="1612" y="515.6094"/><text fill="#000000" font-family="Inter" font-size="14" lengthAdjust="spacing" textLength="62" x="1547" y="539.1426">supabase</text></g><!--entity types.ts--><g id="elem_types.ts"><rect fill="#FFFFFF" height="47.6094" rx="2.5" ry="2.5" style="stroke:#000000;stroke-width:0.5;" width="89" x="1761.5" y="686.6094"/><rect fill="#FFFFFF" height="10" style="stroke:#000000;stroke-width:0.5;" width="15" x="1830.5" y="691.6094"/><rect fill="#FFFFFF" height="2" style="stroke:#000000;stroke-width:0.5;" width="4" x="1828.5" y="693.6094"/><rect fill="#FFFFFF" height="2" style="stroke:#000000;stroke-width:0.5;" width="4" x="1828.5" y="697.6094"/><text fill="#000000" font-family="Inter" font-size="14" lengthAdjust="spacing" textLength="49" x="1776.5" y="721.1426">types.ts</text></g><!--entity theme.ts--><g id="elem_theme.ts"><rect fill="#FFFFFF" height="47.6094" rx="2.5" ry="2.5" style="stroke:#000000;stroke-width:0.5;" width="94" x="2398" y="298.6094"/><rect fill="#FFFFFF" height="10" style="stroke:#000000;stroke-width:0.5;" width="15" x="2472" y="303.6094"/><rect fill="#FFFFFF" height="2" style="stroke:#000000;stroke-width:0.5;" width="4" x="2470" y="305.6094"/><rect fill="#FFFFFF" height="2" style="stroke:#000000;stroke-width:0.5;" width="4" x="2470" y="309.6094"/><text fill="#000000" font-family="Inter" font-size="14" lengthAdjust="spacing" textLength="54" x="2413" y="333.1426">theme.ts</text></g><!--entity styles.ts--><g id="elem_styles.ts"><rect fill="#FFFFFF" height="47.6094" rx="2.5" ry="2.5" style="stroke:#000000;stroke-width:0.5;" width="91" x="2271.5" y="298.6094"/><rect fill="#FFFFFF" height="10" style="stroke:#000000;stroke-width:0.5;" width="15" x="2342.5" y="303.6094"/><rect fill="#FFFFFF" height="2" style="stroke:#000000;stroke-width:0.5;" width="4" x="2340.5" y="305.6094"/><rect fill="#FFFFFF" height="2" style="stroke:#000000;stroke-width:0.5;" width="4" x="2340.5" y="309.6094"/><text fill="#000000" font-family="Inter" font-size="14" lengthAdjust="spacing" textLength="51" x="2286.5" y="333.1426">styles.ts</text></g><!--link AppLayer to ContextLayer--><g id="link_AppLayer_ContextLayer"><path d="M1085.0643,181.2271 C1085.1414,181.4529 1085.2189,181.6799 1085.2968,181.9081 C1085.6085,182.8209 1085.9269,183.7531 1086.2514,184.7034 C1091.4441,199.9094 1098.2281,219.7756 1105.0113,239.6394 C1111.7944,259.5031 1118.5766,279.3644 1123.7655,294.5603 C1124.0898,295.5101 1124.4079,296.4416 1124.7193,297.3537 C1124.7972,297.5818 1122.9358,292.1305 1123.0128,292.3561 " fill="none" id="AppLayer-to-ContextLayer" style="stroke:#333333;stroke-width:1.0;stroke-dasharray:7.0,7.0;"/><polygon fill="#333333" points="1124.9517,298.0342,1125.8288,288.2245,1123.336,293.3025,1118.258,290.8096,1124.9517,298.0342" style="stroke:#333333;stroke-width:1.0;"/><text fill="#000000" font-family="Inter" font-size="13" lengthAdjust="spacing" textLength="35" x="1103" y="227.1045">&#171;use&#187;</text></g><!--link AppLayer to ConstantsLayer--><g id="link_AppLayer_ConstantsLayer"><path d="M1086.1928,157.7682 C1086.6223,157.7758 1087.0663,157.7837 1087.5247,157.7918 C1088.4414,157.8081 1089.4156,157.8255 1090.4462,157.844 C1098.6907,157.9917 1110.5463,158.2091 1125.5088,158.4965 C1155.4336,159.0713 1197.7857,159.926 1248.5308,161.0633 C1350.0209,163.3378 1485.0831,166.7425 1621.4438,171.2981 C1894.165,180.4094 2172.08,194.1244 2197,212.6094 C2207.17,220.1519 2214.6963,230.5831 2220.2641,242.0245 C2223.048,247.7452 2225.3423,253.7185 2227.2326,259.7094 C2227.4689,260.4583 2225.9808,255.4587 2226.2046,256.2077 " fill="none" id="AppLayer-to-ConstantsLayer" style="stroke:#333333;stroke-width:1.0;stroke-dasharray:7.0,7.0;"/><polygon fill="#333333" points="2227.9227,261.9564,2229.1781,252.1879,2226.491,257.1658,2221.5131,254.4787,2227.9227,261.9564" style="stroke:#333333;stroke-width:1.0;"/><text fill="#000000" font-family="Inter" font-size="13" lengthAdjust="spacing" textLength="35" x="2214" y="227.1045">&#171;use&#187;</text></g><!--link ContextLayer to APILayer--><g id="link_ContextLayer_APILayer"><path d="M1133,371.4919 C1133,371.8249 1133,372.1591 1133,372.4942 C1133,377.857 1133,383.4914 1133,389.307 C1133,400.938 1133,413.2934 1133,425.6481 C1133,431.8255 1133,438.0026 1133,444.089 C1133,447.1322 1133,450.1527 1133,453.1391 C1133,454.6323 1133,456.1171 1133,457.5919 C1133,458.3293 1133,459.0642 1133,459.7964 C1133,459.9795 1133,454.1624 1133,454.3451 " fill="none" id="ContextLayer-to-APILayer" style="stroke:#333333;stroke-width:1.0;stroke-dasharray:7.0,7.0;"/><polygon fill="#333333" points="1133,460.3451,1137,451.3451,1133,455.3451,1129,451.3451,1133,460.3451" style="stroke:#333333;stroke-width:1.0;"/><text fill="#000000" font-family="Inter" font-size="13" lengthAdjust="spacing" textLength="35" x="1134" y="433.1045">&#171;use&#187;</text></g><!--link ContextLayer to ServiceLayer--><g id="link_ContextLayer_ServiceLayer"><path d="M1133.4926,370.7319 C1133.5434,371.0289 1133.5955,371.326 1133.6488,371.6232 C1134.5012,376.3788 1135.6614,381.1628 1137.2172,385.8056 C1140.3288,395.0913 1145.0225,403.8119 1152,410.6094 C1157.51,415.9794 1280.37,435.6694 1288,436.6094 C1303.46,438.5194 1414.46,436.9094 1428,444.6094 C1447.04,455.4394 1460.9025,475.7144 1470.0725,493.5144 C1471.2187,495.7394 1472.2917,497.9257 1473.2922,500.0501 C1473.7925,501.1123 1474.2747,502.159 1474.7389,503.1873 C1474.971,503.7014 1475.1986,504.211 1475.4218,504.7156 C1475.5333,504.9678 1475.6438,505.2189 1475.7531,505.4687 C1475.8078,505.5936 1473.4664,500.2172 1473.5205,500.3414 " fill="none" id="ContextLayer-to-ServiceLayer" style="stroke:#333333;stroke-width:1.0;stroke-dasharray:7.0,7.0;"/><polygon fill="#333333" points="1475.9163,505.8423,1475.99,495.9938,1473.9198,501.2582,1468.6554,499.1881,1475.9163,505.8423" style="stroke:#333333;stroke-width:1.0;"/><text fill="#000000" font-family="Inter" font-size="13" lengthAdjust="spacing" textLength="35" x="1289" y="433.1045">&#171;use&#187;</text></g><!--link AppLayer to TypesLayer--><g id="link_AppLayer_TypesLayer"><path d="M1085.3481,157.5806 C1085.7386,157.5796 1086.1421,157.5786 1086.5588,157.5777 C1087.3921,157.5757 1088.2776,157.5738 1089.2146,157.5719 C1096.7098,157.5571 1107.4923,157.5478 1121.1123,157.567 C1148.3525,157.6054 1186.9431,157.758 1233.2875,158.2098 C1325.9763,159.1134 1449.68,161.2138 1575.625,165.9906 C1827.515,175.5444 2088.37,195.8044 2128,238.6094 C2179.94,294.6994 2166.56,344.5994 2128,410.6094 C2029.43,579.3594 1869.6,476.0494 1745,626.6094 C1741.9938,630.2419 1739.305,634.2117 1736.9009,638.3839 C1736.2999,639.427 1735.7167,640.4827 1735.1508,641.549 C1735.0093,641.8155 1737.6378,636.7599 1737.4985,637.0277 " fill="none" id="AppLayer-to-TypesLayer" style="stroke:#333333;stroke-width:1.0;stroke-dasharray:7.0,7.0;"/><polygon fill="#333333" points="1734.7295,642.3506,1742.4315,636.2123,1737.037,637.9149,1735.3344,632.5203,1734.7295,642.3506" style="stroke:#333333;stroke-width:1.0;"/><text fill="#000000" font-family="Inter" font-size="13" lengthAdjust="spacing" textLength="50" x="2122" y="433.1045">&#171;import&#187;</text></g><!--link ContextLayer to TypesLayer--><g id="link_ContextLayer_TypesLayer"><path d="M1132.5086,370.7634 C1132.6029,371.3597 1132.7022,371.9564 1132.8068,372.5531 C1133.6433,377.3265 1134.8134,382.0998 1136.4156,386.6916 C1139.62,395.875 1144.5525,404.3319 1152,410.6094 C1159.53,416.9494 1319.18,417.9894 1329,418.6094 C1400.42,423.1194 1595.35,398.3994 1650,444.6094 C1695.655,483.2194 1712.6,548.0194 1718.0363,603.8744 C1718.7158,610.8563 1719.2155,617.6984 1719.569,624.3321 C1719.7457,627.6489 1719.8859,630.9137 1719.9937,634.1178 C1720.0476,635.7198 1720.0934,637.3067 1720.1317,638.8773 C1720.1508,639.6627 1720.1681,640.4439 1720.1835,641.221 C1720.1912,641.6095 1720.0928,635.9979 1720.0996,636.3843 " fill="none" id="ContextLayer-to-TypesLayer" style="stroke:#333333;stroke-width:1.0;stroke-dasharray:7.0,7.0;"/><polygon fill="#333333" points="1720.2052,642.3834,1724.0462,633.3144,1720.1172,637.3842,1716.0475,633.4552,1720.2052,642.3834" style="stroke:#333333;stroke-width:1.0;"/><text fill="#000000" font-family="Inter" font-size="13" lengthAdjust="spacing" textLength="50" x="1717" y="534.1045">&#171;import&#187;</text></g><!--link APILayer to TypesLayer--><g id="link_APILayer_TypesLayer"><path d="M1140.8631,576.6105 C1140.909,576.7124 1140.9551,576.8141 1141.0015,576.9157 C1141.0943,577.1189 1141.1882,577.3216 1141.2831,577.5238 C1141.6627,578.3324 1142.0593,579.1325 1142.4736,579.9222 C1143.3021,581.5015 1144.2013,583.0391 1145.1772,584.5201 C1147.1291,587.4822 1149.3875,590.2181 1152,592.6094 C1198.93,635.5494 1338.3475,664.6794 1466.9375,683.1331 C1531.2325,692.36 1592.8206,698.9178 1638.7875,703.1983 C1650.2792,704.2684 1660.7946,705.1962 1670.1319,705.9878 C1674.8005,706.3835 1679.1746,706.7453 1683.229,707.0737 C1685.2562,707.2379 1687.2034,707.3938 1689.0676,707.5415 C1689.5336,707.5784 1684.013,707.1436 1684.4686,707.1795 " fill="none" id="APILayer-to-TypesLayer" style="stroke:#333333;stroke-width:1.0;stroke-dasharray:7.0,7.0;"/><polygon fill="#333333" points="1690.45,707.6507,1681.792,702.9563,1685.4655,707.258,1681.1637,710.9316,1690.45,707.6507" style="stroke:#333333;stroke-width:1.0;"/><text fill="#000000" font-family="Inter" font-size="13" lengthAdjust="spacing" textLength="50" x="1192" y="615.1045">&#171;import&#187;</text></g><!--link TranslationContext to translationAPI--><g id="link_TranslationContext_translationAPI"><path d="M1259.44,346.6194 C1268.99,365.8494 1282.93,393.9894 1295,418.6094 C1309.46,448.0794 1323.3544,476.7095 1334.0544,498.7995 " fill="none" id="TranslationContext-to-translationAPI" style="stroke:#333333;stroke-width:1.0;stroke-dasharray:7.0,7.0;"/><polygon fill="#333333" points="1336.67,504.1994,1336.3465,494.3558,1334.4903,499.6995,1329.1467,497.8433,1336.67,504.1994" style="stroke:#333333;stroke-width:1.0;"/></g><!--link PhrasesContext to translationAPI--><g id="link_PhrasesContext_translationAPI"><path d="M1431.28,346.9294 C1428.91,370.3694 1423.42,407.1394 1411,436.6094 C1400.4,461.7494 1385.9493,482.3311 1371.8193,499.8311 " fill="none" id="PhrasesContext-to-translationAPI" style="stroke:#333333;stroke-width:1.0;stroke-dasharray:7.0,7.0;"/><polygon fill="#333333" points="1368.05,504.4994,1376.8161,500.0099,1371.1911,500.6092,1370.5918,494.9842,1368.05,504.4994" style="stroke:#333333;stroke-width:1.0;"/></g><!--link PhrasesContext to supabase--><g id="link_PhrasesContext_supabase"><path d="M1452.14,346.8294 C1471.74,370.8794 1502.83,409.7494 1528,444.6094 C1542.27,464.3694 1554.2574,482.491 1565.0674,499.321 " fill="none" id="PhrasesContext-to-supabase" style="stroke:#333333;stroke-width:1.0;stroke-dasharray:7.0,7.0;"/><polygon fill="#333333" points="1568.31,504.3694,1566.8117,494.6352,1565.6079,500.1624,1560.0806,498.9586,1568.31,504.3694" style="stroke:#333333;stroke-width:1.0;"/></g><!--link TranslationHistoryContext to supabase--><g id="link_TranslationHistoryContext_supabase"><path d="M1632.68,346.6094 C1621.93,385.7894 1601.7684,459.2534 1590.9684,498.5934 " fill="none" id="TranslationHistoryContext-to-supabase" style="stroke:#333333;stroke-width:1.0;stroke-dasharray:7.0,7.0;"/><polygon fill="#333333" points="1589.38,504.3794,1595.6199,496.7594,1590.7037,499.5578,1587.9053,494.6415,1589.38,504.3794" style="stroke:#333333;stroke-width:1.0;"/></g><!--link BilingualHistoryContext to supabase--><g id="link_BilingualHistoryContext_supabase"><path d="M1842.11,346.9594 C1820.96,365.9194 1789.14,392.3994 1758,410.6094 C1723.23,430.9394 1708.08,423.1494 1674,444.6094 C1647.4,461.3594 1625.4985,481.9046 1608.1285,500.0546 " fill="none" id="BilingualHistoryContext-to-supabase" style="stroke:#333333;stroke-width:1.0;stroke-dasharray:7.0,7.0;"/><polygon fill="#333333" points="1603.98,504.3894,1613.0926,500.6529,1607.4371,500.7771,1607.3129,495.1216,1603.98,504.3894" style="stroke:#333333;stroke-width:1.0;"/></g><!--link UserContext to supabase--><g id="link_UserContext_supabase"><path d="M2039.71,346.8194 C2026.59,367.3394 2004.54,396.1894 1977,410.6094 C1969.5,414.5394 1681.71,441.1094 1674,444.6094 C1644.4,458.0294 1621.7665,480.2067 1605.0965,499.7267 " fill="none" id="UserContext-to-supabase" style="stroke:#333333;stroke-width:1.0;stroke-dasharray:7.0,7.0;"/><polygon fill="#333333" points="1601.2,504.2894,1610.0864,500.0431,1604.4471,500.4872,1604.0029,494.8478,1601.2,504.2894" style="stroke:#333333;stroke-width:1.0;"/></g><!--SRC=[bLLHQzim47xthpWosDA7j8MzZ54AJThIGjk5fdqAPLnb9H5r92F9NSBeVzz9ScmfTWgJ8KxkFjrzTzz9iS8M7AR8td39uLBWKkCQHl2aKPe2hT9mKPOmVEJ8B3oW5U_yv6fJggCiCsz2bkZmELzWLTXh9Uq3hZaCRgNbUX0Xof1XJA-bLfNC9wgWs5-kVxYd1wXqpdKDkZXrJmHYQbqgoQNjnlEh5nf7FFKhWg7Mwa_j_EvNbds3qMW4KyqDRQVAbOGxt7Bjp5dD4mReswCgomryXUVRem6WSKqBsByPqF8VpPOXLdP5kE1pQrwefP37rcnUlEsZRvV5LvFkihLAHAtTwprYJNlsRELAe-5cp_eg2Y6N5HPxTcIC-cfZJYcVbJ0q7jjF2RbMt13EZrCBKqmdxb-JnqE4Tf2njyP4vhyBt5BV0yEFdLxZoWZ9ZO4xQYdhKyneTi9eLFd6md16odAuHqckDUaSv9i4TopX_DcuyV7sq93vKrjjwfY6JXz4tuJMfVxnhkvzRrFQ9Lg42yPyTVrrOIbWUBMXqoUnW1dNxuBWzKnERvE28h78LRCWQVmFIfe4DdKe63eMhrHU25gdI0ARglI8YFf4AsD6ayfQgj6rbn53q-LljwNFeTOe9Dohd1SXpvDpfFITXSHFkPAmngAq58IoBCIoqhx2HjVWJIEjI7eVAT2tswADNBUUbrpcN3B10skokuinztO3T3VKUXbOq2NYpZFBcblW-FWydQcVS7PM6Nv-ti74_5eKfMlYXvmk9Ibb0EdxJcYVEoU1iYIR2zsetmRjO18na-HNxrnlwHu5ijHYfCmZVTn6GRUkjdqv3W4RVf-1YCciv4miw6Jx_nWtvR4sMT-Xz24xuxv_Ily7rKxu9yUw0prqmZl0-AhPT_u3]--></g></svg>