<?xml version="1.0" encoding="us-ascii" standalone="no"?><svg xmlns="http://www.w3.org/2000/svg" xmlns:xlink="http://www.w3.org/1999/xlink" contentStyleType="text/css" height="794px" preserveAspectRatio="none" style="width:978px;height:794px;background:#FFFFFF;" version="1.1" viewBox="0 0 978 794" width="978px" zoomAndPan="magnify"><defs/><g><text fill="#000000" font-family="Inter" font-size="14" font-weight="bold" lengthAdjust="spacing" textLength="242" x="361" y="24.5332">Use Case Diagram - Translator App</text><!--cluster External Systems--><g id="cluster_External Systems"><path d="M837.5,175.2694 L958.5,175.2694 A3.75,3.75 0 0 1 961,177.7694 L968,198.8787 L968.5,198.8787 A2.5,2.5 0 0 1 971,201.3787 L971,528.7694 A2.5,2.5 0 0 1 968.5,531.2694 L837.5,531.2694 A2.5,2.5 0 0 1 835,528.7694 L835,177.7694 A2.5,2.5 0 0 1 837.5,175.2694 " fill="#F8F8F8" style="stroke:#000000;stroke-width:1.5;"/><line style="stroke:#000000;stroke-width:1.5;" x1="835" x2="968" y1="198.8787" y2="198.8787"/><text fill="#000000" font-family="Inter" font-size="14" font-weight="bold" lengthAdjust="spacing" textLength="120" x="839" y="191.8026">External Systems</text></g><!--cluster Core Features--><g id="cluster_Core Features"><path d="M93.5,158.2694 L195.5,158.2694 A3.75,3.75 0 0 1 198,160.7694 L205,181.8787 L429.5,181.8787 A2.5,2.5 0 0 1 432,184.3787 L432,552.7694 A2.5,2.5 0 0 1 429.5,555.2694 L93.5,555.2694 A2.5,2.5 0 0 1 91,552.7694 L91,160.7694 A2.5,2.5 0 0 1 93.5,158.2694 " fill="#F8F8F8" style="stroke:#000000;stroke-width:1.5;"/><line style="stroke:#000000;stroke-width:1.5;" x1="91" x2="205" y1="181.8787" y2="181.8787"/><text fill="#000000" font-family="Inter" font-size="14" font-weight="bold" lengthAdjust="spacing" textLength="101" x="95" y="174.8026">Core Features</text></g><!--cluster Account & History--><g id="cluster_Account &amp; History"><path d="M530.5,552.2694 L655.5,552.2694 A3.75,3.75 0 0 1 658,554.7694 L665,575.8788 L742.5,575.8788 A2.5,2.5 0 0 1 745,578.3788 L745,714.7694 A2.5,2.5 0 0 1 742.5,717.2694 L530.5,717.2694 A2.5,2.5 0 0 1 528,714.7694 L528,554.7694 A2.5,2.5 0 0 1 530.5,552.2694 " fill="#F8F8F8" style="stroke:#000000;stroke-width:1.5;"/><line style="stroke:#000000;stroke-width:1.5;" x1="528" x2="665" y1="575.8788" y2="575.8788"/><text fill="#000000" font-family="Inter" font-size="14" font-weight="bold" lengthAdjust="spacing" textLength="124" x="532" y="568.8026">Account &amp; History</text></g><!--entity Supabase--><g id="elem_Supabase"><ellipse cx="902.5" cy="445.7694" fill="#F1F1F1" rx="8" ry="8" style="stroke:#000000;stroke-width:0.5;"/><path d="M902.5,453.7694 L902.5,480.7694 M889.5,461.7694 L915.5,461.7694 M902.5,480.7694 L889.5,495.7694 M902.5,480.7694 L915.5,495.7694 " fill="none" style="stroke:#000000;stroke-width:0.5;"/><text fill="#000000" font-family="Inter" font-size="14" lengthAdjust="spacing" textLength="97" x="854" y="511.8026">Supabase (DB)</text></g><!--entity TranslationAPI--><g id="elem_TranslationAPI"><ellipse cx="902.5" cy="332.7694" fill="#F1F1F1" rx="8" ry="8" style="stroke:#000000;stroke-width:0.5;"/><path d="M902.5,340.7694 L902.5,367.7694 M889.5,348.7694 L915.5,348.7694 M902.5,367.7694 L889.5,382.7694 M902.5,367.7694 L915.5,382.7694 " fill="none" style="stroke:#000000;stroke-width:0.5;"/><text fill="#000000" font-family="Inter" font-size="14" lengthAdjust="spacing" textLength="96" x="854.5" y="398.8026">Translation API</text></g><!--entity OCRAPI--><g id="elem_OCRAPI"><ellipse cx="902.5" cy="219.7694" fill="#F1F1F1" rx="8" ry="8" style="stroke:#000000;stroke-width:0.5;"/><path d="M902.5,227.7694 L902.5,254.7694 M889.5,235.7694 L915.5,235.7694 M902.5,254.7694 L889.5,269.7694 M902.5,254.7694 L915.5,269.7694 " fill="none" style="stroke:#000000;stroke-width:0.5;"/><text fill="#000000" font-family="Inter" font-size="14" lengthAdjust="spacing" textLength="56" x="874.5" y="285.8026">OCR API</text></g><g id="elem_UC_TranslateVoice"><ellipse cx="261.6724" cy="505.1038" fill="#FFFFFF" rx="154.6724" ry="33.3345" style="stroke:#181818;stroke-width:0.5;"/><text fill="#000000" font-family="Inter" font-size="14" lengthAdjust="spacing" textLength="110" x="206.6724" y="500.0277">Voice Translation</text><text fill="#000000" font-family="Inter" font-size="14" lengthAdjust="spacing" textLength="235" x="144.1724" y="517.637">(Speech -&gt; Text -&gt; Translate -&gt; TTS)</text></g><g id="elem_UC_TranslateImage"><ellipse cx="261.624" cy="224.2942" fill="#FFFFFF" rx="138.124" ry="30.0248" style="stroke:#181818;stroke-width:0.5;"/><text fill="#000000" font-family="Inter" font-size="14" lengthAdjust="spacing" textLength="113" x="205.124" y="219.218">Image Translation</text><text fill="#000000" font-family="Inter" font-size="14" lengthAdjust="spacing" textLength="193" x="165.124" y="236.8274">(Camera -&gt; OCR -&gt; Translate)</text></g><g id="elem_UC_Bilingual"><ellipse cx="261.582" cy="408.2636" fill="#FFFFFF" rx="111.582" ry="27.9943" style="stroke:#181818;stroke-width:0.5;"/><text fill="#000000" font-family="Inter" font-size="14" lengthAdjust="spacing" textLength="141" x="188.082" y="403.9755">Bilingual Conversation</text><text fill="#000000" font-family="Inter" font-size="14" lengthAdjust="spacing" textLength="102" x="207.582" y="421.5849">(Split Mode A/B)</text></g><g id="elem_UC_BrowsePhrases"><ellipse cx="261.566" cy="317.1728" fill="#FFFFFF" rx="109.066" ry="27.9034" style="stroke:#181818;stroke-width:0.5;"/><text fill="#000000" font-family="Inter" font-size="14" lengthAdjust="spacing" textLength="92" x="215.566" y="312.0966">Quick Phrases</text><text fill="#000000" font-family="Inter" font-size="14" lengthAdjust="spacing" textLength="138" x="192.566" y="329.706">(Manage &amp; Translate)</text></g><g id="elem_UC_Login"><ellipse cx="636.481" cy="683.0656" fill="#FFFFFF" rx="74.481" ry="17.2962" style="stroke:#181818;stroke-width:0.5;"/><text fill="#000000" font-family="Inter" font-size="14" lengthAdjust="spacing" textLength="100" x="583.481" y="687.5822">Login / Register</text></g><g id="elem_UC_ManageHistory"><ellipse cx="636.566" cy="609.1826" fill="#FFFFFF" rx="92.566" ry="20.9132" style="stroke:#181818;stroke-width:0.5;"/><text fill="#000000" font-family="Inter" font-size="14" lengthAdjust="spacing" textLength="144" x="564.566" y="612.9111">View &amp; Manage History</text></g><!--entity Guest--><g id="elem_Guest"><ellipse cx="25" cy="440.7694" fill="#F1F1F1" rx="8" ry="8" style="stroke:#000000;stroke-width:0.5;"/><path d="M25,448.7694 L25,475.7694 M12,456.7694 L38,456.7694 M25,475.7694 L12,490.7694 M25,475.7694 L38,490.7694 " fill="none" style="stroke:#000000;stroke-width:0.5;"/><text fill="#000000" font-family="Inter" font-size="14" lengthAdjust="spacing" textLength="38" x="6" y="506.8026">Guest</text></g><!--entity RegisteredUser--><g id="elem_RegisteredUser"><ellipse cx="261.5" cy="582.7694" fill="#F1F1F1" rx="8" ry="8" style="stroke:#000000;stroke-width:0.5;"/><path d="M261.5,590.7694 L261.5,617.7694 M248.5,598.7694 L274.5,598.7694 M261.5,617.7694 L248.5,632.7694 M261.5,617.7694 L274.5,632.7694 " fill="none" style="stroke:#000000;stroke-width:0.5;"/><text fill="#000000" font-family="Inter" font-size="14" lengthAdjust="spacing" textLength="102" x="210.5" y="648.8026">Registered User</text></g><!--link Guest to UC_TranslateVoice--><g id="link_Guest_UC_TranslateVoice"><path d="M44.01,473.8894 C63.85,476.7594 91.6821,480.7985 126.7221,485.8785 " fill="none" id="Guest-to-UC_TranslateVoice" style="stroke:#181818;stroke-width:1.0;"/><polygon fill="#181818" points="132.66,486.7394,124.327,481.4895,127.7117,486.022,123.1792,489.4067,132.66,486.7394" style="stroke:#181818;stroke-width:1.0;"/></g><!--link Guest to UC_TranslateImage--><g id="link_Guest_UC_TranslateImage"><path d="M26.21,432.0894 C28.62,387.0494 39.58,313.8894 83,271.2694 C98.59,255.9794 112.8622,247.4391 133.7322,240.3091 " fill="none" id="Guest-to-UC_TranslateImage" style="stroke:#181818;stroke-width:1.0;"/><polygon fill="#181818" points="139.41,238.3694,129.6001,237.4938,134.6785,239.9858,132.1865,245.0642,139.41,238.3694" style="stroke:#181818;stroke-width:1.0;"/></g><!--link Guest to UC_Bilingual--><g id="link_Guest_UC_Bilingual"><path d="M44.05,463.9094 C52.98,460.4194 63.96,456.3594 74,453.2694 C106.96,443.1594 137.9062,435.2294 170.0462,427.7494 " fill="none" id="Guest-to-UC_Bilingual" style="stroke:#181818;stroke-width:1.0;"/><polygon fill="#181818" points="175.89,426.3894,166.2176,424.5336,171.0201,427.5227,168.031,432.3253,175.89,426.3894" style="stroke:#181818;stroke-width:1.0;"/></g><!--link Guest to UC_BrowsePhrases--><g id="link_Guest_UC_BrowsePhrases"><path d="M37.4,432.1594 C46.2,408.6094 60.71,379.8794 83,362.2694 C104.95,344.9294 126.9622,335.6267 154.0322,328.9967 " fill="none" id="Guest-to-UC_BrowsePhrases" style="stroke:#181818;stroke-width:1.0;"/><polygon fill="#181818" points="159.86,327.5694,150.1668,325.8252,155.0035,328.7588,152.0699,333.5955,159.86,327.5694" style="stroke:#181818;stroke-width:1.0;"/></g><!--link Guest to UC_Login--><g id="link_Guest_UC_Login"><path d="M31.78,510.6694 C40.29,562.6794 57.95,649.9194 83,669.2694 C236.36,787.7894 485.9567,729.7256 586.8467,699.2256 " fill="none" id="Guest-to-UC_Login" style="stroke:#181818;stroke-width:1.0;"/><polygon fill="#181818" points="592.59,697.4894,582.8176,696.2649,587.8039,698.9363,585.1326,703.9226,592.59,697.4894" style="stroke:#181818;stroke-width:1.0;"/></g><!--reverse link Guest to RegisteredUser--><g id="link_Guest_RegisteredUser"><path d="M53.1869,524.0915 C62.7569,540.4315 66.81,543.0894 83,555.2694 C120.43,583.4494 172.16,598.2894 210.12,605.8794 " fill="none" id="Guest-backto-RegisteredUser" style="stroke:#181818;stroke-width:1.0;"/><polygon fill="none" points="44.09,508.5594,48.0095,527.1238,58.3642,521.0592,44.09,508.5594" style="stroke:#181818;stroke-width:1.0;"/></g><!--link RegisteredUser to UC_ManageHistory--><g id="link_RegisteredUser_UC_ManageHistory"><path d="M312.72,623.7894 C363.14,632.9594 443.02,643.7294 512,636.2694 C532.84,634.0194 549.469,631.0182 569.459,626.4782 " fill="none" id="RegisteredUser-to-UC_ManageHistory" style="stroke:#181818;stroke-width:1.0;"/><polygon fill="#181818" points="575.31,625.1494,565.6476,623.242,570.4342,626.2567,567.4194,631.0433,575.31,625.1494" style="stroke:#181818;stroke-width:1.0;"/></g><!--link UC_TranslateVoice to TranslationAPI--><g id="link_UC_TranslateVoice_TranslationAPI"><path d="M404.95,492.6794 C503.99,481.5694 638.3,461.7694 753,428.2694 C787.98,418.0594 820.1673,404.1491 848.7773,390.3291 " fill="none" id="UC_TranslateVoice-to-TranslationAPI" style="stroke:#181818;stroke-width:1.0;stroke-dasharray:7.0,7.0;"/><polygon fill="#181818" points="854.18,387.7194,844.3361,388.0322,849.6778,389.8942,847.8158,395.2358,854.18,387.7194" style="stroke:#181818;stroke-width:1.0;"/><text fill="#000000" font-family="Inter" font-size="13" lengthAdjust="spacing" textLength="28" x="622.5" y="424.7645">uses</text></g><!--link UC_TranslateImage to OCRAPI--><g id="link_UC_TranslateImage_OCRAPI"><path d="M301.67,195.3394 C337.63,170.7094 393.45,137.1594 448,123.2694 C607.79,82.5894 674.09,44.6094 819,123.2694 C853.08,141.7794 872.9438,175.5929 885.6338,205.6129 " fill="none" id="UC_TranslateImage-to-OCRAPI" style="stroke:#181818;stroke-width:1.0;stroke-dasharray:7.0,7.0;"/><polygon fill="#181818" points="887.97,211.1394,888.1501,201.2922,886.0232,206.5339,880.7814,204.407,887.97,211.1394" style="stroke:#181818;stroke-width:1.0;"/><text fill="#000000" font-family="Inter" font-size="13" lengthAdjust="spacing" textLength="28" x="622.5" y="74.7645">uses</text></g><!--link UC_TranslateImage to TranslationAPI--><g id="link_UC_TranslateImage_TranslationAPI"><path d="M399.29,222.1694 C498.64,223.4294 635.67,230.9594 753,258.2694 C783.87,265.4594 796.86,262.5894 819,285.2694 C825.98,292.4194 821.03,298.2694 827,306.2694 C834.5,316.3294 839.5228,321.7562 849.4628,329.6562 " fill="none" id="UC_TranslateImage-to-TranslationAPI" style="stroke:#181818;stroke-width:1.0;stroke-dasharray:7.0,7.0;"/><polygon fill="#181818" points="854.16,333.3894,849.603,324.6582,850.2457,330.2784,844.6255,330.9211,854.16,333.3894" style="stroke:#181818;stroke-width:1.0;"/><text fill="#000000" font-family="Inter" font-size="13" lengthAdjust="spacing" textLength="28" x="622.5" y="223.7645">uses</text></g><!--link UC_Bilingual to TranslationAPI--><g id="link_UC_Bilingual_TranslationAPI"><path d="M373.3,406.7394 C472.88,404.5494 623.01,399.2194 753,386.2694 C787.01,382.8894 819.1868,377.9661 848.2668,372.9661 " fill="none" id="UC_Bilingual-to-TranslationAPI" style="stroke:#181818;stroke-width:1.0;stroke-dasharray:7.0,7.0;"/><polygon fill="#181818" points="854.18,371.9494,844.6323,369.5323,849.2523,372.7966,845.988,377.4166,854.18,371.9494" style="stroke:#181818;stroke-width:1.0;"/><text fill="#000000" font-family="Inter" font-size="13" lengthAdjust="spacing" textLength="28" x="622.5" y="382.7645">uses</text></g><!--link UC_BrowsePhrases to TranslationAPI--><g id="link_UC_BrowsePhrases_TranslationAPI"><path d="M351.72,301.3694 C450.84,286.5994 615.09,270.8194 753,299.2694 C788.47,306.5894 820.5376,320.0978 848.9476,334.3578 " fill="none" id="UC_BrowsePhrases-to-TranslationAPI" style="stroke:#181818;stroke-width:1.0;stroke-dasharray:7.0,7.0;"/><polygon fill="#181818" points="854.31,337.0494,848.0608,329.4371,849.8413,334.8064,844.472,336.5869,854.31,337.0494" style="stroke:#181818;stroke-width:1.0;"/><text fill="#000000" font-family="Inter" font-size="13" lengthAdjust="spacing" textLength="28" x="622.5" y="280.7645">uses</text></g><!--link UC_Login to Supabase--><g id="link_UC_Login_Supabase"><path d="M689.84,670.9894 C710.16,665.1994 733.25,657.3194 753,647.2694 C785.57,630.7194 793.74,624.6694 819,598.2694 C842.95,573.2394 861.576,545.6761 876.706,520.4261 " fill="none" id="UC_Login-to-Supabase" style="stroke:#181818;stroke-width:1.0;stroke-dasharray:7.0,7.0;"/><polygon fill="#181818" points="879.79,515.2794,871.7329,520.9435,877.22,519.5683,878.5952,525.0555,879.79,515.2794" style="stroke:#181818;stroke-width:1.0;"/><text fill="#000000" font-family="Inter" font-size="13" lengthAdjust="spacing" textLength="25" x="777.5" y="594.7645">auth</text></g><!--link UC_ManageHistory to Supabase--><g id="link_UC_ManageHistory_Supabase"><path d="M698.69,593.6494 C735.04,582.9394 781.26,566.7694 819,545.2694 C833.44,537.0494 843.2261,530.0708 855.8361,519.4208 " fill="none" id="UC_ManageHistory-to-Supabase" style="stroke:#181818;stroke-width:1.0;stroke-dasharray:7.0,7.0;"/><polygon fill="#181818" points="860.42,515.5494,850.9632,518.3006,856.6001,518.7756,856.1251,524.4124,860.42,515.5494" style="stroke:#181818;stroke-width:1.0;"/><text fill="#000000" font-family="Inter" font-size="13" lengthAdjust="spacing" textLength="56" x="762" y="541.7645">read/write</text></g><!--link UC_BrowsePhrases to Supabase--><g id="link_UC_BrowsePhrases_Supabase"><path d="M369.79,320.7594 C492.59,325.9294 685.48,338.0194 753,364.2694 C755.96,365.4294 806.719,403.911 849.009,436.161 " fill="none" id="UC_BrowsePhrases-to-Supabase" style="stroke:#181818;stroke-width:1.0;stroke-dasharray:7.0,7.0;"/><polygon fill="#181818" points="853.78,439.7994,849.049,431.1612,849.8042,436.7674,844.1979,437.5225,853.78,439.7994" style="stroke:#181818;stroke-width:1.0;"/><text fill="#000000" font-family="Inter" font-size="13" lengthAdjust="spacing" textLength="143" x="565" y="326.7645">read/write (user phrases)</text></g><!--link UC_TranslateVoice to UC_ManageHistory--><g id="link_UC_TranslateVoice_UC_ManageHistory"><path d="M391.42,523.4094 C409.78,530.9994 426.85,541.5794 440,556.2694 C454.13,572.0694 432.03,589.3494 448,603.2694 C482.24,633.1294 528.9264,633.2442 569.7164,626.2442 " fill="none" id="UC_TranslateVoice-to-UC_ManageHistory" style="stroke:#181818;stroke-width:1.0;stroke-dasharray:7.0,7.0;"/><polygon fill="#181818" points="575.63,625.2294,566.0831,622.8092,570.702,626.0751,567.4362,630.694,575.63,625.2294" style="stroke:#181818;stroke-width:1.0;"/><text fill="#000000" font-family="Inter" font-size="13" lengthAdjust="spacing" textLength="62" x="449" y="599.7645">&#171;includes&#187;</text></g><!--link UC_Bilingual to UC_ManageHistory--><g id="link_UC_Bilingual_UC_ManageHistory"><path d="M358.32,422.2494 C386.04,429.0894 415.42,439.2394 440,454.2694 C485.66,482.1994 478.33,510.6894 520,544.2694 C542.84,562.6794 566.2199,576.1831 589.3199,587.8031 " fill="none" id="UC_Bilingual-to-UC_ManageHistory" style="stroke:#181818;stroke-width:1.0;stroke-dasharray:7.0,7.0;"/><polygon fill="#181818" points="594.68,590.4994,588.4374,582.8816,590.2133,588.2525,584.8424,590.0283,594.68,590.4994" style="stroke:#181818;stroke-width:1.0;"/><text fill="#000000" font-family="Inter" font-size="13" lengthAdjust="spacing" textLength="62" x="449" y="457.7645">&#171;includes&#187;</text></g><!--SRC=[XLJRZjem47ttLunIgOM7B7si44A2R6cHkkrsOVjKgNAJ8LW4E_9bMTJklzTsBZW4jeuKx9dZCyV74pJJ1SAZGaYeVTqocakwXnZMad9LK2qapCgI4BLZlAGkb-66ca8l1DTVwHuXMdADCWeGDBNRva9cA1DHM8Otx_q884QXApYdwIwNml2i1Yxy282bHT3y0l23UmWfSAD12v0itsh8cCHKCy49yI8W-cHGwGYe0ZzhmW-OCsLbO-OEBptW57CXGkhI47ryjb5E2rWTRNwl8lX3m8wQQsLA-jkvDxYT3prJ4mbHZQ5M7CpkbnuNn6meH7zB7bgKdRliIw0e4H9XWLGRYQqSwsdgP3mclnfY_25OYeuagcP1nPzyi2eHqot4KrZZi_Q_pKQ_MA-6qLNgvTv9STJLh4kTsDQGrB6ueuJCVSevAnZFZJNOiPrMYU1FADL9RS4qt8aCOJQQNw2Hug3mVYljMdcgxuQbEwWZbk6ESgVqRKTCwEiiJMsFQOluR5j1oEC5Rx-8d75FNyr6RUFq55NrQghg5XWUB7ijf2dYDFZsXDWwrRk_ApblUpVNUdSM3ftfflmPckgJlt7S-mowwsPVvsY4lBFRghjNMrOgqk_1cvlfMR_3s7dLnLQjvB1Lrx-EkSftwg7NOPsEkGubxRKxJFkzZu4QlIMzYpu3IQJPw22PniirBq9XO9pRPOKREeTdHejOqIUqiC1h60XU785je11vRl_G61zUyR-dT0oJ2UDfOJ9KqsdVkVzj-0S0]--></g></svg>